<svg width="172" height="172" viewBox="0 0 172 172" fill="none" xmlns="http://www.w3.org/2000/svg">
<g clip-path="url(#clip0_28_4337)">
<g clip-path="url(#clip1_28_4337)">
<path d="M172 -4H0V168H172V-4Z" fill="white"/>
<path fill-rule="evenodd" clip-rule="evenodd" d="M15.4054 132.006C-2.77362 112.601 38.9675 96.4427 31.9027 69.1103C24.8381 41.7779 9.34337 10.895 75.1066 24.5774C107.194 31.2533 128.178 30.3736 145.61 41.208C164.377 52.8719 131.929 75.6153 157.467 108.529C185.896 145.169 33.5844 151.411 15.4054 132.006Z" fill="#0E9384"/>
<path d="M43.1432 120.118C42.6547 118.582 36.4398 120.978 34.2503 121.296C33.6653 121.38 36.3526 54.0506 38.5421 38.4523C38.6891 37.4045 39.4385 36.0085 40.3882 36.4816C41.7316 37.1513 43.3062 37.1089 44.8074 37.0552C71.9573 36.0865 99.1519 36.3605 126.277 37.876C127.193 37.9273 128.187 38.0104 128.87 38.6218C129.522 39.205 129.727 40.1244 129.891 40.9816C133.022 57.3193 133.433 108.469 132.217 125.058C131.294 125.05 125.082 123.913 125.082 123.913C125.082 123.913 44.8074 117.642 43.1432 120.118Z" fill="white"/>
<path fill-rule="evenodd" clip-rule="evenodd" d="M79.794 89.947C78.6617 102.192 77.4167 114.426 76.0586 126.648C76.0221 126.975 75.8916 127.394 75.5609 127.398C56.9398 127.63 38.3133 127.443 19.7007 126.836C19.5034 126.83 19.2882 126.817 19.142 126.685C18.9523 126.513 18.9581 126.22 18.9785 125.965C19.9952 113.283 21.012 100.601 22.0287 87.9186C22.2486 87.6537 22.6388 87.6255 22.9837 87.6179C41.3272 87.2177 59.6851 86.8175 78.0182 87.5537C78.4494 87.5711 78.9087 87.5984 79.2576 87.8514C79.8715 88.2963 79.8637 89.1939 79.794 89.947Z" fill="white"/>
<path fill-rule="evenodd" clip-rule="evenodd" d="M119.373 49.982C119.663 50.2047 119.775 50.5829 119.87 50.9356C122.978 62.5919 124.44 74.6826 124.199 86.7407C124.171 88.1426 124.196 89.7333 125.233 90.6813C125.952 77.4 124.486 64.0037 120.91 51.1888C120.575 49.9889 121.495 48.834 122.347 47.9235L128.334 41.5297C131.147 52.6416 131.962 64.1142 131.953 75.6036C131.443 76.5113 130.942 77.4247 130.543 78.3735C129.614 80.5803 129.237 82.9819 129.063 85.3704C128.407 94.3885 130.546 103.407 133.671 111.891C133.833 112.33 134.014 112.791 134.382 113.08C134.742 113.362 135.219 113.432 135.672 113.486C140.11 114.016 144.614 113.982 149.043 113.387C149.431 113.334 149.843 113.267 150.135 113.006C150.398 112.771 150.518 112.419 150.623 112.083C152.828 105.043 153.18 97.5749 153.485 90.2034C153.668 85.7681 153.739 80.9707 151.182 77.3438C150.737 76.7124 150.222 76.134 149.707 75.5561C149.106 74.8812 148.505 74.2067 148.017 73.4485C147.01 71.8872 146.521 69.998 146.644 68.1441C146.752 66.4949 144.813 65.5359 143.186 65.2538C143.106 65.2398 143.026 65.2265 142.945 65.2139C142.975 64.691 143.004 64.3259 143.033 64.3172C144.415 63.8982 145.744 63.3051 146.977 62.555C147.652 62.1447 148.386 61.387 148.022 60.6875C147.724 60.1165 146.917 60.0876 146.286 60.2224C145.271 60.4396 144.303 60.8779 143.471 61.4978C143.916 59.5131 144.875 57.6449 146.23 56.1247C145.676 56.9897 146.438 58.3002 147.465 58.3616C148.493 58.4233 149.39 57.3766 149.294 56.3549C149.706 57.1909 150.851 57.5713 151.684 57.1496C152.517 56.7276 152.883 55.5816 152.449 54.7567C153.112 55.4032 154.347 55.3101 154.895 54.5645C155.443 53.819 155.15 52.606 154.316 52.202C154.873 52.2561 155.456 52.3065 155.973 52.0944C156.49 51.882 156.907 51.3149 156.75 50.7799C156.654 50.4505 156.373 50.2113 156.09 50.0166C155.2 49.4045 154.146 49.0316 153.068 48.9473C153.39 48.6397 153.773 48.4102 154.157 48.1801C154.486 47.9829 154.816 47.7852 155.107 47.5382C155.739 47.0032 156.166 46.0361 155.692 45.3589C155.35 44.8713 154.656 44.7385 154.078 44.8862C153.5 45.0339 153.009 45.405 152.536 45.7673L153.194 43.4848C153.348 42.9495 153.483 42.3129 153.125 41.8854C152.623 41.2857 151.6 41.6411 151.102 42.245C150.904 42.4862 150.743 42.758 150.582 43.0291C150.34 43.4368 150.1 43.8427 149.734 44.139C149.713 43.493 149.685 42.8195 149.372 42.253C149.06 41.6866 148.37 41.2705 147.759 41.487C147.312 41.6453 147.032 42.0817 146.831 42.5094C146.201 43.8489 146.029 45.3969 146.349 46.8413C145.553 46.2127 144.487 45.8666 143.5 46.1063C142.513 46.3459 141.677 47.2573 141.702 48.2691C141.728 49.2812 142.776 50.1951 143.758 49.9357C143.054 50.1451 142.325 50.3687 141.78 50.8606C141.236 51.3523 140.937 52.1958 141.293 52.8365C141.758 53.675 142.956 53.6876 143.895 53.4819C145.084 53.2213 146.236 52.7886 147.302 52.2017L145.57 55.1817C144.275 57.4101 142.595 60.9485 142.116 65.1047C140.658 64.955 139.173 65.0338 137.819 65.5698C136.131 66.2381 134.687 67.7276 134.463 69.5306C134.3 70.8385 133.83 72.0505 133.244 73.2291C133.02 62.5639 131.899 51.9176 129.891 41.4393C129.727 40.5821 129.522 39.6627 128.87 39.0795C128.187 38.4681 127.193 38.3851 126.277 38.3337C99.152 36.8183 71.9574 36.5442 44.8076 37.5129C43.3063 37.5666 41.7317 37.609 40.3883 36.9396C39.4386 36.4662 38.6892 37.8624 38.5422 38.91C36.3527 54.5084 34.9199 70.2122 34.2504 85.9484C34.228 86.4765 34.5302 87.242 35.0093 87.0148C35.7936 70.7984 37.4015 54.6214 39.8241 38.5665L44.3984 45.0156C44.725 45.4758 45.0662 45.9859 45.0286 46.5482L42.7913 79.8887C42.6546 81.9256 42.5243 84.0187 43.1433 85.9649C44.5709 73.3694 45.5073 60.7187 45.9496 48.051C45.9808 47.1557 47.1502 46.8514 48.0485 46.8076C71.5304 45.6678 95.0382 47.6969 118.46 49.7242C118.78 49.752 119.119 49.7868 119.373 49.982ZM142.062 65.6271C140.312 65.44 138.481 66.0264 136.881 66.8382C136.284 67.141 135.619 67.6223 135.674 68.2899C135.732 68.9754 136.504 69.3357 137.17 69.5047C139.601 70.1216 142.202 70.0521 144.596 69.3063C145.195 69.1199 145.87 68.788 145.965 68.1677C146.074 67.4565 145.357 66.919 144.726 66.5738C144.269 66.3236 143.806 66.0794 143.314 65.9067C143.182 65.8606 143.05 65.82 142.916 65.7844C142.903 66.0603 142.89 66.3553 142.877 66.6502C142.824 67.8134 142.772 68.9781 142.72 68.993C142.503 69.0541 142.286 69.1109 142.067 69.1634C141.951 67.9505 141.96 66.7674 142.062 65.6271ZM130.529 80.1086C130.869 78.9973 131.382 77.9522 131.948 76.9289C131.924 80.9356 131.805 84.9423 131.641 88.935C131.603 89.8534 131.857 91.1047 132.78 91.112C133.182 85.6284 133.344 80.1276 133.269 74.6298C134.089 73.1882 134.834 71.7226 135.161 70.1058C138.641 71.2174 142.521 71.0192 145.869 69.559C146.2 71.2428 146.866 72.8601 147.817 74.2881C148.295 75.0059 148.845 75.6774 149.394 76.348C150.263 77.4096 151.129 78.4691 151.708 79.7066C152.57 81.5502 152.719 83.6383 152.791 85.6727C153.092 94.1534 152.284 102.673 150.394 110.945C150.228 111.671 149.905 112.538 149.168 112.637C144.829 113.222 140.422 113.298 136.065 112.864C135.619 112.82 135.141 112.756 134.808 112.455C134.502 112.179 134.38 111.758 134.272 111.359C131.891 102.565 129.49 93.5982 129.889 84.4951C129.954 83.0147 130.095 81.5252 130.529 80.1086ZM93.0696 37.9665L127.8 39.6576C125.634 42.4165 123.37 45.0984 121.013 47.6969C120.13 48.6704 118.62 48.6606 117.306 48.5739C113.29 48.3092 109.272 48.0196 105.253 47.73H105.253H105.253H105.253H105.252H105.252H105.252H105.251H105.251H105.251H105.251L105.25 47.7297H105.25H105.25H105.25H105.249H105.249H105.249H105.248C85.8064 46.3287 66.3376 44.9257 46.9172 46.3115C46.4652 46.3439 46.1381 45.9063 45.904 45.5199L41.435 38.1454C55.383 38.6993 69.3577 38.5933 83.2959 37.8283C86.5506 37.6496 89.8135 37.8081 93.0696 37.9665ZM82.0281 52.3292C82.6047 52.0861 83.2037 51.8369 83.8293 51.8589C84.3389 51.877 84.8226 52.0742 85.2943 52.2671C93.6001 55.6667 102.074 58.657 110.676 61.2232C111.976 61.611 112.335 63.2434 112.468 64.5887L115.109 91.0909C115.676 91.0292 115.778 90.2564 115.723 89.6906L113.076 62.3981C113.506 62.3334 113.924 62.5148 114.327 62.6901C114.352 62.7013 114.378 62.7123 114.404 62.7235L114.438 62.738L114.466 62.7501C114.912 62.94 115.44 63.0873 115.866 62.8565C116.292 62.6261 116.364 61.8589 115.899 61.7223C105.532 58.6779 95.2708 55.2769 85.1395 51.5275C84.7111 51.369 84.271 51.2078 83.8142 51.2101C83.3826 51.2124 82.9668 51.3605 82.5609 51.5068L50.85 62.9448C50.7078 63.5407 51.6534 63.7615 52.2136 63.5092C52.299 63.4709 52.3863 63.4285 52.4751 63.3856C52.9691 63.1467 53.5032 62.8882 53.9348 63.179C53.2296 70.1766 52.6377 77.1853 52.1595 84.2018C52.1143 84.8643 52.3168 85.7919 52.9815 85.7419L54.6549 63.7649C54.7026 63.1386 54.8519 62.3761 55.4518 62.183C64.4502 59.2893 73.3203 56.0004 82.0281 52.3292ZM101.673 118.51C102.129 118.503 102.703 118.409 102.822 117.97C102.629 117.602 102.129 117.553 101.711 117.55L82.9202 117.438C81.2241 117.428 79.4965 117.423 77.876 117.922C77.9877 118.302 78.4819 118.383 78.8787 118.394C86.4749 118.599 94.0755 118.637 101.673 118.51ZM82.0653 121.415C80.5769 121.397 79.0665 121.376 77.6378 120.96C85.5273 120.691 93.4251 120.664 101.316 120.881C101.987 120.9 102.709 120.937 103.237 121.35C103.13 121.622 102.767 121.662 102.473 121.659L82.0653 121.415ZM101.282 110.473C94.1816 110.747 87.0627 110.523 79.9942 109.806C79.5126 109.757 78.8583 109.829 78.787 110.306C86.457 111.223 94.1984 111.546 101.918 111.271C102.023 110.89 101.678 110.458 101.282 110.473ZM95.7253 83.4798C96.0523 83.7653 96.1172 84.2394 96.161 84.6705L97.7411 100.268C99.1825 100.219 100.632 100.422 102.004 100.864L97.8689 101.593C98.8417 103.08 99.5962 104.708 100.1 106.409C93.9734 106.356 87.8482 106.124 81.7346 105.715C81.3787 105.691 80.9766 105.643 80.7634 105.358C80.5019 105.008 80.6696 104.516 80.8452 104.118L82.0203 101.454C82.2075 101.03 81.5433 100.734 81.0867 100.822C81.0427 100.83 80.9977 100.839 80.9519 100.848C80.5216 100.935 80.0265 101.035 79.7816 100.695C79.4018 100.167 80.268 99.582 80.9161 99.6531C81.0406 99.6668 81.17 99.6873 81.3007 99.7079C81.8497 99.7943 82.4237 99.8847 82.7829 99.501C83.0044 94.153 83.5023 88.8166 84.274 83.5195C84.3047 83.309 84.3474 83.0776 84.5148 82.945C84.6661 82.8253 84.8767 82.8221 85.0702 82.8246C88.2651 82.8659 91.4588 82.9817 94.6483 83.1714C95.0286 83.1941 95.4389 83.2296 95.7253 83.4798ZM94.5644 83.9694C91.6498 83.7064 88.7283 83.5158 85.8041 83.3982C85.5527 83.3881 85.2771 83.386 85.0817 83.5436C84.8716 83.7126 84.8244 84.0075 84.7927 84.2747C84.205 89.2285 83.8327 94.2076 83.6775 99.1935C83.6715 99.379 83.6763 99.59 83.8149 99.7143C83.9206 99.8095 84.0742 99.8242 84.2164 99.834C88.1763 100.11 92.144 100.278 96.1131 100.337C96.2938 100.339 96.4959 100.334 96.6238 100.206C96.7628 100.068 96.7566 99.8457 96.7408 99.6508L95.5393 84.842C95.5242 84.6526 95.5051 84.4533 95.3953 84.2983C95.2178 84.0474 94.8713 83.9972 94.5644 83.9694ZM97.4655 102.288C97.3646 102.109 97.2533 101.923 97.0768 101.816C96.9036 101.712 96.6924 101.697 96.4903 101.686L84.3231 100.984C83.9476 100.962 83.5406 100.949 83.2319 101.163C82.9824 101.335 82.8457 101.624 82.72 101.9L81.6371 104.271C81.5734 104.411 81.5108 104.58 81.5917 104.711C81.6722 104.84 81.8497 104.861 82.0027 104.867L98.9334 105.621C98.5541 104.466 98.0617 103.348 97.4655 102.288ZM77.0621 63.4478C77.2777 64.2392 77.7252 64.957 78.2879 65.5553C80.121 67.5047 83.261 68.0821 85.6787 66.927C88.0963 65.7721 89.609 62.9831 89.2691 60.3334C88.9292 57.6837 86.7721 55.3684 84.1483 54.818C82.6301 54.4996 81.0085 55.0322 79.8141 56.0185C78.6195 57.0051 77.8201 58.4024 77.3316 59.8695C76.9479 61.0214 76.7434 62.2763 77.0621 63.4478ZM87.8991 60.7127C86.6079 60.8253 85.3094 60.8515 84.0148 60.7907C83.9064 60.7857 83.7906 60.7774 83.7046 60.7111C83.5743 60.6111 83.5633 60.4231 83.5635 60.2591L83.5681 56.8996C83.5683 56.6815 83.5757 56.4435 83.7183 56.2779C83.999 55.9522 84.5334 56.1518 84.8849 56.4001C86.3485 57.4333 87.4342 58.9866 87.8991 60.7127ZM79.2481 61.0242C79.1509 61.032 79.0477 61.0389 78.9608 60.9948C78.734 60.8799 78.7842 60.546 78.8782 60.3107C79.6151 58.4671 80.9991 56.8875 82.7331 55.9112L82.745 60.4084C82.7453 60.5073 82.7411 60.6171 82.6712 60.6868C82.6086 60.749 82.5125 60.7598 82.4244 60.7669L79.2481 61.0242ZM78.8388 63.1767C78.6129 62.8155 78.4847 62.2351 78.8704 62.053C78.9979 61.9927 79.1463 62.0025 79.2871 62.0135L82.1433 62.2387C82.4162 62.2603 82.7297 62.3052 82.8739 62.5371C82.9505 62.6598 82.9611 62.8107 82.9695 62.9549L83.1117 65.3558C83.12 65.4966 83.1216 65.6562 83.0207 65.7553C82.9074 65.8668 82.7223 65.8461 82.5668 65.8115C81.0404 65.4707 79.666 64.4995 78.8388 63.1767ZM83.7392 65.3838L83.6461 62.9556C83.6394 62.7822 83.6426 62.5843 83.7727 62.4687C83.8894 62.3651 84.0635 62.3688 84.2196 62.3784L87.6431 62.5889C86.8957 63.8032 85.8337 64.8235 84.5886 65.5235C84.2864 65.6934 83.7525 65.7292 83.7392 65.3838ZM63.4021 58.0827C62.7988 57.703 62.8288 56.832 62.9304 56.1284L63.3411 53.2904C63.4125 52.7962 63.7019 52.1471 64.1849 52.2795C64.5983 52.3928 64.6226 52.9615 64.5589 53.3839L64.0454 56.782C63.9704 57.2787 63.8473 57.8465 63.4021 58.0827ZM50.2212 101.151C50.285 100.872 50.404 100.577 50.6553 100.438C51.0401 100.224 51.5497 100.502 51.7412 100.897C51.9325 101.293 51.8953 101.755 51.8538 102.192C51.821 102.538 51.7827 102.9 51.5885 103.189C51.3945 103.478 50.9908 103.659 50.6858 103.49C50.4888 103.381 50.3829 103.162 50.3113 102.949C50.1173 102.373 50.0859 101.743 50.2212 101.151ZM58.543 48.1439C57.8403 48.5026 57.7929 49.4676 57.8419 50.2526C57.8708 50.7147 57.9534 51.2615 58.371 51.4644C58.5325 51.5428 58.7173 51.5525 58.8966 51.5603C60.7875 51.6428 62.6807 51.6692 64.5729 51.6392C64.8366 51.635 65.1162 51.6252 65.3363 51.4809C65.6916 51.2484 65.7611 50.7675 65.7971 50.3457C65.8351 49.9017 65.8714 49.4435 65.7308 49.0206C65.5902 48.5977 65.2246 48.2159 64.7779 48.1996L59.564 48.0081C59.2168 47.9953 58.8522 47.9861 58.543 48.1439ZM59.0093 50.8542C58.8662 50.7714 58.8269 50.587 58.8017 50.4239C58.7205 49.8983 58.7097 49.2261 59.1874 48.9888C59.3764 48.8947 59.5977 48.9002 59.8089 48.9078L63.1691 49.0277C63.6195 49.044 64.0943 49.0672 64.4738 49.3091C64.8536 49.5511 65.0799 50.0928 64.8265 50.4641C64.5983 50.7982 64.1275 50.837 63.7218 50.8425L59.3021 50.903C59.2019 50.9044 59.0959 50.9044 59.0093 50.8542ZM35.4753 99.8735C36.2137 101.099 35.6613 102.658 35.1478 103.993C34.2358 106.363 33.4989 109.071 34.5635 111.378C34.8047 111.901 35.1102 112.583 34.6928 112.981C33.3207 111.695 32.9939 109.613 33.2723 107.757C33.4611 106.498 33.8835 105.294 34.3064 104.089V104.089L34.3066 104.088V104.088V104.088V104.088L34.3068 104.087C34.5073 103.516 34.7077 102.945 34.8834 102.368C35.0409 101.85 35.1795 101.297 35.0464 100.772C34.8742 100.093 34.277 99.5971 33.6397 99.3022C32.4745 98.763 30.9588 98.8089 30.0392 99.7026C29.1196 100.597 29.1819 102.391 30.3199 102.985C30.815 103.244 31.4849 103.222 31.8766 102.825C32.2685 102.428 32.2133 101.647 31.7108 101.403C32.383 101.24 33.0636 101.807 33.2537 102.469C33.4441 103.132 33.2666 103.841 33.0379 104.492C32.8428 105.047 32.6095 105.593 32.3765 106.139C31.8683 107.328 31.3613 108.515 31.2526 109.793C31.1113 111.451 31.6571 113.071 32.1915 114.658C32.2467 114.821 32.3016 114.984 32.3557 115.147C32.4839 115.533 32.5882 116.012 32.3011 116.301C30.7031 114.561 30.2639 112.003 30.5935 109.667C30.923 107.332 31.9287 105.152 32.9226 103.011C32.6545 103.033 32.4222 103.176 32.1894 103.318C32.0922 103.378 31.9952 103.437 31.8952 103.488C30.6916 104.102 29.0631 103.256 28.6978 101.959C28.3327 100.662 29.1099 99.2077 30.3121 98.591C31.5143 97.9744 33.0164 98.1186 34.2082 98.7548C34.7118 99.0236 35.1813 99.3855 35.4753 99.8735ZM60.5628 52.2636C60.4669 51.9958 60.2194 51.76 59.9342 51.771C59.4363 51.7905 59.2656 52.4333 59.2358 52.9287L58.9395 57.8307C58.9212 58.1369 58.9127 58.4758 59.1097 58.7113C59.3065 58.9471 59.7855 58.9274 59.8422 58.626C60.1853 56.8001 60.4417 54.9581 60.61 53.1083C60.6359 52.825 60.6584 52.5315 60.5628 52.2636ZM40.3943 117.153C39.6453 117.252 39.154 118.098 39.2694 118.842C39.3847 119.586 39.9686 120.189 40.6399 120.535C40.8153 120.626 40.7362 120.926 40.5507 120.994C40.3654 121.062 40.1606 120.974 39.992 120.871C39.2616 120.426 38.7412 119.653 38.6041 118.811C38.5181 118.282 38.5947 117.695 38.9547 117.297C39.3146 116.898 40.0046 116.783 40.3943 117.153ZM59.3367 105.756V105.756C59.1076 106.485 58.8783 107.215 58.7091 107.959C57.9025 111.506 58.4914 115.22 59.3916 118.745C59.6255 119.661 58.6024 120.562 57.666 120.41C56.7297 120.258 56.0623 119.327 55.9706 118.387C55.9605 118.283 55.9557 118.178 55.9509 118.072C55.9373 117.772 55.9238 117.472 55.7876 117.209C55.6039 116.853 55.0608 116.647 54.8014 116.953C55.3732 118.01 55.7965 119.616 54.7248 120.164C53.6988 120.689 52.6063 119.477 52.3432 118.358C52.179 117.659 51.6458 116.68 51.0546 117.09C51.28 117.484 51.4539 117.91 51.627 118.334C51.9144 119.038 52.2001 119.739 52.7184 120.286C53.5493 121.163 55.3856 121.209 55.6786 120.039C56.31 120.557 57.0388 121 57.8497 121.107C58.6607 121.213 59.5624 120.917 59.9975 120.227C60.5401 119.366 60.2211 118.26 59.9367 117.275L59.9087 117.178C59.034 114.138 58.9391 110.878 59.6353 107.792C59.7853 107.128 59.9713 106.47 60.1573 105.813L60.1575 105.812V105.812V105.812L60.1578 105.812C60.4791 104.676 60.8001 103.541 60.9345 102.371C61.1863 100.181 60.7552 97.917 59.7156 95.9702C59.4317 95.4384 58.5854 95.5354 58.1543 95.9578C57.8789 96.2278 57.7062 96.5738 57.5328 96.9213C57.4349 97.1176 57.3365 97.3146 57.2195 97.4983C56.8953 98.0067 56.2724 98.4447 55.7151 98.2113C54.7852 97.8216 53.7628 97.8962 52.7407 97.9705H52.7402H52.74H52.7395C52.3524 97.9987 51.9653 98.0271 51.583 98.0299C50.1918 98.0406 48.5351 97.4393 48.2923 96.0743C48.1872 95.4847 47.3433 95.2969 46.8365 95.6186C46.3294 95.9404 46.1012 96.5523 45.9412 97.1295C45.1965 99.8173 45.2275 102.714 46.0299 105.385C46.2854 106.236 45.138 106.76 44.2702 106.964C38.2557 108.373 33.2583 113.42 31.9254 119.431C31.839 119.821 32.0312 120.438 32.3903 120.261C33.6223 113.944 39.0469 108.657 45.413 107.567C46.2141 107.43 46.7204 106.58 46.7823 105.772C46.8312 105.137 46.6775 104.512 46.5246 103.89C46.4831 103.721 46.4416 103.552 46.4042 103.383C45.8831 101.029 46.1716 98.5048 47.2107 96.328C48.2352 96.8515 48.9633 97.9118 49.0814 99.0529C51.3291 98.5874 53.6773 98.6096 55.9158 99.1176C56.7074 99.2972 57.1611 98.5608 57.6337 97.7936C58.0672 97.0896 58.5169 96.3599 59.2581 96.2874C60.1983 98.3858 60.4859 100.769 60.072 103.03C59.9023 103.957 59.6195 104.856 59.3367 105.756ZM56.4068 107.01L55.1987 106.439C54.8675 106.283 54.5258 106.118 54.2898 105.839C55.5142 105.78 56.7556 106.196 57.6959 106.979C57.4344 107.369 56.8322 107.211 56.4068 107.01ZM48.3746 120.877C48.3095 119.958 48.1976 119.042 48.04 118.134C47.9769 117.772 47.8923 117.384 47.6192 117.137C47.3463 116.89 46.8234 116.897 46.678 117.234C47.3291 117.529 47.5419 118.345 47.5655 119.057C47.5699 119.188 47.5708 119.32 47.5719 119.453C47.5765 120.044 47.5813 120.645 47.8776 121.146C47.9361 121.245 48.0233 121.348 48.1384 121.347C48.3368 121.345 48.3886 121.074 48.3746 120.877ZM51.9602 104.498C51.2436 104.963 50.3925 105.22 49.5371 105.23C49.261 105.233 48.9383 105.183 48.8048 104.942C49.7495 104.405 50.9028 104.242 51.9602 104.498ZM54.9558 101.549C54.8549 101.99 54.9042 102.462 55.0934 102.873C55.2331 103.175 55.5727 103.474 55.8653 103.314C55.9924 103.244 56.0642 103.106 56.1201 102.973C56.3089 102.523 56.402 102.034 56.3914 101.546C56.3855 101.275 56.3304 100.974 56.1116 100.813C55.6745 100.491 55.0769 101.021 54.9558 101.549ZM107.075 67.6365C107.374 67.9035 107.417 68.3477 107.439 68.7474L107.942 77.7185C107.976 78.3269 107.818 79.1587 107.206 79.1713L93.8023 79.4442C93.5907 79.4486 93.3606 79.447 93.1935 79.3176C92.9907 79.1605 92.9533 78.8748 92.932 78.6198L92.1695 69.5049C92.122 68.9392 92.2245 68.1741 92.7896 68.1016C97.1836 67.5368 101.619 67.2916 106.049 67.3691C106.41 67.3756 106.805 67.3964 107.075 67.6365ZM100.54 69.6356C100.572 69.4141 100.594 69.1589 100.44 68.9956C100.294 68.8399 100.051 68.8362 99.837 68.8438L93.8459 69.052C93.7202 69.0563 93.5824 69.0658 93.4918 69.1527C93.3778 69.2618 93.3879 69.443 93.4063 69.5994L93.7468 72.5124C93.8053 73.0123 94.086 73.6765 94.5738 73.5451C96.2241 73.1004 97.9523 72.9447 99.6558 73.0869C99.9574 73.1121 100.099 72.7289 100.142 72.4305L100.54 69.6356ZM99.892 77.3057L100.04 74.7911C100.05 74.6122 100.053 74.4113 99.929 74.2815C99.8198 74.167 99.6469 74.1459 99.4889 74.134C97.7739 74.0026 96.0413 74.1031 94.3534 74.4317C94.25 74.4519 94.1413 74.4755 94.0633 74.5464C93.9328 74.6647 93.9351 74.8663 93.947 75.0417L94.1248 77.6311C94.1431 77.8983 94.1881 78.2097 94.4229 78.3404C94.5745 78.4246 94.7605 78.4042 94.9325 78.3815L99.5036 77.777C99.5902 77.7655 99.6811 77.7524 99.7506 77.6997C99.8657 77.6123 99.8836 77.4497 99.892 77.3057ZM101.245 69.3432L101.057 72.3936C101.048 72.5289 101.045 72.6796 101.133 72.7826C101.243 72.9103 101.44 72.905 101.608 72.8892L105.952 72.4787C106.069 72.4677 106.194 72.4528 106.281 72.3734C106.382 72.2801 106.396 72.1287 106.404 71.9916L106.576 69.066C106.583 68.9527 106.585 68.8265 106.51 68.7417C106.423 68.6438 106.272 68.6431 106.141 68.6502L101.736 68.8892C101.59 68.8972 101.427 68.9132 101.334 69.0247C101.262 69.1107 101.252 69.2313 101.245 69.3432ZM106.338 77.3029C106.58 77.0697 106.577 76.689 106.557 76.3542L106.445 74.4484C106.426 74.1276 106.297 73.7026 105.975 73.7265L101.604 74.0521C101.441 74.0643 101.256 74.0872 101.157 74.2179C101.083 74.3163 101.079 74.4491 101.079 74.5725L101.066 77.089C101.066 77.2403 101.071 77.4082 101.176 77.5181C101.277 77.624 101.438 77.6414 101.584 77.6511C102.938 77.7391 104.301 77.7036 105.649 77.5453C105.896 77.5162 106.16 77.4749 106.338 77.3029ZM53.638 103.844C53.264 103.656 52.7608 103.779 52.5173 104.119C52.2386 104.508 52.357 105.119 52.7606 105.377C53.1642 105.634 53.7713 105.485 54.0089 105.07C54.2462 104.656 54.066 104.059 53.638 103.844ZM58.2969 104.6C58.5199 104.786 58.1541 105.09 57.8658 105.13C56.7863 105.278 55.672 105.171 54.6411 104.819C55.0253 104.415 55.6601 104.414 56.2183 104.442L58.0587 104.536C58.1424 104.54 58.2327 104.547 58.2969 104.6ZM51.1264 105.469L49.4107 106.414C49.1855 106.538 48.9241 106.785 49.0631 107C49.1924 107.201 49.5022 107.103 49.7098 106.983L51.8499 105.754C51.8949 105.584 51.78 105.388 51.6089 105.344C51.444 105.301 51.2754 105.386 51.1264 105.469ZM69.9035 90.838C70.0689 90.6417 70.2484 90.4362 70.4945 90.3626C70.7408 90.2887 71.0648 90.4178 71.0958 90.6719C70.4207 91.6333 69.5822 92.4805 68.6273 93.1671C68.7169 92.2727 69.3231 91.526 69.9035 90.838ZM70.9887 92.7407L72.4124 91.1955C72.569 91.0256 72.7346 90.7799 72.6096 90.5857C72.4326 90.3105 72.0106 90.5527 71.7962 90.8004L70.123 92.7327C70.059 92.9251 70.2947 93.1084 70.4961 93.0783C70.6972 93.0483 70.8511 92.89 70.9887 92.7407ZM58.6719 68.1814C58.9331 67.9122 59.3358 67.8482 59.709 67.8021C64.2264 67.243 68.8013 67.1444 73.3387 67.5083C73.621 67.531 73.9519 67.587 74.0769 67.84C74.1404 67.9691 74.1324 68.1202 74.1228 68.2635L73.3935 79.2131C73.3657 79.6286 73.2914 80.118 72.9181 80.3051C72.7385 80.395 72.5275 80.3905 72.3266 80.3836L59.3883 79.9474C59.1356 79.9389 58.8579 79.9203 58.6763 79.7451C58.499 79.5745 58.4673 79.3069 58.4474 79.0622C58.1832 75.81 58.1454 72.5397 58.3343 69.2822C58.357 68.8905 58.3981 68.4635 58.6719 68.1814ZM65.8016 68.4353C63.8693 68.4071 61.936 68.4408 60.0059 68.536C59.7048 68.5509 59.3597 68.5906 59.1897 68.8387C59.0758 69.005 59.0748 69.2208 59.0781 69.4224L59.2076 77.4882C59.2173 78.0916 59.3989 78.886 60.0036 78.9179L65.8677 79.227C65.9734 79.2326 66.0885 79.2358 66.1745 79.1738C66.289 79.0913 66.305 78.9305 66.3108 78.7899L66.4793 74.6083C66.4858 74.4468 66.4814 74.2602 66.3553 74.1586C66.2695 74.0898 66.1514 74.082 66.0413 74.0774C63.9351 73.9927 61.8197 74.1303 59.7422 74.4872C59.5046 74.528 59.3723 74.168 59.5113 73.9716C59.6502 73.7751 59.9135 73.7198 60.1518 73.682C62.1076 73.3706 64.0876 73.2112 66.0684 73.2057C66.4018 73.2048 66.5059 72.7596 66.5052 72.4273L66.5009 69.6847C66.5 69.1529 66.3353 68.4431 65.8016 68.4353ZM72.0569 74.068L68.22 74.0597C67.9627 74.059 67.6693 74.0744 67.5049 74.2718C67.3884 74.4117 67.3712 74.6062 67.3588 74.7876L67.1102 78.4372C67.0875 78.7709 67.1006 79.1764 67.3907 79.3447C67.5184 79.4188 67.673 79.4261 67.8209 79.4316L71.5928 79.5729C71.7097 79.5772 71.8363 79.5788 71.9317 79.5112C72.0558 79.4231 72.0813 79.253 72.0959 79.1016L72.5411 74.531C72.5514 74.4271 72.5596 74.3147 72.5048 74.2255C72.4184 74.0845 72.223 74.0684 72.0569 74.068ZM72.4544 72.9619C72.6739 72.8215 72.7385 72.5365 72.7821 72.2801C72.9474 71.3089 73.0798 70.3319 73.1793 69.3517C73.1967 69.1802 73.2038 68.9823 73.0784 68.8639C72.983 68.774 72.8408 68.7605 72.7099 68.7513L68.0831 68.4344C67.9161 68.4229 67.7232 68.4216 67.6127 68.5468C67.5244 68.647 67.5216 68.794 67.5235 68.9275L67.5783 72.6681C67.5794 72.7585 67.5827 72.8548 67.6345 72.9291C67.7186 73.0495 67.8897 73.0614 68.0372 73.0614L71.9299 73.0619C72.1104 73.0621 72.3023 73.0589 72.4544 72.9619ZM85.3 102.617C84.8831 102.627 84.4198 102.66 84.1332 102.961C84.2671 103.228 84.6251 103.27 84.9246 103.277L95.584 103.51C95.8074 103.515 95.8838 103.171 95.7349 103.005C95.5859 102.839 95.3391 102.814 95.116 102.8C91.8489 102.595 88.5726 102.534 85.3 102.617ZM79.794 89.9463C78.6617 102.191 77.4167 114.425 76.0586 126.647C76.0221 126.974 75.8916 127.393 75.5609 127.397C56.9397 127.629 38.3133 127.442 19.7007 126.836C19.5034 126.83 19.2882 126.816 19.142 126.684C18.9523 126.512 18.9581 126.219 18.9785 125.964L22.0287 87.9179C22.2486 87.653 22.6388 87.6248 22.9837 87.6172C41.3272 87.217 59.6851 86.8168 78.0182 87.5532C78.4494 87.5704 78.9087 87.5977 79.2576 87.8507C79.8715 88.2956 79.8637 89.1934 79.794 89.9463ZM70.5601 94.7224C56.8152 93.3157 42.96 92.9788 29.1627 93.7159C28.9856 93.7253 28.793 93.7411 28.6623 93.8606C28.5237 93.9874 28.4969 94.1917 28.4783 94.3782L25.9135 120.361C25.8951 120.546 25.8821 120.753 25.9963 120.901C26.1325 121.078 26.3887 121.097 26.6127 121.101L66.6674 121.79C66.9148 121.795 67.1919 121.787 67.3664 121.612C67.5113 121.467 67.5421 121.247 67.5652 121.043L70.5601 94.7224ZM71.5038 94.6305C71.3215 94.9708 71.2747 95.3645 71.2311 95.7478L68.4266 120.389C68.3897 120.714 68.3553 121.057 68.4878 121.356C68.6367 121.691 68.9648 121.905 69.276 122.099L75.0695 125.728C76.5895 113.601 78.1104 101.464 78.8149 89.2629L72.5349 93.6406C72.14 93.9159 71.7308 94.2069 71.5038 94.6305ZM72.314 92.829L77.4685 88.984C67.03 88.0931 56.5501 88.2444 46.0668 88.3958C38.6213 88.5034 31.1742 88.6109 23.7382 88.3453L26.8647 91.7509C27.3603 92.2908 27.9612 92.8758 28.6941 92.83C42.5378 91.9631 56.454 92.25 70.2498 93.6865C71.0098 93.7656 71.7022 93.2854 72.314 92.829ZM68.9217 122.891C68.2707 122.678 67.5742 122.662 66.8894 122.648L26.7269 121.816C26.0495 121.802 25.35 121.792 24.723 122.047C24.2049 122.258 23.7759 122.635 23.3576 123.006L19.7604 126.189C28.7455 125.793 37.7411 126.028 46.7365 126.263H46.7367C55.9616 126.503 65.1866 126.744 74.3994 126.305L70.555 123.77C70.0372 123.429 69.5116 123.083 68.9217 122.891ZM26.7776 96.5066C27.0021 93.6567 25.4534 90.7414 22.9617 89.3237C21.8255 101.223 20.7959 113.133 19.8732 125.051L23.7699 121.99C24.2831 121.587 24.839 121.108 24.8902 120.459L26.7776 96.5066ZM88.1963 89.6548C87.7933 89.2019 87.164 88.9593 86.5602 89.0242C85.8757 89.0976 85.2491 89.5693 84.9913 90.2052C84.7336 90.8412 84.8556 91.6143 85.297 92.1406C85.9451 92.9134 87.2464 93.0201 88.0126 92.363C88.7788 91.7062 88.8668 90.4084 88.1963 89.6548ZM86.188 89.9126C86.4382 89.7716 86.7409 89.7257 87.0221 89.786C87.7388 89.9399 88.1649 90.86 87.8176 91.503C87.4702 92.1461 86.4648 92.2986 85.941 91.7874C85.4174 91.2765 85.5498 90.2717 86.188 89.9126ZM148.192 48.5019C147.367 47.785 146.926 46.689 146.885 45.5992C146.844 44.5092 147.178 43.4279 147.703 42.4711C147.844 42.2143 148.239 42.2042 148.474 42.3803C148.709 42.5564 148.818 42.8502 148.901 43.1309C149.412 44.8539 149.385 46.7312 148.824 48.4386C148.804 48.4989 148.782 48.5613 148.738 48.6069C148.595 48.7539 148.347 48.6365 148.192 48.5019ZM146.78 49.7093C145.722 49.7499 144.657 49.6231 143.639 49.3353C143.074 49.1754 142.447 48.8879 142.303 48.32C142.179 47.829 142.5 47.3036 142.948 47.0651C143.397 46.8266 143.936 46.8248 144.437 46.9117C145.621 47.1176 146.713 47.8059 147.407 48.7833C147.508 48.9252 147.605 49.0897 147.58 49.2619C147.533 49.591 147.113 49.6965 146.78 49.7093ZM146.941 50.6916L147.025 51.9031L144.066 52.7909C143.498 52.9613 142.867 53.1282 142.33 52.8764C141.793 52.6248 141.572 51.7463 142.091 51.4594C143.46 50.7026 145.041 50.3324 146.605 50.4028C146.712 50.4076 146.835 50.4228 146.895 50.5108C146.931 50.5627 146.936 50.6287 146.941 50.6916ZM152.902 54.3458C151.606 53.741 150.72 52.5278 149.892 51.364C149.854 51.3105 149.814 51.2504 149.821 51.1853C149.838 51.0298 150.062 51.0241 150.214 51.0642C151.69 51.455 153.256 51.8988 154.27 53.0376C154.485 53.28 154.68 53.5855 154.63 53.9057C154.578 54.2469 154.247 54.4967 153.905 54.5487C153.563 54.6005 153.215 54.4921 152.902 54.3458ZM151.872 55.9499C151.844 56.2733 151.642 56.6019 151.326 56.6836C151.134 56.7336 150.928 56.687 150.745 56.61C149.806 56.216 149.38 55.1365 149.168 54.1437C148.991 53.3209 148.895 52.481 148.881 51.6399C150.1 52.4735 151.075 53.6564 151.659 55.0097C151.788 55.308 151.9 55.6266 151.872 55.9499ZM152.083 42.3645C152.337 42.2996 152.662 42.5039 152.608 42.7596C152.165 44.8596 151.483 47.1589 149.635 48.2588C149.771 46.3411 150.424 44.4622 151.506 42.8713C151.654 42.655 151.829 42.4294 152.083 42.3645ZM155.631 51.4495C155.316 51.4458 155.001 51.4195 154.688 51.3848C153.137 51.2126 151.61 50.8312 150.161 50.2545C151.951 49.1495 154.478 49.419 155.993 50.8762C156.07 50.95 156.149 51.0369 156.153 51.1431C156.161 51.3692 155.858 51.4523 155.631 51.4495ZM146.675 56.5164C146.666 55.2303 147.198 53.9492 148.115 53.0452C148.087 52.9402 148.323 53.0035 148.246 53.0801C148.654 54.2265 148.743 55.4839 148.5 56.676C148.39 57.2184 148.066 57.8568 147.511 57.8325C146.935 57.8073 146.678 57.0913 146.675 56.5164ZM147.023 61.756L142.839 63.9326C142.731 63.4826 142.797 62.9932 143.021 62.588C143.497 61.7264 144.541 61.3801 145.489 61.1067C146.016 60.9547 146.556 60.801 147.104 60.823C147.228 60.8279 147.36 60.846 147.45 60.9301C147.717 61.1801 147.348 61.587 147.023 61.756ZM153.954 45.8327C154.254 45.6951 154.674 45.6008 154.861 45.8721C155.042 46.1352 154.822 46.4847 154.597 46.7108C153.615 47.6953 152.356 48.3521 151.101 48.9521C150.755 49.117 150.207 49.1945 150.112 48.8248C151.138 47.5495 152.465 46.5161 153.954 45.8327ZM148.588 51.0007C148.226 51.1188 147.743 50.948 147.675 50.5739C147.632 50.3361 147.765 50.101 147.925 49.9194C148.254 49.5458 148.721 49.2961 149.215 49.2296C149.335 49.2133 149.465 49.2089 149.572 49.2672C149.917 49.4541 149.702 49.9776 149.453 50.2804C149.212 50.5746 148.951 50.8828 148.588 51.0007Z" fill="#00160A"/>
<path fill-rule="evenodd" clip-rule="evenodd" d="M145.869 69.5587C142.521 71.0189 138.641 71.217 135.161 70.1054C134.428 73.7211 131.609 76.5811 130.529 80.1083C130.095 81.5249 129.953 83.0144 129.888 84.4947C129.489 93.5979 131.891 102.564 134.272 111.359C134.38 111.757 134.501 112.178 134.807 112.455C135.141 112.756 135.619 112.819 136.065 112.864C140.422 113.298 144.829 113.222 149.168 112.637C149.905 112.538 150.228 111.67 150.394 110.945C152.284 102.673 153.092 94.1531 152.791 85.6724C152.719 83.6382 152.57 81.5501 151.708 79.7063C150.764 77.6872 149.052 76.1424 147.817 74.2878C146.866 72.86 146.2 71.2427 145.869 69.5587Z" fill="white"/>
<path fill-rule="evenodd" clip-rule="evenodd" d="M139.728 69.0672C139.95 69.4332 139.992 70.1217 139.565 70.079C138.159 67.4032 136.465 64.8777 134.521 62.5599C134.568 62.9137 134.615 63.2674 134.661 63.621C134.756 64.3388 134.85 65.0773 134.672 65.7792C134.495 66.4815 133.981 67.1488 133.268 67.288C132.554 67.4275 131.727 66.8321 131.815 66.1134C131.817 66.9 130.992 67.5664 130.212 67.4378C129.433 67.3091 128.87 66.4567 129.022 65.6848C129.091 65.3318 128.606 65.1032 128.26 65.208C127.915 65.313 127.654 65.596 127.327 65.7474C126.317 66.2145 125.124 65.1587 125.066 64.0517C125.009 62.9449 125.937 60.799 126.69 59.9828C125.633 59.8127 124.783 58.7965 124.805 57.7308C124.827 56.6651 125.72 55.6851 126.782 55.559C125.974 54.5153 125.148 53.0496 125.935 51.9897C126.51 51.2152 127.722 51.1636 128.563 51.639C129.403 52.1144 129.945 52.9737 130.392 53.8273C130.381 53.1317 130.372 52.419 130.602 51.7624C130.833 51.1058 131.357 50.5061 132.045 50.3855C132.733 50.2648 133.523 50.7898 133.508 51.4851C133.496 52.0241 133.205 52.8231 133.739 52.9148C134.027 52.1871 135.033 51.9124 135.726 52.2809C136.419 52.6492 136.763 53.503 136.669 54.2798C136.575 55.0565 136.108 55.75 135.526 56.275C136.383 56.3296 137.428 56.519 137.703 57.3292C137.971 58.1165 137.268 58.9194 136.509 59.2643C135.75 59.6093 134.877 59.7125 134.192 60.1872C135.275 60.8715 136.383 62.5133 137.325 64.2067C138.537 66.3851 139.474 68.6484 139.728 69.0672Z" fill="white"/>
<path fill-rule="evenodd" clip-rule="evenodd" d="M133.96 60.1872C135.004 61.0121 135.95 61.959 136.773 63.0023C136.996 62.151 137.258 61.2385 137.95 60.6922C138.643 60.1459 139.901 60.2615 140.165 61.1008C140.263 61.4102 140.208 61.7453 140.136 62.0611C139.831 63.3818 139.223 64.6321 138.371 65.688C138.822 66.4322 139.274 67.1763 139.726 67.9205C139.948 68.2866 139.99 68.975 139.562 68.9324C138.157 66.2565 136.463 63.7311 134.519 61.4132C134.566 61.7671 134.612 62.1207 134.659 62.4743C134.754 63.1921 134.847 63.9306 134.67 64.6326C134.493 65.3348 133.979 66.0022 133.265 66.1414C132.552 66.2808 131.725 65.6854 131.812 64.9667C131.815 65.7533 130.989 66.4198 130.21 66.2911C129.43 66.1625 128.868 65.31 129.02 64.5381C129.089 64.1852 128.604 63.9565 128.258 64.0613C127.913 64.1663 127.652 64.4493 127.325 64.6007C126.315 65.0679 125.121 64.012 125.064 62.905C125.007 61.7983 125.705 60.799 126.458 59.9828C125.401 59.8127 124.551 58.7965 124.573 57.7308C124.596 56.6651 125.488 55.6851 126.551 55.559C125.743 54.5153 124.917 53.0496 125.703 51.9897C126.278 51.2152 127.491 51.1636 128.331 51.639C129.172 52.1144 129.713 52.9737 130.161 53.8273C130.149 53.1317 130.14 52.419 130.371 51.7624C130.601 51.1058 131.125 50.5061 131.813 50.3855C132.501 50.2648 133.291 50.7898 133.276 51.4851C133.265 52.0241 132.974 52.8231 133.507 52.9148C133.795 52.1871 134.802 51.9124 135.495 52.2809C136.188 52.6492 136.531 53.503 136.437 54.2798C136.343 55.0565 135.877 55.75 135.294 56.275C136.151 56.3296 137.196 56.519 137.471 57.3292C137.739 58.1165 137.037 58.9194 136.277 59.2643C135.518 59.6093 134.645 59.7125 133.96 60.1872ZM126.497 52.2023C125.877 52.6722 125.967 53.6537 126.361 54.3229C127.05 55.4964 128.363 56.1369 129.61 56.6919C129.879 56.8119 130.284 56.8811 130.39 56.6073C130.439 56.4805 130.388 56.3394 130.338 56.2135C129.969 55.2948 129.6 54.3736 129.122 53.5067C128.853 53.0196 128.537 52.5359 128.067 52.236C127.598 51.936 126.94 51.8656 126.497 52.2023ZM125.277 57.5049C125.116 58.367 125.961 59.154 126.833 59.2726C127.706 59.3912 128.566 59.0387 129.376 58.694C129.589 58.603 129.821 58.4956 129.92 58.2862C130.123 57.8613 129.656 57.4363 129.251 57.1937C128.577 56.7892 127.868 56.3734 127.083 56.3264C126.297 56.2791 125.421 56.7341 125.277 57.5049ZM135.671 53.8661C135.706 53.6925 135.73 53.5062 135.662 53.3423C135.543 53.0568 135.188 52.9428 134.878 52.9634C133.937 53.0263 133.305 53.9413 132.929 54.8024C132.594 55.5675 132.342 56.3686 132.18 57.187C133.871 56.9219 135.327 55.5368 135.671 53.8661ZM132.52 60.3374C131.998 60.4202 131.941 61.1412 132.019 61.6623C132.097 62.1794 132.175 62.6966 132.253 63.2137C132.379 64.0498 132.604 65.0211 133.38 65.3632C134.189 64.0207 134.18 62.2305 133.358 60.8961C133.171 60.5929 132.873 60.2814 132.52 60.3374ZM130.13 65.258C130.19 65.335 130.262 65.413 130.357 65.435C130.594 65.4898 130.748 65.1951 130.802 64.9589C131.169 63.3582 131.155 61.6985 131.14 60.0567C131.128 59.9349 130.935 60.0049 130.861 60.1023C130.294 60.8479 129.804 61.6756 129.61 62.5906C129.416 63.5056 129.551 64.5214 130.13 65.258ZM133.232 57.5418C133.111 57.6042 132.988 57.67 132.897 57.7709C132.596 58.1053 132.806 58.6876 133.202 58.9031C133.598 59.1189 134.085 59.063 134.523 58.9529C135.17 58.7903 135.789 58.5215 136.349 58.161C136.565 58.022 136.799 57.8005 136.728 57.5544C136.698 57.4478 136.614 57.365 136.526 57.2964C135.609 56.5784 134.268 57.0068 133.232 57.5418ZM131.271 56.6275C131.987 55.0598 132.348 53.3324 132.319 51.6103C132.317 51.5092 132.313 51.4023 132.257 51.3179C132.061 51.0226 131.607 51.3214 131.43 51.6278C130.559 53.1322 130.498 55.0715 131.271 56.6275ZM129.991 60.2103C130.167 60.1381 130.093 59.8388 129.913 59.7764C129.732 59.7141 129.538 59.8028 129.368 59.89C128.318 60.4273 127.224 61.0286 126.628 62.0425C126.426 62.3863 126.311 62.8743 126.604 63.1451C126.871 63.3919 127.313 63.2898 127.612 63.0818C128.65 62.3587 128.819 60.6901 129.991 60.2103ZM139.12 61.033C138.962 60.8678 138.688 61.0224 138.524 61.183C137.988 61.71 137.514 62.3409 137.368 63.0768C137.222 63.8127 137.478 64.6649 138.125 65.0484C138.883 63.9684 139.269 62.6358 139.207 61.3203C139.203 61.218 139.191 61.1068 139.12 61.033ZM130.638 58.0372C130.862 58.7158 131.329 59.312 131.935 59.6943C132.127 59.8152 132.313 59.5203 132.327 59.2946C132.368 58.5887 132.086 57.8702 131.574 57.3801C131.371 57.1859 131.07 57.0203 130.819 57.1478C130.524 57.2983 130.534 57.7235 130.638 58.0372Z" fill="black"/>
<path fill-rule="evenodd" clip-rule="evenodd" d="M104.888 91.3781C103.909 91.404 102.917 91.4373 101.981 91.7223C104.242 102.908 104.474 114.388 105.654 125.738C105.677 125.955 105.707 126.188 105.857 126.348C106.027 126.528 106.299 126.559 106.547 126.578C122.604 127.837 138.75 127.966 154.825 126.964C155.029 126.951 155.249 126.931 155.399 126.793C155.58 126.627 155.593 126.351 155.592 126.106C155.565 121.804 154.95 117.53 154.337 113.272C153.387 106.67 152.436 100.067 151.485 93.4646C151.449 93.2134 151.398 92.9353 151.194 92.7834C151.042 92.6704 150.84 92.6557 150.65 92.6454C135.409 91.8092 120.147 90.9729 104.888 91.3781Z" fill="white"/>
<path d="M142.989 111.584C143.242 111.584 143.448 111.379 143.448 111.125C143.448 110.872 143.242 110.667 142.989 110.667C142.736 110.667 142.531 110.872 142.531 111.125C142.531 111.379 142.736 111.584 142.989 111.584Z" fill="black"/>
<path d="M139.664 111.584C139.917 111.584 140.123 111.379 140.123 111.125C140.123 110.872 139.917 110.667 139.664 110.667C139.411 110.667 139.205 110.872 139.205 111.125C139.205 111.379 139.411 111.584 139.664 111.584Z" fill="black"/>
<path d="M130.949 116.171C131.139 116.171 131.293 116.017 131.293 115.827C131.293 115.637 131.139 115.483 130.949 115.483C130.759 115.483 130.605 115.637 130.605 115.827C130.605 116.017 130.759 116.171 130.949 116.171Z" fill="black"/>
<path d="M128.083 116.171C128.273 116.171 128.427 116.017 128.427 115.827C128.427 115.637 128.273 115.483 128.083 115.483C127.893 115.483 127.739 115.637 127.739 115.827C127.739 116.017 127.893 116.171 128.083 116.171Z" fill="black"/>
<path d="M119.253 111.813C119.633 111.813 119.941 111.505 119.941 111.125C119.941 110.745 119.633 110.437 119.253 110.437C118.873 110.437 118.565 110.745 118.565 111.125C118.565 111.505 118.873 111.813 119.253 111.813Z" fill="black"/>
<path d="M114.208 112.043C114.588 112.043 114.896 111.735 114.896 111.355C114.896 110.975 114.588 110.667 114.208 110.667C113.828 110.667 113.52 110.975 113.52 111.355C113.52 111.735 113.828 112.043 114.208 112.043Z" fill="black"/>
<path fill-rule="evenodd" clip-rule="evenodd" d="M155.471 128.102C139.034 129.08 122.523 128.834 106.122 127.369C105.672 127.329 105.178 127.267 104.873 126.935C104.592 126.629 104.553 126.18 104.527 125.766C103.817 114.361 102.728 102.98 101.264 91.6462C101.17 90.9242 102.121 90.5812 102.848 90.5087C112.858 89.5088 122.914 89.9883 132.978 90.4683C139.412 90.7752 145.85 91.082 152.281 91.0027C152.703 90.9976 152.852 91.5528 152.872 91.9734C153.126 97.2846 154.009 102.542 154.89 107.798C155.918 113.925 156.945 120.048 156.976 126.246C156.979 126.842 156.924 127.534 156.43 127.869C156.154 128.056 155.804 128.082 155.471 128.102ZM104.888 91.3783C103.91 91.4042 102.917 91.4375 101.981 91.7225C103.522 99.3472 104.121 107.109 104.719 114.872C104.999 118.498 105.279 122.125 105.654 125.738C105.677 125.955 105.707 126.189 105.857 126.348C106.027 126.528 106.299 126.559 106.547 126.578C122.604 127.838 138.75 127.967 154.825 126.964C155.029 126.951 155.249 126.931 155.399 126.794C155.58 126.627 155.593 126.351 155.592 126.106C155.565 121.804 154.95 117.531 154.337 113.273L151.485 93.4648C151.449 93.2137 151.398 92.9355 151.194 92.7839C151.042 92.6706 150.84 92.6559 150.65 92.6456C135.409 91.8097 120.147 90.9733 104.888 91.3783ZM115.048 107.551C115.444 107.533 115.615 108.037 115.663 108.428C115.744 109.101 115.694 109.99 115.043 110.184C114.478 109.66 114.264 108.792 114.52 108.066C114.607 107.82 114.787 107.563 115.048 107.551ZM139.924 110.084C139.224 110.024 139.742 107.641 140.135 107.927C140.528 108.214 140.623 110.144 139.924 110.084ZM143.12 109.762C142.277 109.762 142.564 107.57 143.12 107.57C143.417 107.57 143.659 109.762 143.12 109.762ZM118.281 109.79C118.428 109.497 118.52 109.176 118.55 108.849C118.574 108.594 118.555 108.32 118.409 108.108C118.263 107.897 117.957 107.78 117.735 107.911C117.597 107.992 117.52 108.146 117.471 108.299C117.314 108.789 117.383 109.346 117.655 109.784C117.743 109.926 117.894 110.071 118.055 110.026C118.164 109.995 118.231 109.89 118.281 109.79ZM129.895 114.428C129.954 113.967 130.135 113.342 130.561 113.533C130.734 113.611 130.822 113.805 130.866 113.989C130.959 114.377 130.883 114.86 130.531 115.052C130.18 115.245 129.835 114.89 129.895 114.428ZM115.83 111.423C115.465 111.754 114.919 112.141 114.548 111.818C114.605 111.517 114.774 111.239 115.016 111.051C114.7 110.788 114.156 110.948 113.982 111.319C113.809 111.691 113.988 112.168 114.334 112.39C114.679 112.611 115.145 112.596 115.512 112.411C115.607 112.363 115.706 112.305 115.807 112.246C116.194 112.019 116.605 111.778 116.907 112.055C117.592 112.684 118.84 112.518 119.334 111.732C119.472 111.514 119.553 111.23 119.435 111C119.317 110.77 118.937 110.694 118.803 110.914C118.768 110.97 118.754 111.034 118.741 111.098C118.736 111.12 118.731 111.141 118.726 111.162C118.638 111.509 118.314 111.783 117.957 111.815C117.599 111.846 117.232 111.633 117.084 111.306C116.882 110.859 116.194 111.092 115.83 111.423ZM128.592 113.607C128.663 114.113 128.54 114.644 128.253 115.067C128.2 115.146 128.129 115.229 128.033 115.235C127.933 115.242 127.848 115.161 127.789 115.08C127.452 114.624 127.465 113.944 127.819 113.501C127.983 113.295 128.321 113.149 128.495 113.347C128.557 113.417 128.579 113.514 128.592 113.607ZM109.315 121.707C109.344 122.879 110.749 123.45 111.908 123.655C115.153 124.231 118.467 124.251 121.763 124.27C131.654 124.328 141.557 124.385 151.425 123.714C151.772 123.69 152.161 123.645 152.377 123.373C152.578 123.119 152.554 122.76 152.519 122.438C151.535 113.405 150.23 104.406 148.607 95.4646C148.51 94.9316 147.825 94.783 147.282 94.753C134.09 94.028 120.869 94.0445 107.657 94.0613C107.284 94.0617 106.889 94.0682 106.572 94.2633C105.852 94.7064 105.959 95.7636 106.149 96.5858C108.048 104.825 109.11 113.256 109.315 121.707ZM138.382 113.89C137.013 114.906 135.977 116.358 135.465 117.979C133.903 117.258 133.195 115.127 134.018 113.621C135.066 111.702 135.433 109.075 133.906 107.507C132.921 106.497 131.358 106.203 129.973 106.485C127.231 107.046 125.155 109.866 125.445 112.64C125.491 113.085 125.59 113.522 125.688 113.958C125.79 114.411 125.893 114.864 125.937 115.325C126.023 116.232 125.83 117.244 125.118 117.815C124.075 116.018 122.381 114.605 120.422 113.897C121.713 110.8 122.987 107.172 121.357 104.238C120.798 103.232 119.941 102.421 119.025 101.723C117.822 100.806 116.389 100.028 114.878 100.133C112.33 100.309 110.568 103.013 110.517 105.557C110.466 108.101 111.661 110.485 112.826 112.749L110.02 116.235C109.556 109.091 108.527 101.983 106.947 95C120.074 95.0479 133.2 95.2589 146.322 95.6327C146.613 95.6409 146.932 95.6609 147.142 95.8618C147.322 96.0352 147.373 96.2991 147.415 96.5454L151.432 120.257C149.666 117.315 147.404 114.67 144.771 112.465C144.117 114.574 143.54 116.706 143.041 118.857L141.048 115.745C142.634 114.799 143.682 113.182 144.585 111.575C145.643 109.693 146.602 107.671 146.681 105.515C146.76 103.359 145.761 101.038 143.797 100.127C144.923 99.3717 144.964 97.5118 143.952 96.6108C142.94 95.7097 141.212 95.8705 140.28 96.853C139.347 97.8354 139.236 99.4435 139.896 100.625C137.776 101.537 136.281 103.74 136.222 106.04C136.168 108.168 137.223 110.15 138.288 111.995C138.636 112.598 138.942 113.475 138.382 113.89ZM132.954 115.742L136.454 122.94C136.755 122.322 136.459 121.667 136.161 121.008C136.039 120.738 135.917 120.468 135.835 120.199C135.236 118.225 136.878 116.338 138.381 114.92C138.619 114.696 138.913 114.454 139.235 114.518C139.496 114.57 139.671 114.808 139.82 115.027C140.905 116.62 142.007 118.252 142.508 120.111C142.511 120.12 142.513 120.13 142.516 120.139C142.588 120.406 142.664 120.692 142.882 120.86C143.107 121.035 143.531 120.954 143.556 120.671C143.786 118.16 144.336 115.678 145.19 113.304L150.882 120.578C151.281 121.086 151.701 121.723 151.475 122.327C151.207 123.041 150.263 123.163 149.498 123.168L124.715 123.341C120.558 123.37 116.387 123.398 112.263 122.879C111.832 122.824 111.376 122.753 111.042 122.475C110.743 122.225 110.589 121.846 110.476 121.474C109.932 119.682 110.114 117.682 110.971 116.015C111.372 115.236 111.971 114.489 112.812 114.233C113.654 113.977 114.737 114.422 114.898 115.283C115.131 116.538 116.208 117.648 117.486 117.73C118.764 117.811 120.047 116.68 119.947 115.407C119.907 114.901 120.718 114.907 121.153 115.172C123.501 116.602 124.709 119.661 123.97 122.301C123.847 122.737 124.605 122.945 124.908 122.607C125.19 122.29 125.17 121.823 125.151 121.394C125.149 121.364 125.148 121.335 125.147 121.307C125.079 119.659 125.613 117.992 126.627 116.689C126.988 116.931 127.259 117.293 127.527 117.651C127.885 118.13 128.239 118.602 128.796 118.771C129.662 119.034 130.546 118.403 131.116 117.703C131.254 117.533 131.385 117.355 131.518 117.177C131.931 116.619 132.346 116.06 132.954 115.742ZM114.903 103.881C114.135 105.453 113.023 106.858 111.666 107.968C111.411 106.812 111.348 105.615 111.481 104.439C111.583 103.537 111.822 102.606 112.441 101.939C113.239 101.079 114.547 100.83 115.699 101.065C116.851 101.3 117.874 101.95 118.802 102.669C119.584 103.274 120.336 103.956 120.803 104.825C121.856 106.784 121.249 109.179 120.621 111.311C120.235 112.619 119.721 114.08 118.472 114.638C117.39 115.121 116.101 114.733 115.108 114.086C113.464 113.013 112.307 111.225 112.007 109.29C111.957 108.973 111.957 108.589 112.218 108.402C113.461 107.516 114.486 106.331 115.18 104.975C116.353 106.583 118.367 107.545 120.36 107.45C120.787 107.429 121.356 107.126 121.17 106.742C118.772 106.992 116.279 105.853 114.903 103.881ZM140.193 113.934C139.315 112.641 138.559 111.267 137.937 109.835C137.782 109.479 137.671 108.984 137.995 108.768C139.566 107.719 140.757 106.117 141.303 104.314L142.445 105.735C142.814 106.195 143.191 106.662 143.682 106.989C144.173 107.317 144.805 107.488 145.364 107.297C145.572 107.226 145.626 107.577 145.55 107.781C144.682 110.109 143.433 112.295 141.867 114.226C141.729 114.396 141.578 114.571 141.371 114.639C140.902 114.793 140.469 114.341 140.193 113.934ZM141.999 100.892C142.558 100.836 143.141 100.859 143.654 101.086C144.106 101.286 144.479 101.632 144.786 102.019C145.703 103.176 146.064 104.753 145.742 106.192C145.716 106.311 145.681 106.436 145.593 106.52C145.452 106.655 145.227 106.642 145.036 106.601C143.925 106.367 143.014 105.526 142.463 104.536C142.435 104.487 142.408 104.437 142.381 104.387C142.219 104.087 142.054 103.78 141.771 103.595C141.441 103.38 140.889 103.452 140.782 103.831C140.272 105.634 139.095 107.242 137.529 108.279C137.179 107.913 137.019 107.405 136.948 106.905C136.742 105.46 137.222 103.944 138.179 102.839C139.135 101.732 140.542 101.04 141.999 100.892ZM131.2 107.365C132.515 107.53 133.724 108.557 133.932 109.86C134.029 110.463 133.921 111.077 133.814 111.678C133.764 111.959 133.702 112.263 133.487 112.452C133.224 112.685 132.825 112.666 132.48 112.595C131.499 112.392 130.585 111.875 129.908 111.139C129.867 111.094 129.826 111.049 129.786 111.003C129.607 110.801 129.426 110.597 129.188 110.472C128.897 110.319 128.483 110.33 128.292 110.598C127.759 111.351 127.05 111.98 126.238 112.421C126.334 111.105 126.781 109.786 127.661 108.799C128.541 107.812 129.886 107.199 131.2 107.365ZM128.616 111.509C128.784 111.19 129.257 111.481 129.493 111.753C130.424 112.826 131.859 113.445 133.281 113.389C132.543 114.865 131.53 116.203 130.309 117.316C130.017 117.583 129.666 117.853 129.271 117.82C128.926 117.791 128.645 117.538 128.41 117.285C127.68 116.499 127.098 115.578 126.702 114.583C126.546 114.19 126.463 113.648 126.824 113.426C127.579 112.961 128.204 112.291 128.616 111.509ZM142.079 100.166C141.224 100.312 140.274 99.5972 140.334 98.7356C140.376 98.1329 140.849 97.64 141.374 97.3378C141.756 97.1181 142.194 96.9667 142.633 97.0124C143.071 97.058 143.503 97.3343 143.639 97.7522C143.7 97.9416 143.699 98.1462 143.675 98.3441C143.567 99.2011 142.934 100.021 142.079 100.166ZM116.045 115.313C117.122 115.751 118.412 115.628 119.386 114.993C119.445 115.255 119.297 115.514 119.155 115.742C118.7 116.473 117.985 117.312 117.157 117.066C116.723 116.937 116.46 116.554 116.194 116.168C115.959 115.827 115.722 115.482 115.363 115.306C115.521 115.12 115.819 115.22 116.045 115.313Z" fill="#00160A"/>
</g>
</g>
<defs>
<clipPath id="clip0_28_4337">
<rect width="172" height="172" fill="white"/>
</clipPath>
<clipPath id="clip1_28_4337">
<rect width="172" height="172" fill="white" transform="translate(0 -4)"/>
</clipPath>
</defs>
</svg>
