<svg width="172" height="172" viewBox="0 0 172 172" fill="none" xmlns="http://www.w3.org/2000/svg">
<g clip-path="url(#clip0_28_4390)">
<path d="M172 0H0V172H172V0Z" fill="white"/>
<path fill-rule="evenodd" clip-rule="evenodd" d="M32.1669 125.89C42.5488 137.191 82.6961 130.699 109.131 130.699C120.536 130.699 158.807 136.415 143.003 97.1611C91.1851 -31.5455 -0.728378 90.0821 32.1669 125.89Z" fill="#0E9384"/>
<path fill-rule="evenodd" clip-rule="evenodd" d="M78.1019 126.799C78.1524 126.76 78.2054 126.718 78.2274 126.659C78.2978 126.467 78.0214 126.34 77.8176 126.344C77.5215 126.351 77.1422 126.551 77.2327 126.832C77.285 126.995 77.4859 127.071 77.6545 127.041C77.8233 127.011 77.9662 126.903 78.1019 126.799ZM78.9819 123.443C79.2052 123.513 79.4259 123.6 79.6206 123.73C79.9859 123.975 80.2345 124.355 80.4732 124.724C80.6441 124.989 80.8177 125.259 80.903 125.562C80.9954 125.891 80.9789 126.242 80.917 126.578C80.7241 127.624 80.0785 128.578 79.1796 129.147C78.2806 129.715 77.1415 129.889 76.1138 129.615C75.9136 129.561 75.7123 129.489 75.5584 129.35C75.429 129.234 75.3419 129.079 75.2621 128.924C74.8436 128.113 74.5612 127.211 74.5936 126.298C74.6259 125.386 75.0011 124.462 75.7116 123.888C76.6032 123.169 77.8884 123.1 78.9819 123.443Z" fill="white"/>
<path fill-rule="evenodd" clip-rule="evenodd" d="M126.179 73.7949C125.689 73.7887 125.229 74.1996 125.181 74.6872C125.161 74.8865 125.245 75.1342 125.444 75.1617C125.592 75.1821 125.723 75.0674 125.822 74.9553C126.034 74.7184 126.215 74.4551 126.361 74.1733C126.41 74.0786 126.454 73.9572 126.389 73.8724C126.342 73.8107 126.256 73.7958 126.179 73.7949ZM125.966 71.6084C126.662 71.851 127.293 72.2781 127.777 72.834C128.192 73.3117 128.509 73.932 128.422 74.5592C128.39 74.7895 128.305 75.0092 128.208 75.2206C127.841 76.021 127.209 76.7881 126.343 76.9432C125.888 77.0246 125.419 76.9271 124.982 76.7783C124.476 76.6063 123.994 76.365 123.553 76.0632C123.319 75.9031 123.087 75.713 122.984 75.4488C122.913 75.2667 122.911 75.0663 122.914 74.8709C122.92 74.3879 122.953 73.8967 123.121 73.444C123.334 72.8711 123.751 72.3982 124.193 71.9763C124.371 71.8066 124.559 71.6394 124.788 71.5483C125.161 71.3995 125.587 71.4759 125.966 71.6084Z" fill="white"/>
<path fill-rule="evenodd" clip-rule="evenodd" d="M126.179 36.7594C129.058 39.7286 131.33 43.2789 132.818 47.1319C132.92 47.3966 133.019 47.6903 132.922 47.9568C132.171 50.0078 130.723 51.7179 129.303 53.3806C128.396 54.4428 127.488 55.5053 126.581 56.5676C125.715 57.5819 124.848 58.5963 123.953 59.5852C119.393 64.6193 114.006 69.0213 107.766 71.7297C107.531 71.832 107.278 71.9339 107.025 71.893C106.771 71.8522 106.533 71.6071 106.6 71.3598C107.371 68.487 108.148 65.4834 107.528 62.5743C107.379 61.8725 107.213 60.9892 107.795 60.5669C112.507 57.1483 115.9 52.2619 119.152 47.4417C119.969 46.2297 120.785 45.0142 121.508 43.7444C122.793 41.4896 123.782 39.0681 124.443 36.5603C124.534 36.2163 124.97 36.0613 125.316 36.1514C125.661 36.2418 125.931 36.5035 126.179 36.7594Z" fill="white"/>
<path fill-rule="evenodd" clip-rule="evenodd" d="M36.3937 48.2935C36.8618 52.5249 38.1646 56.6625 40.2052 60.399C41.4689 62.7123 43.0056 64.8635 44.5385 67.008C45.6051 68.5002 46.7456 70.0554 48.4099 70.8266C48.8525 71.0319 48.7906 71.6696 48.672 72.1427C48.1585 74.1875 47.9191 76.3006 47.9618 78.4084C47.9659 78.6074 47.9709 78.8138 47.8927 78.9971C47.6272 79.6188 46.7172 79.5151 46.0909 79.2608C42.2147 77.6873 39.2388 74.5232 36.4591 71.3972C32.8498 67.3384 29.2943 63.1017 27.1621 58.1064C27.0172 57.7668 26.8764 57.4095 26.9007 57.0409C26.9255 56.6655 27.1183 56.3242 27.314 56.003C29.2468 52.8283 31.9357 50.1173 35.0946 48.1588C35.3172 48.021 35.5546 47.8827 35.8163 47.8738C36.0779 47.8646 36.3648 48.0332 36.3937 48.2935Z" fill="white"/>
<path fill-rule="evenodd" clip-rule="evenodd" d="M125.614 122.527C125.948 121.961 126.362 121.338 127.011 121.231C127.266 121.188 127.401 120.911 127.488 120.667C128.56 117.66 128.663 114.317 127.779 111.25C127.527 110.375 127.837 109.447 128.145 108.589C128.938 106.376 129.732 104.163 130.525 101.949C130.07 101.163 128.872 101.186 128.258 100.517C127.468 99.6561 128.064 98.287 128.683 97.2956C132.299 91.5045 135.915 85.7131 139.531 79.9218C139.974 79.2122 140.947 78.9898 141.762 79.179C142.576 79.3679 143.272 79.8807 143.942 80.3814C146.58 82.3513 149.217 84.3213 151.855 86.291C153.27 87.3483 154.833 88.6988 154.751 90.4638C154.706 91.4405 154.147 92.3085 153.607 93.1231C151.516 96.2728 149.426 99.4224 147.336 102.572C146.159 104.346 146.484 106.677 146.128 108.777C145.565 112.094 143.29 114.819 141.184 117.443C139.077 120.067 136.969 122.996 136.851 126.359C136.71 130.367 134.806 134.282 131.74 136.867C132.629 134.709 127.011 135.57 120.584 133.013C121.641 129.271 123.638 125.876 125.614 122.527Z" fill="white"/>
<path fill-rule="evenodd" clip-rule="evenodd" d="M55.0424 131.91C54.6418 131.582 54.514 131.029 54.4432 130.514C53.6247 124.564 57.1399 118.69 56.5136 112.715C56.1909 109.636 54.7764 106.763 52.9961 104.236C51.7666 102.492 51.6978 100.154 52.1565 98.0663C52.6151 95.9787 53.5403 94.0266 54.1643 91.9826C56.9395 82.8932 53.5628 73.1832 50.2241 64.2872C56.8766 61.0703 64.6398 61.6934 72.0096 62.1291C79.3795 62.5651 87.3057 62.5958 93.4484 58.48C94.2903 67.3838 92.4338 76.2976 90.5879 85.0471C99.9541 84.1346 109.321 83.2221 118.687 82.3095C118.955 82.2834 119.249 82.2632 119.472 82.4157C119.77 82.6191 119.816 83.034 119.833 83.3954C120.271 92.6552 120.536 101.923 120.629 111.193C120.631 111.425 120.623 111.685 120.46 111.85C120.321 111.991 120.107 112.02 119.91 112.042C106.788 113.504 93.6656 114.967 80.5431 116.429C79.4084 116.556 77.792 116.26 77.8583 115.115C78.1546 110.007 77.9817 104.872 77.3423 99.7962C73.8551 99.6643 70.344 100.196 67.0501 101.355C66.3029 101.618 65.4044 102.325 65.8073 103.01C68.4738 107.541 65.1643 114.352 68.7857 118.155C70.0307 119.463 69.9447 121.52 69.698 123.313C69.1691 127.157 68.2704 130.948 67.0187 134.619C67.6239 130.394 55.4123 134.176 55.0424 131.91Z" fill="white"/>
<path fill-rule="evenodd" clip-rule="evenodd" d="M17.5086 36.0115C17.5198 36.1016 17.471 36.1963 17.391 36.2397C17.3273 36.1759 17.2636 36.1121 17.2 36.0484C17.2954 36.0067 17.4037 35.9947 17.506 36.0147L17.5086 36.0115Z" fill="black"/>
<path fill-rule="evenodd" clip-rule="evenodd" d="M78.7526 123.443C78.976 123.513 79.1966 123.6 79.3913 123.73C79.7567 123.975 80.0052 124.355 80.244 124.724C80.4148 124.989 80.5884 125.259 80.6738 125.562C80.7662 125.891 80.7497 126.242 80.6877 126.578C80.4949 127.624 79.8493 128.578 78.9503 129.147C78.0513 129.715 76.9122 129.889 75.8846 129.615C75.6844 129.561 75.483 129.489 75.3291 129.35C75.1998 129.234 75.1127 129.079 75.0328 128.924C74.6143 128.113 74.332 127.211 74.3643 126.298C74.3967 125.386 74.7719 124.462 75.4823 123.888C76.374 123.169 77.6592 123.1 78.7526 123.443ZM77.4993 128.877C78.0584 128.792 78.5504 128.427 78.8716 127.961C79.1929 127.496 79.3576 126.938 79.437 126.379C79.4821 126.059 79.4863 125.692 79.2606 125.461C79.1253 125.323 78.9324 125.262 78.7474 125.206C78.0522 124.998 77.259 124.821 76.6363 125.194C76.1832 125.465 75.9304 125.968 75.7013 126.444C75.433 127.001 75.4993 127.705 75.8669 128.202C76.2345 128.7 76.8877 128.97 77.4993 128.877Z" fill="black"/>
<path fill-rule="evenodd" clip-rule="evenodd" d="M104.287 98.3358C104.296 98.217 104.311 98.09 104.389 98.0006C104.466 97.913 104.587 97.8815 104.7 97.8552C107.62 97.1752 110.637 96.9092 113.631 97.0676C114.012 97.0878 114.503 97.2169 114.528 97.5978C114.673 99.7825 114.817 101.967 114.962 104.152C114.969 104.262 114.973 104.385 114.902 104.47C114.845 104.54 114.752 104.566 114.664 104.589C111.55 105.401 108.267 105.561 105.089 105.056C105.007 105.043 104.921 105.028 104.857 104.975C104.781 104.91 104.754 104.805 104.732 104.708C104.263 102.622 104.113 100.466 104.287 98.3358ZM104.976 101.96C105.033 102.785 105.206 103.602 105.488 104.379C105.769 104.419 106.048 104.478 106.328 104.525C108.743 104.934 111.214 104.523 113.629 104.112C113.8 104.083 113.988 104.044 114.094 103.906C114.202 103.765 114.188 103.569 114.168 103.392C114.085 102.64 114.002 101.887 113.919 101.134C113.912 101.073 113.903 101.008 113.862 100.963C113.812 100.908 113.731 100.899 113.657 100.895C111.941 100.781 110.219 100.909 108.504 101.038C107.556 101.108 106.607 101.179 105.659 101.25C105.436 101.266 105.183 101.299 105.055 101.483C104.961 101.617 104.964 101.796 104.976 101.96ZM105.002 98.8113C104.852 99.2924 104.825 99.8114 104.925 100.305C104.942 100.394 104.967 100.488 105.035 100.548C105.135 100.638 105.287 100.623 105.42 100.604C107.035 100.367 108.668 100.249 110.3 100.252C110.531 100.253 110.601 99.9425 110.599 99.7123C110.595 99.3749 110.591 99.0376 110.588 98.7C110.585 98.5049 110.576 98.2897 110.442 98.1476C110.282 97.9765 110.013 97.9818 109.779 97.9996C109.238 98.0409 108.698 98.0822 108.157 98.1235C107.898 98.1434 107.212 98.3191 106.896 98.3397C106.347 98.4273 105.798 98.515 105.249 98.6026C105.191 98.612 105.129 98.6227 105.084 98.6613C105.04 98.6987 105.019 98.756 105.002 98.8113ZM112.244 100.279C112.673 100.284 113.103 100.242 113.522 100.151C113.622 100.13 113.727 100.102 113.798 100.029C113.903 99.9217 113.902 99.7531 113.895 99.6031C113.872 99.1681 113.85 98.733 113.828 98.298C113.82 98.143 113.803 97.9682 113.681 97.871C113.575 97.7857 113.424 97.7907 113.287 97.7999C112.81 97.8325 112.333 97.865 111.856 97.8974C111.78 97.9026 111.701 97.9088 111.638 97.9508C111.522 98.0272 111.505 98.187 111.501 98.3255C111.491 98.7867 111.51 99.2486 111.558 99.7073C111.572 99.84 111.591 99.9799 111.673 100.085C111.801 100.249 112.036 100.276 112.244 100.279Z" fill="black"/>
<path fill-rule="evenodd" clip-rule="evenodd" d="M111.761 88.7885C112.399 88.5126 113.182 88.605 113.738 89.0222C114.294 89.4393 114.601 90.1649 114.515 90.8548C114.906 90.6433 115.401 90.4353 115.766 90.689C116.178 90.9756 116.084 91.5928 116.022 92.0906C115.914 92.9607 116.054 93.8602 116.422 94.656C116.574 94.9846 116.705 95.4834 116.367 95.6162C116.311 95.6384 116.249 95.6437 116.188 95.6485C112.236 95.9671 108.285 96.2854 104.334 96.6039C104.225 96.6126 104.104 96.6172 104.022 96.5459C103.938 96.473 103.928 96.3491 103.923 96.2381C103.886 95.3089 103.847 94.3794 103.81 93.4499C103.8 93.2006 103.795 92.9318 103.936 92.7259C104.169 92.3849 104.657 92.386 105.064 92.3207C105.472 92.2553 105.947 91.9113 105.789 91.5295C105.614 91.1036 106.211 90.7924 106.666 90.7231C107.121 90.6539 107.725 90.3826 107.587 89.9434C107.436 89.4636 108.097 89.1657 108.595 89.0997C108.947 89.0529 109.315 89.0077 109.648 89.1283C109.982 89.249 110.264 89.5925 110.189 89.9393C110.103 90.3365 110.586 90.7064 110.968 90.566C111.349 90.4259 111.503 89.9046 111.31 89.5473C111.153 89.2554 111.456 88.9203 111.761 88.7885ZM113.801 94.9133C113.654 94.6392 113.652 94.3131 113.651 94.0017C113.645 92.5399 113.555 91.0784 113.382 89.6269C113.373 89.5535 113.36 89.4716 113.3 89.4288C113.248 89.3918 113.178 89.3962 113.115 89.4022C112.806 89.4308 112.441 89.4992 112.319 89.7842C112.266 89.9058 112.273 90.0431 112.28 90.1752C112.358 91.6405 112.436 93.1054 112.515 94.5706C112.522 94.7071 112.54 94.8637 112.653 94.9401C112.715 94.9816 112.793 94.9894 112.867 94.9933C113.18 95.0105 113.496 94.9834 113.801 94.9133ZM108.487 92.6605C108.448 92.9048 108.394 93.1469 108.38 93.3937C108.356 93.8058 108.443 94.2156 108.53 94.6195C108.585 94.8784 108.919 95.0057 109.165 94.9059C109.41 94.8062 109.558 94.5445 109.599 94.2828C109.639 94.0212 109.592 93.7551 109.55 93.4937C109.386 92.4665 109.315 91.4246 109.338 90.3846C109.344 90.1216 109.088 89.884 108.826 89.9099C108.564 89.9358 108.359 90.2193 108.416 90.4761C108.576 91.1914 108.6 91.9365 108.487 92.6605ZM111.085 91.2575C110.931 91.0557 110.578 91.1632 110.458 91.3868C110.338 91.6104 110.374 91.8815 110.404 92.1338C110.482 92.7919 110.49 93.4586 110.427 94.1186C110.408 94.3131 110.387 94.5257 110.495 94.689C110.66 94.9401 111.022 94.9378 111.321 94.9075C111.415 94.8979 111.523 94.8798 111.57 94.7981C111.603 94.7413 111.595 94.6709 111.587 94.6057C111.449 93.5818 111.311 92.558 111.173 91.534C111.16 91.437 111.145 91.3352 111.085 91.2575ZM114.508 91.6976C114.392 91.8558 114.367 92.0617 114.357 92.2578C114.323 92.93 114.412 93.6015 114.501 94.2686C114.536 94.5314 114.656 94.8692 114.921 94.8514C115.189 94.8332 115.259 94.4746 115.252 94.2058C115.236 93.4944 115.219 92.7828 115.203 92.0711C115.199 91.8842 115.179 91.6675 115.024 91.5629C114.861 91.4535 114.624 91.5393 114.508 91.6976ZM106.409 91.5295C106.409 91.5295 106.527 92.458 106.568 92.9311C106.619 93.5251 106.685 94.1179 106.765 94.7087C106.776 94.7947 106.792 94.8876 106.855 94.9465C106.965 95.049 107.388 94.9809 107.466 94.8527C107.544 94.7245 107.54 94.5645 107.533 94.4145C107.511 93.9402 107.49 93.4657 107.468 92.9915C107.445 92.483 107.324 91.3868 107.324 91.3868M104.873 94.8919C104.907 94.9981 104.947 95.1096 105.033 95.1807C105.201 95.3197 105.473 95.2336 105.605 95.0605C105.738 94.8876 105.767 94.6596 105.793 94.4431C105.824 94.1776 105.854 93.9017 105.768 93.6485C105.682 93.3955 105.444 93.1726 105.178 93.1963C104.933 93.2178 104.743 93.4416 104.686 93.6808C104.629 93.92 104.677 94.1707 104.736 94.4092C104.777 94.5716 104.822 94.7326 104.873 94.8919Z" fill="#E7EAEE"/>
<path fill-rule="evenodd" clip-rule="evenodd" d="M120.891 56.8655C120.572 57.3444 120.226 57.8294 119.732 58.1252C119.239 58.4208 118.557 58.4784 118.113 58.1119C117.624 57.7074 117.594 56.9783 117.633 56.3447C117.648 56.1009 117.667 55.8548 117.737 55.6207C117.858 55.2145 118.123 54.8678 118.399 54.5465C118.735 54.1564 119.106 53.7803 119.571 53.5608C120.036 53.3413 120.614 53.3028 121.05 53.5759C121.572 53.9027 121.765 54.5979 121.666 55.2056C121.567 55.8131 121.232 56.3532 120.891 56.8655ZM119.878 57.3721C120.28 56.9437 120.625 56.4614 120.901 55.9424C121.082 55.601 121.237 55.2297 121.229 54.843C121.222 54.4564 121.018 54.052 120.659 53.9087C120.191 53.7218 119.678 54.0206 119.287 54.3382C119.008 54.5646 118.739 54.8125 118.56 55.1237C118.447 55.3203 118.374 55.5367 118.301 55.7514C118.164 56.1578 118.024 56.5814 118.077 57.007C118.129 57.4329 118.434 57.8604 118.861 57.9044C119.256 57.9452 119.606 57.6615 119.878 57.3721Z" fill="black"/>
<path fill-rule="evenodd" clip-rule="evenodd" d="M38.7112 62.2785C39.2109 62.7846 39.6235 63.3768 39.9253 64.021C40.2287 64.6684 39.9227 65.5004 39.3276 65.8965C38.7325 66.2925 37.9278 66.2872 37.2751 65.9955C36.6224 65.7036 36.1096 65.1589 35.7319 64.5519C35.4471 64.0941 35.2262 63.5813 35.2026 63.0429C35.1788 62.5044 35.3771 61.9377 35.803 61.6075C36.2339 61.2736 36.8398 61.2258 37.3609 61.3859C37.8819 61.5462 38.3282 61.8905 38.7112 62.2785ZM36.7612 61.9705C36.3289 61.926 35.9447 62.323 35.8704 62.7514C35.7963 63.1795 35.9596 63.6144 36.1708 63.9941C36.6291 64.8179 37.4466 65.5497 38.388 65.5043C38.8722 65.4807 39.4026 65.1454 39.3941 64.661C39.3905 64.4514 39.287 64.2581 39.1838 64.0758C38.9095 63.5914 38.6132 63.1119 38.2176 62.7202C37.822 62.3285 37.315 62.0276 36.7612 61.9705Z" fill="black"/>
<path fill-rule="evenodd" clip-rule="evenodd" d="M76.4995 126.008C76.8467 125.744 77.2783 125.574 77.7136 125.602C78.1487 125.629 78.5791 125.879 78.7612 126.275C78.9566 126.7 78.8348 127.229 78.53 127.584C78.2253 127.939 77.7661 128.135 77.3027 128.2C76.9864 128.244 76.6094 128.204 76.4362 127.936C76.3528 127.807 76.3337 127.647 76.317 127.494C76.2869 127.219 76.2567 126.944 76.2266 126.669C76.2138 126.553 76.2014 126.432 76.2388 126.321C76.283 126.19 76.3899 126.091 76.4995 126.008ZM77.8728 126.799C77.9232 126.76 77.9762 126.718 77.9982 126.658C78.0686 126.467 77.7923 126.34 77.5884 126.344C77.2923 126.351 76.913 126.55 77.0036 126.832C77.0559 126.995 77.2568 127.071 77.4253 127.041C77.5941 127.011 77.737 126.903 77.8728 126.799Z" fill="black"/>
<path fill-rule="evenodd" clip-rule="evenodd" d="M125.672 38.0994C128.377 40.8993 130.512 44.2476 131.91 47.8811C132.005 48.1306 132.099 48.4079 132.007 48.659C131.302 50.5934 129.941 52.2059 128.607 53.7738L126.05 56.7797C125.236 57.7363 124.422 58.6928 123.581 59.6253C119.297 64.3727 114.236 68.5241 108.374 71.0782C108.153 71.1747 107.915 71.2708 107.677 71.2323C107.439 71.1938 107.215 70.9626 107.278 70.7294C108.003 68.0202 108.732 65.1878 108.15 62.4442C108.01 61.7824 107.854 60.9492 108.4 60.5511C112.828 57.3271 116.015 52.7189 119.07 48.1733C119.838 47.0303 120.604 45.8841 121.284 44.6865C122.491 42.5601 123.421 40.2764 124.042 37.9118C124.127 37.587 124.537 37.4409 124.861 37.526C125.186 37.6111 125.439 37.8581 125.672 38.0994ZM123.78 41.5765C123.505 41.4628 123.251 41.7703 123.111 42.0327C122.959 42.3168 122.808 42.6014 122.656 42.886C119.854 48.1499 117.009 53.4947 112.738 57.6409C112.334 58.0326 111.884 58.5057 111.958 59.0632C112.196 60.8501 111.242 62.7371 109.662 63.6044C108.945 63.9984 108.953 65.0146 109.058 65.8262C109.1 66.1512 109.223 66.5585 109.55 66.586C110.507 66.6667 111.426 67.1382 112.051 67.8689C112.248 68.0994 112.621 67.9553 112.877 67.7939C119.338 63.7324 124.302 57.733 129.149 51.8387C129.316 51.6353 129.494 51.3791 129.407 51.1308C128.674 49.0415 128.791 46.667 129.727 44.6604C129.175 43.5612 128.516 42.5154 127.764 41.5419C126.513 42.0852 125.04 42.098 123.78 41.5765ZM108.455 70.0054C108.71 70.1388 109.019 70.012 109.274 69.8788C109.944 69.529 110.589 69.1321 111.204 68.6917C111.366 68.5752 111.414 68.3429 111.357 68.1517C111.299 67.9604 111.156 67.8061 110.997 67.6852C110.5 67.3082 109.806 67.2091 109.223 67.432C109.116 67.4733 109.009 67.527 108.935 67.615C108.848 67.7184 108.816 67.8558 108.788 67.9879C108.647 68.655 108.536 69.3284 108.455 70.0054ZM126.599 40.1854C126.16 39.327 125.483 38.592 124.663 38.084C124.378 38.3351 124.323 38.7169 124.266 39.1061V39.1064C124.227 39.3733 124.188 39.6439 124.074 39.8783C124.037 39.9547 123.991 40.0276 123.946 40.1005C123.859 40.239 123.773 40.3771 123.745 40.5365C123.703 40.7793 123.908 41.0839 124.142 41.0036C124.331 40.9383 124.53 40.9802 124.73 41.0227C124.836 41.0449 124.942 41.0674 125.048 41.0743C125.663 41.1139 126.173 40.6319 126.599 40.1854ZM130.078 45.3298C129.608 46.2652 129.682 47.3699 129.767 48.4134L129.89 49.91C129.904 50.0745 129.993 50.2967 130.152 50.251C130.25 49.9754 130.438 49.7479 130.626 49.5199C130.79 49.3206 130.955 49.1207 131.061 48.8877C131.42 48.0983 131.022 47.1888 130.629 46.4157L130.078 45.3298ZM109.027 61.9388C109.047 62.2316 109.351 62.4507 109.644 62.4424C109.937 62.4341 110.201 62.2445 110.372 62.0064C110.544 61.7682 110.638 61.4847 110.73 61.2058L111.032 60.2855C111.116 60.0289 111.121 59.6365 110.853 59.6065C110.756 59.5955 110.663 59.6468 110.584 59.7032C110.283 59.9172 110.064 60.2243 109.851 60.5256L109.27 61.3462C109.144 61.5241 109.012 61.7214 109.027 61.9388ZM39.7467 59.4822C37.7061 55.7459 36.4033 51.6082 35.9352 47.3766C35.9063 47.1163 35.6194 46.9477 35.3578 46.9569C35.0961 46.9658 34.8587 47.1041 34.6361 47.2422C31.4772 49.2007 28.7883 51.9114 26.8555 55.0863C26.6598 55.4076 26.467 55.7488 26.4422 56.1243C26.4179 56.4926 26.5587 56.8501 26.7036 57.1895C28.8358 62.1849 32.3913 66.4218 36.0006 70.4803C38.7803 73.6063 41.7562 76.7707 45.6324 78.3441C46.2587 78.5985 47.1687 78.7019 47.4342 78.0802C47.5115 77.8992 47.5074 77.6958 47.5035 77.4991L47.5033 77.4915C47.4606 75.3839 47.7 73.2706 48.2135 71.2261C48.3321 70.753 48.394 70.115 47.9514 69.91C46.2871 69.1387 45.1466 67.5836 44.08 66.0911C42.5471 63.9466 41.0104 61.7957 39.7467 59.4822ZM43.3493 75.8148C43.12 75.8758 42.8911 75.7313 42.6996 75.591C39.172 73.0064 36.4382 69.5082 33.7522 66.0569L29.0121 59.9665C29.812 59.4569 29.9136 58.3497 29.9311 57.4012C29.9538 56.1683 29.9703 54.8992 29.5249 53.7493C29.4261 53.4938 29.5549 53.2106 29.693 52.9737C30.2847 51.9582 31.1055 51.0769 32.0765 50.4146C32.1705 50.3503 32.27 50.2868 32.3826 50.2708C32.6801 50.2288 32.9083 50.518 33.0672 50.7728C33.6946 51.7791 34.5572 52.9173 35.7403 52.8345C36.1907 52.8028 36.4407 53.3335 36.5721 53.7656C38.2063 59.1384 41.2748 63.9844 44.8733 68.2959C45.3409 68.8562 45.4581 69.6125 45.5743 70.3617C45.7039 71.1974 45.8323 72.0244 46.4435 72.5615C46.9655 73.0204 46.8687 73.8442 46.7277 74.5246C46.699 74.6638 46.6646 74.8129 46.5589 74.9078C46.4804 74.9784 46.3743 75.0078 46.2722 75.0351L43.3493 75.8148ZM34.9862 51.5899C34.3391 51.1376 33.78 50.56 33.3495 49.8981C33.2564 49.755 33.166 49.5945 33.1823 49.4245C33.2 49.2397 33.3392 49.0918 33.4775 48.9679C33.8192 48.6622 34.2054 48.4063 34.62 48.2107C34.7718 48.1389 34.9679 48.0809 35.094 48.1916C35.1683 48.2568 35.192 48.3611 35.2112 48.4581L35.8089 51.4475C35.8442 51.6241 35.6589 51.7832 35.4789 51.7885C35.2986 51.7935 35.1339 51.6931 34.9862 51.5899ZM29.0711 57.3718C29.0584 57.9342 29.0156 58.5653 28.594 58.9377C28.506 58.948 28.4473 58.8513 28.4129 58.7696C28.1092 58.0509 27.8015 57.3147 27.7535 56.5361C27.7058 55.7573 27.9668 54.9141 28.6032 54.4627C28.6892 54.4015 28.8156 54.3511 28.8915 54.4244C28.922 54.4538 28.9351 54.4965 28.9463 54.5375C29.1192 55.1732 29.1057 55.8426 29.0908 56.5011L29.0711 57.3718ZM46.2438 76.0751C46.3458 76.1588 46.3568 76.3084 46.3596 76.4405L46.3898 77.8857C45.797 77.5571 45.229 77.1835 44.6923 76.7693C44.5907 76.6909 44.4788 76.5636 44.5412 76.4512C44.5722 76.3955 44.6364 76.3687 44.696 76.3467C45.0797 76.2052 45.4764 76.099 45.8794 76.0299C46.0039 76.0086 46.1458 75.9951 46.2438 76.0751ZM46.2779 70.3821C46.2724 70.3168 46.2724 70.2457 46.3112 70.193C46.4137 70.0537 46.6357 70.1799 46.7297 70.3248C46.9558 70.6741 47.0058 71.1316 46.8604 71.5215C46.5281 71.2366 46.3142 70.8181 46.2779 70.3821ZM134.589 59.4079C135.18 58.6637 136.257 58.5566 137.207 58.5797C137.429 58.585 137.657 58.5958 137.859 58.688C138.422 58.9441 138.541 59.6785 138.56 60.2958C138.577 60.8575 138.574 61.4267 138.437 61.9718C138.301 62.5169 138.018 63.0421 137.567 63.3767C137.364 63.5271 137.129 63.6368 136.879 63.6785C136.494 63.743 136.1 63.6441 135.734 63.5079C135.247 63.3265 134.785 63.0772 134.365 62.7697C134.16 62.6194 133.948 62.4229 133.942 62.1688C133.926 61.5829 133.992 60.9951 134.136 60.4268C134.228 60.0638 134.356 59.7012 134.589 59.4079ZM136.121 63.1141C136.88 63.332 137.687 62.7451 137.975 62.0099C138.262 61.2749 138.156 60.449 137.998 59.6757C137.937 59.3787 137.62 59.2129 137.327 59.1336C136.874 59.0107 136.393 58.9944 135.933 59.0863C135.704 59.132 135.471 59.2104 135.31 59.3794C135.223 59.4716 135.162 59.5856 135.103 59.6977L134.659 60.5378C134.58 60.6857 134.502 60.8348 134.456 60.9953C134.318 61.476 134.5 62.0099 134.835 62.3802C135.171 62.7509 135.641 62.9763 136.121 63.1141ZM125.966 71.6084C126.662 71.851 127.293 72.278 127.777 72.834C128.192 73.3119 128.509 73.932 128.422 74.5592C128.39 74.7897 128.305 75.0092 128.208 75.2206C127.841 76.021 127.209 76.7883 126.343 76.9434C125.888 77.0246 125.419 76.9271 124.982 76.7783C124.476 76.6063 123.994 76.365 123.553 76.0632C123.319 75.9031 123.087 75.713 122.984 75.4488C122.914 75.2667 122.911 75.0663 122.914 74.8709C122.92 74.3879 122.953 73.8967 123.121 73.444C123.334 72.8711 123.751 72.3982 124.193 71.9762C124.371 71.8065 124.559 71.6394 124.788 71.5483C125.161 71.3995 125.587 71.4758 125.966 71.6084ZM126.678 75.8185C127.181 75.3211 127.473 74.5998 127.394 73.8969C127.314 73.194 126.838 72.5344 126.173 72.2946C125.896 72.1948 125.59 72.1668 125.306 72.2453C125.153 72.2877 125.01 72.3597 124.876 72.4448C124.304 72.809 123.902 73.4302 123.804 74.1019C123.706 74.7737 123.915 75.4839 124.36 75.996C124.645 76.3242 125.111 76.4648 125.542 76.4102C125.973 76.3558 126.369 76.1242 126.678 75.8185ZM63.178 67.4648C63.1546 67.1334 62.7115 67.0467 62.3794 67.0564C60.636 67.1077 58.8947 67.2382 57.1632 67.4478C56.8786 67.4822 56.8557 67.9407 57.0839 68.114C57.3123 68.2872 57.6302 68.2551 57.9138 68.2145L63.178 67.4648ZM57.6045 69.7058C57.6196 69.5352 57.834 69.4735 58.0042 69.4543L68.2733 68.2913C68.4591 68.2702 68.657 68.2512 68.8242 68.3349C68.9911 68.4184 69.0989 68.6472 68.9897 68.7991C68.9092 68.9107 68.7551 68.9335 68.618 68.9468L58.1145 69.9661C57.8962 69.9872 57.5852 69.9244 57.6045 69.7058ZM80.6263 71.4357C80.0516 71.5618 79.462 71.3545 78.9111 71.1486C77.1295 70.4828 75.3546 69.7985 73.5872 69.096C72.8737 68.8124 72.0908 69.2371 71.4491 69.6586C69.592 70.8787 67.8038 72.2037 66.0965 73.6256C65.658 73.9907 64.983 73.7345 64.5407 73.3738C64.4471 73.2977 64.3551 73.2163 64.2627 73.1346C63.9183 72.8301 63.5692 72.5218 63.1236 72.4585C62.4386 72.3613 61.8361 72.8805 61.3396 73.3626L58.1388 76.4712C57.7084 76.8893 57.2552 77.5587 57.6384 78.0206C57.8911 78.3253 58.3553 78.3097 58.7486 78.2643C60.8021 78.0263 62.8452 77.6924 64.8879 77.3587C68.2639 76.8074 71.6381 76.2563 75.0526 76.138C75.8092 76.1118 76.5662 76.107 77.3235 76.1022C77.7975 76.0992 78.2718 76.0962 78.7458 76.088C80.8839 76.0506 83.0199 75.9066 85.1437 75.6566C85.2465 75.6444 85.3634 75.6233 85.4166 75.5346C85.4568 75.4676 85.4469 75.3832 85.4355 75.3059L84.5358 69.1853C84.4901 68.8743 84.4103 68.5149 84.1262 68.3805C83.8391 68.2448 83.5008 68.4197 83.265 68.6328C82.8963 68.9658 82.6121 69.4084 82.3319 69.8448C81.8721 70.5608 81.4226 71.2605 80.6263 71.4357ZM66.018 74.7847C67.9392 73.205 69.9424 71.7251 72.0169 70.353C72.443 70.0714 72.9606 69.7829 73.4367 69.9677L78.4669 71.9226C79.3065 72.2487 80.2248 72.5792 81.0866 72.3177C82.0886 72.0136 82.6876 71.0167 83.1921 70.0994C83.29 69.9207 83.5756 69.9414 83.7171 70.0879C83.8583 70.2347 83.8941 70.4503 83.9232 70.6518L84.2913 73.2043C84.348 73.5963 84.4035 74.0029 84.2902 74.3824C84.1769 74.7617 83.8441 75.1064 83.4483 75.0989C76.9733 74.9739 70.4857 75.5078 64.118 76.6897C63.9217 76.7262 63.7254 76.7631 63.5288 76.8003H63.5284L63.5282 76.8005H63.5279H63.5275L63.5272 76.8007H63.5268H63.5266H63.5261C62.0049 77.0881 60.4782 77.3764 58.9323 77.3814C59.6788 76.3242 60.6248 75.4261 61.5641 74.5356C62.0797 74.0467 62.7246 73.5194 63.4169 73.6793C63.791 73.7657 64.0776 74.0343 64.3629 74.3017C64.4544 74.3872 64.5457 74.4728 64.6397 74.5523C65.0271 74.8792 65.6266 75.1064 66.018 74.7847ZM149.088 92.5896C148.917 92.6536 148.725 92.6101 148.55 92.555C147.366 92.1828 146.404 91.3503 145.459 90.5323C145.331 90.4215 145.204 90.311 145.076 90.2018C143.51 88.8662 141.81 87.687 140.011 86.6877C139.828 86.5859 139.636 86.4791 139.524 86.3022C139.412 86.1252 139.415 85.856 139.588 85.7379C140.395 85.187 140.918 84.2417 140.957 83.2656C140.967 83.0053 141.261 82.832 141.52 82.8528C141.78 82.8737 142.006 83.0297 142.218 83.1803L150.44 89.0166C150.6 89.1301 150.773 89.262 150.812 89.4542C150.844 89.6113 150.778 89.77 150.712 89.9159C150.357 90.6983 149.95 91.4567 149.492 92.184C149.389 92.3486 149.271 92.5218 149.088 92.5896ZM140.863 85.6661C140.766 85.8367 140.683 86.0832 140.839 86.2011L147.548 91.2529C147.916 91.5294 148.487 91.7888 148.776 91.4311C149.108 91.0205 149.419 90.5924 149.705 90.1486C149.784 90.0273 149.863 89.8886 149.835 89.7468C149.81 89.6175 149.701 89.5237 149.598 89.4404C147.136 87.4441 144.529 85.6262 141.804 84.0057L140.863 85.6661ZM137.524 88.7554C137.632 88.5697 137.764 88.3662 137.974 88.3206C138.135 88.2855 138.298 88.3545 138.446 88.4266C139.254 88.8187 139.994 89.3505 140.624 89.9911C140.775 90.1454 140.794 90.3933 140.726 90.5988C140.659 90.8041 140.52 90.9767 140.384 91.1446C140.165 91.4143 139.932 91.6948 139.609 91.8228C139.26 91.9608 138.855 91.8943 138.525 91.7166C138.195 91.5388 137.93 91.2607 137.696 90.9673C137.392 90.5848 137.119 90.1259 137.166 89.6393C137.197 89.3203 137.362 89.0322 137.524 88.7554ZM138.937 90.8974C139.445 91.0951 139.77 90.9384 139.783 90.6052C139.792 90.3949 139.608 90.233 139.441 90.1046L138.937 89.7166C138.77 89.5881 138.586 89.4537 138.376 89.4551C138.165 89.4565 137.951 89.6734 138.037 89.8654C138.024 89.9583 138.429 90.6999 138.937 90.8974ZM136.931 94.9992C137.055 95.0671 137.187 95.1334 137.328 95.1364C137.469 95.1394 137.622 95.0593 137.657 94.9224C137.738 94.6011 137.951 94.3346 138.159 94.0737C138.182 94.0452 138.204 94.0168 138.227 93.9883C138.455 93.6998 138.675 93.3728 138.681 93.0052C138.687 92.6373 138.383 92.2454 138.018 92.2956C137.731 92.3353 137.464 92.147 137.256 91.9457C137.222 91.9136 137.189 91.8808 137.156 91.8478C136.982 91.6737 136.805 91.4969 136.573 91.4214C136.297 91.3315 135.922 91.4744 135.9 91.7634C135.856 92.3454 135.373 92.7834 134.924 93.1568C134.79 93.2685 134.911 93.4829 135.037 93.6042C135.602 94.1509 136.241 94.6215 136.931 94.9992ZM137.021 93.8904L136.137 93.2926C135.912 93.1405 135.931 92.7683 136.131 92.5853C136.331 92.4023 136.643 92.3883 136.898 92.48C137.153 92.5715 137.366 92.7511 137.572 92.9272C137.709 93.0437 137.728 93.2561 137.665 93.4244C137.602 93.5927 137.475 93.7276 137.351 93.8574C137.309 93.9019 137.261 93.9489 137.2 93.9569C137.136 93.9652 137.075 93.9269 137.021 93.8904ZM144.026 93.9296L144.459 93.0116C144.591 92.7305 144.719 92.3826 144.54 92.1285C144.478 92.0402 144.387 91.978 144.298 91.9177L142.725 90.8582C142.556 90.744 142.372 90.6252 142.168 90.6286C141.926 90.6323 141.722 90.8052 141.55 90.9758C141.293 91.2313 141.052 91.5035 140.83 91.7906C140.661 92.009 140.522 92.3683 140.753 92.5199L143.158 94.0982C143.348 94.2227 143.589 94.3507 143.789 94.2422C143.906 94.1787 143.97 94.0503 144.026 93.9296ZM143.493 93.2797C143.392 93.3031 143.287 93.2774 143.188 93.2474C142.58 93.0644 142.024 92.7139 141.597 92.245C141.455 92.089 141.536 91.8134 141.716 91.704C141.897 91.5948 142.131 91.6198 142.326 91.7014C142.451 91.7542 142.566 91.8278 142.681 91.9014C142.744 91.9415 142.808 91.9819 142.872 92.0191C142.942 92.0587 143.015 92.0952 143.088 92.1317C143.295 92.2353 143.502 92.3392 143.643 92.5183C143.833 92.761 143.794 93.2107 143.493 93.2797ZM144.306 94.3053C144.583 94.2392 144.668 93.9567 144.756 93.6629C144.828 93.4201 144.904 93.1696 145.091 93.0277C145.415 92.7832 145.873 92.9875 146.221 93.1949L147.33 93.854C147.506 93.959 147.687 94.0677 147.814 94.2296C147.94 94.3913 148.002 94.6206 147.914 94.8059C147.855 94.9298 147.743 95.0119 147.63 95.0944C147.538 95.1623 147.445 95.2304 147.38 95.3224C147.297 95.4403 147.266 95.5884 147.235 95.7345C147.197 95.918 147.159 96.0987 147.019 96.214C146.764 96.4241 146.385 96.2558 146.103 96.0833L144.541 95.1293C144.384 95.0332 144.218 94.9275 144.14 94.7598C144.063 94.5924 144.126 94.3479 144.306 94.3053ZM146.353 95.2527C146.576 95.1763 146.756 95.0105 146.928 94.849C147.053 94.7321 146.886 94.5397 146.737 94.4555L145.78 93.917C145.681 93.8608 145.542 93.8097 145.464 93.8941C145.215 94.1659 145.179 94.6096 145.381 94.9183C145.582 95.227 146.004 95.3717 146.353 95.2527ZM135.378 95.2192C135.164 95.1589 134.946 95.0974 134.771 94.9779C134.499 94.7929 134.122 94.8378 133.836 95.0015C133.551 95.1651 133.339 95.4276 133.133 95.684C133.019 95.8262 132.902 95.9746 132.858 96.1516C132.815 96.3289 132.867 96.5436 133.026 96.6323L134.694 97.562C134.82 97.6325 134.961 97.7052 135.102 97.674C135.243 97.6428 135.34 97.5178 135.425 97.4015L135.854 96.811C136.093 96.4821 136.342 96.0634 136.168 95.6964C136.028 95.4024 135.707 95.3121 135.378 95.2192ZM134.85 96.7488C134.763 96.7718 134.673 96.7298 134.593 96.6888L133.456 96.1106C133.675 95.8012 134.091 95.6827 134.467 95.72C134.844 95.7577 135.194 95.9251 135.535 96.09L135.013 96.6323C134.966 96.681 134.915 96.7314 134.85 96.7488ZM126.978 73.6245C127.154 73.8928 127.099 74.2512 126.982 74.5501C126.828 74.9438 126.568 75.3087 126.201 75.5183C125.834 75.7277 125.351 75.7584 124.994 75.5332C124.636 75.308 124.456 74.8074 124.648 74.4306C124.692 74.3434 124.753 74.2661 124.813 74.1889C124.871 74.115 124.929 74.0412 124.973 73.9584C125.002 73.904 125.024 73.8462 125.047 73.7887C125.079 73.7054 125.111 73.6224 125.162 73.5499C125.344 73.2919 125.703 73.2412 126.019 73.2458C126.377 73.2509 126.782 73.325 126.978 73.6245ZM126.179 73.7949C125.689 73.7887 125.229 74.1996 125.181 74.6872C125.161 74.8865 125.245 75.1342 125.444 75.1617C125.592 75.1821 125.723 75.0674 125.822 74.9553C126.034 74.7184 126.215 74.4551 126.362 74.1733C126.41 74.0785 126.454 73.9572 126.389 73.8724C126.342 73.8107 126.256 73.7958 126.179 73.7949ZM137.898 61.0155C137.86 60.5669 137.559 60.1257 137.124 60.0131C136.57 59.8704 136.033 60.2603 135.593 60.6261C135.463 60.7343 135.327 60.8506 135.272 61.0107C135.179 61.2822 135.347 61.5682 135.512 61.8026C135.702 62.0711 135.905 62.341 136.181 62.5185C136.458 62.696 136.827 62.7651 137.118 62.6107C137.265 62.5321 137.381 62.4036 137.481 62.2693C137.75 61.9081 137.935 61.4641 137.898 61.0155ZM136.669 62.1658C136.481 62.1938 136.287 62.1181 136.149 61.9881C135.942 61.7932 135.859 61.4797 135.932 61.2047C136.008 60.9153 136.251 60.6761 136.542 60.6048C136.832 60.5332 137.159 60.6325 137.36 60.8538C137.353 60.9141 137.346 60.9749 137.34 61.0357C137.319 61.2421 137.297 61.4487 137.226 61.6423C137.133 61.8931 136.934 62.1261 136.669 62.1658ZM121.762 132.15C122.783 128.537 124.711 125.259 126.619 122.026C126.941 121.479 127.341 120.878 127.967 120.774C128.214 120.733 128.344 120.465 128.428 120.229C129.463 117.327 129.563 114.099 128.709 111.137C128.466 110.292 128.765 109.396 129.062 108.568L131.36 102.157C131.121 101.744 130.669 101.562 130.212 101.378C129.829 101.225 129.441 101.069 129.171 100.775C128.409 99.9432 128.984 98.6213 129.582 97.6641L140.056 80.8893C140.484 80.2043 141.423 79.9894 142.209 80.1719C142.996 80.3545 143.668 80.8496 144.315 81.333L151.955 87.0391C153.321 88.0599 154.83 89.3638 154.751 91.0678C154.708 92.0108 154.168 92.849 153.646 93.6354L147.592 102.759C146.809 103.938 146.714 105.373 146.619 106.813C146.575 107.465 146.532 108.118 146.425 108.749C145.903 111.83 143.852 114.38 141.887 116.824L141.764 116.977C141.726 117.024 141.689 117.07 141.652 117.116C139.618 119.65 137.583 122.479 137.468 125.726C137.332 129.595 135.494 133.375 132.533 135.871L135.109 129.622C135.722 128.135 136.289 126.287 135.264 125.048C134.8 124.488 134.099 124.192 133.426 123.916L129.425 122.274C129.149 122.161 128.865 122.046 128.567 122.044C127.637 122.039 127.084 123.046 126.708 123.896C125.404 126.835 123.739 129.614 121.762 132.15ZM134.917 123.663C135.603 123.917 136.569 124.071 136.894 123.416C138.467 120.244 140.084 117.012 142.588 114.51C144.032 113.067 144.916 111.143 145.417 109.164C145.918 107.186 146.059 105.138 146.199 103.102C145.591 103.323 145.538 104.143 145.541 104.79C145.547 106.216 145.297 107.642 144.808 108.981C144.706 109.261 144.569 109.564 144.295 109.683C144.021 109.801 143.617 109.564 143.709 109.28C144.416 107.101 144.679 104.78 144.479 102.498C144.417 101.791 144.285 101.034 143.782 100.533C143.837 101.65 143.891 102.772 143.778 103.884C143.582 105.809 142.892 107.644 142.208 109.454C142.119 109.689 142.012 109.945 141.786 110.055C141.56 110.166 141.21 109.991 141.269 109.747L142.294 105.512C142.857 103.184 143.411 100.68 142.539 98.4484C142.1 98.4191 141.996 99.047 142.035 99.4852C142.304 102.488 141.474 105.468 140.652 108.368C140.556 108.707 140.217 109.13 139.953 108.898C139.839 108.797 139.834 108.624 139.843 108.473C139.895 107.619 140.129 106.794 140.362 105.969C140.435 105.713 140.507 105.457 140.574 105.2C141.192 102.835 141.349 100.351 141.035 97.9262C140.494 98.6197 140.265 99.4995 140.048 100.352L138.762 105.413C138.181 107.701 137.438 110.216 135.423 111.445C135.262 111.543 135.076 111.634 134.893 111.59C134.666 111.536 134.537 111.301 134.442 111.088C133.156 108.191 132.996 104.811 134.001 101.805C134.062 101.622 133.877 101.432 133.685 101.417C133.493 101.402 133.314 101.506 133.156 101.617C131.506 102.781 130.874 104.89 130.349 106.84L129.651 109.433C129.549 109.812 129.447 110.194 129.426 110.586C129.393 111.181 129.549 111.764 129.703 112.343C129.739 112.477 129.775 112.611 129.808 112.746C130.48 115.439 130.176 118.365 128.967 120.864C128.789 121.233 129.259 121.568 129.643 121.71L134.917 123.663ZM137.524 98.9156C137.249 98.7261 136.954 98.5099 136.869 98.1868C136.738 97.6912 137.21 97.1935 137.718 97.1268C138.226 97.0603 138.723 97.3054 139.144 97.5974C139.737 98.0088 140.488 97.3816 140.932 96.8126C140.333 96.4541 139.762 95.898 139.738 95.2006C139.714 94.503 140.562 93.8386 141.127 94.2491C141.346 94.4085 141.611 94.506 141.873 94.6023C142.265 94.7468 142.651 94.8887 142.867 95.2325C143.112 95.6235 143.024 96.1521 142.775 96.5404C142.526 96.9286 142.142 97.2073 141.768 97.4765C142.305 97.5299 142.829 97.7217 143.274 98.0283L143.759 96.6151C143.796 96.5055 143.837 96.3908 143.923 96.3136C144.09 96.1645 144.348 96.2106 144.561 96.278C145.12 96.4553 145.667 96.7319 146.036 97.1873C146.404 97.6428 146.558 98.3044 146.301 98.8305C146.043 99.3568 145.316 99.6373 144.824 99.3201C144.721 99.2543 144.619 99.1662 144.516 99.0784C144.242 98.8431 143.967 98.6078 143.702 98.7961C144.511 99.4263 145.067 100.373 145.223 101.386C147.77 97.5063 150.29 93.6079 152.783 89.6922C153.021 89.3184 153.213 88.7293 152.825 88.5144C151.17 87.5959 149.707 86.3662 148.247 85.1393C146.405 83.5906 144.568 82.0467 142.358 81.1399C142.217 81.0824 142.064 81.0269 141.917 81.0654C141.763 81.106 141.655 81.2397 141.559 81.3658C137.442 86.7389 133.747 92.4355 130.52 98.3854C130.07 99.2155 130.672 100.205 131.249 100.953C131.537 101.327 132.093 101.721 132.407 101.369C132.803 100.926 133.452 100.672 134.013 100.87C134.573 101.068 134.922 101.797 134.617 102.308C134.397 102.677 134.828 103.088 135.206 103.294C135.959 103.707 136.733 104.085 137.522 104.425C137.631 104.472 137.759 104.518 137.866 104.465C137.967 104.414 138.009 104.293 138.041 104.184L138.915 101.175C139.059 100.681 139.155 100.039 138.73 99.7467L137.524 98.9156ZM153.163 90.4834C153.047 90.4435 152.941 90.5598 152.872 90.6619L146.327 100.46C146.151 100.724 145.97 100.998 145.919 101.311C145.868 101.624 145.982 101.987 146.267 102.126C146.739 102.357 147.232 101.873 147.534 101.444L153.616 92.824C154.068 92.184 153.685 91.309 153.299 90.6277C153.265 90.569 153.227 90.5055 153.163 90.4834ZM134.733 103.568C134.618 103.484 134.446 103.534 134.349 103.639C134.253 103.744 134.213 103.888 134.177 104.025C134.087 104.365 133.997 104.707 133.984 105.058C133.971 105.408 134.035 105.757 134.098 106.102L134.725 109.509C134.751 109.652 134.782 109.804 134.883 109.908C134.985 110.012 135.182 110.035 135.264 109.915C136.192 108.558 137.133 107.175 137.618 105.604C137.678 105.409 137.696 105.134 137.504 105.062C136.519 104.692 135.584 104.187 134.733 103.568ZM141.972 95.1609C141.658 94.8617 141.242 94.6704 140.811 94.6264C140.417 94.5862 140.19 95.1389 140.37 95.4914C140.55 95.8439 140.946 96.0184 141.313 96.1656C141.573 96.2695 141.887 96.3675 142.113 96.2035C142.438 95.9677 142.262 95.4375 141.972 95.1609ZM139.388 99.1091C139.516 99.0181 139.532 98.8316 139.497 98.6787C139.362 98.1019 138.729 97.8072 138.161 97.6384C137.942 97.5731 137.668 97.5274 137.514 97.6964C137.384 97.8375 137.412 98.0712 137.523 98.2267C137.635 98.3821 137.809 98.478 137.978 98.5686L138.855 99.041C139.021 99.1307 139.233 99.219 139.388 99.1091ZM144.378 97.0305C144.192 97.2791 144.211 97.6405 144.366 97.9095C144.521 98.1783 144.789 98.365 145.072 98.492C145.169 98.5358 145.276 98.5741 145.38 98.5532C145.47 98.5353 145.546 98.4748 145.601 98.4016C145.804 98.131 145.705 97.7233 145.473 97.4772C145.241 97.2314 144.911 97.1082 144.593 96.9931C144.538 96.9731 144.474 96.9539 144.424 96.9839C144.42 96.9867 144.415 96.9899 144.411 96.9933C144.398 97.0039 144.388 97.0172 144.378 97.0305ZM56.4266 119.566C56.5479 118.669 56.7181 117.681 57.4231 117.113C57.9854 116.66 58.7571 116.588 59.479 116.574C61.8439 116.528 64.2166 116.912 66.4464 117.701C67.1519 117.951 67.8901 118.28 68.2758 118.921C68.6932 119.615 68.5916 120.491 68.476 121.293L66.6852 133.735C67.9201 130.132 68.8067 126.409 69.3285 122.636C69.572 120.876 69.6569 118.856 68.4283 117.572C66.5106 115.568 66.5629 112.713 66.6161 109.81C66.662 107.305 66.7086 104.764 65.4899 102.703C65.0922 102.031 65.9788 101.337 66.7161 101.079C69.9658 99.9412 73.4298 99.419 76.8708 99.5485C77.5014 104.531 77.6721 109.573 77.3797 114.587C77.3141 115.711 78.9091 116.002 80.0287 115.878L118.869 111.571C119.064 111.549 119.274 111.52 119.411 111.381C119.572 111.22 119.58 110.965 119.578 110.737C119.486 101.637 119.225 92.538 118.792 83.4475C118.776 83.0927 118.731 82.6854 118.437 82.4857C118.217 82.3359 117.927 82.3556 117.662 82.3813L89.9389 85.0689C91.7602 76.4792 93.5917 67.7285 92.761 58.9873C86.7007 63.0279 78.8806 62.9976 71.6092 62.5697C71.3071 62.552 71.0042 62.5339 70.7008 62.5158C63.7031 62.0975 56.406 61.6615 50.1151 64.6885C53.4091 73.4217 56.7406 82.9544 54.0026 91.8778C53.7604 92.6672 53.4721 93.4425 53.1841 94.2177C52.7399 95.4127 52.2961 96.6071 52.0216 97.8503C51.5691 99.8999 51.637 102.195 52.8499 103.908C54.6064 106.388 56.0021 109.209 56.3207 112.231C56.6227 115.1 55.9475 117.944 55.2733 120.786C54.5688 123.755 53.8652 126.72 54.2778 129.705C54.3477 130.21 54.4736 130.754 54.8692 131.076L56.4266 119.566ZM59.1745 83.5216C59.909 83.5475 60.201 84.4696 60.2948 85.1987L61.0385 90.9708C59.5866 90.2181 57.5439 91.4957 57.5857 93.1309C56.3619 90.7692 56.1762 88.0626 55.9923 85.3835C55.9521 84.8008 55.9122 84.2192 55.8618 83.6427C55.3215 77.4789 53.4639 71.5169 51.6177 65.6113C51.3545 64.7692 52.4915 64.2232 53.3643 64.095C59.0931 63.2552 64.8909 63.3712 70.6914 63.4872C73.3207 63.5398 75.9505 63.5923 78.5745 63.556C83.2373 63.4914 88.1709 63.0499 91.9533 60.3224C92.8035 65.9897 91.6479 71.7075 90.5072 77.3534C90.3528 78.1171 90.1987 78.8794 90.0499 79.6401C88.8012 86.0252 87.9512 92.8309 90.3404 98.8821C90.4411 99.1371 90.0978 99.3295 89.8295 99.3855C87.8643 99.7953 85.8327 99.8836 83.8393 99.6458C82.9843 99.5437 82.1383 99.3823 81.2921 99.2211C80.6548 99.0995 80.0175 98.978 79.3762 98.8819C74.5481 98.1574 69.5087 98.9094 65.1023 101.012C64.9257 101.096 64.7156 101.056 64.5308 100.992C63.6385 100.684 63.0018 99.8591 62.6842 98.9697C62.3666 98.0803 62.3212 97.1206 62.2787 96.1771L62.101 92.2204C62.0946 92.0782 62.1317 91.8854 62.2742 91.8808C69.9928 91.6397 77.7028 91.1194 85.3839 90.3211C85.0591 88.5036 85.027 86.6343 85.2889 84.807C85.4543 83.6532 84.3693 82.6015 83.2141 82.4471C82.059 82.2926 80.9167 82.8159 79.9574 83.478C79.5987 83.7257 79.254 83.9947 78.9098 84.2635C78.3337 84.7132 77.7581 85.1627 77.1171 85.511C76.6976 85.7388 76.1931 85.9227 75.7525 85.7385C75.2136 85.5133 75.0329 84.8719 74.8714 84.2995C74.8614 84.2635 74.8513 84.2279 74.8412 84.1926C74.6309 83.4553 74.2839 82.7214 73.6732 82.2577C73.0627 81.794 72.1415 81.6786 71.5388 82.1525C71.0235 82.5577 70.8606 83.2594 70.7742 83.9091C70.7666 83.9669 70.759 84.025 70.7517 84.0834C70.6751 84.6809 70.596 85.2982 70.2394 85.7773C69.8481 86.3032 68.9748 86.5286 68.5455 86.0332C67.6968 85.0533 66.2072 84.8478 64.9574 85.1918C63.7073 85.5356 62.6379 86.3298 61.6008 87.1077C60.9752 86.1286 60.9234 84.8104 61.4703 83.7853L61.4795 83.7683C61.5825 83.5759 61.7006 83.3548 61.6096 83.1588C61.5534 83.0374 61.4291 82.9629 61.3061 82.9102C60.5707 82.5948 59.6311 82.8643 59.1745 83.5216ZM81.2756 100.067C81.6868 100.149 82.1922 100.333 82.2177 100.751C82.4601 104.743 85.6325 108.33 89.5327 109.214C93.433 110.097 97.7557 108.311 100.03 105.021C102.304 101.732 102.482 97.1616 100.617 93.6239C98.6173 89.8301 93.7573 87.8152 89.6595 89.0813C89.4694 88.2431 89.4908 87.3574 89.7212 86.5293C89.7641 86.3754 89.8199 86.2146 89.9439 86.1144C90.0652 86.0163 90.2292 85.9938 90.384 85.9752L101.927 84.585C102.942 84.4628 103.959 84.3403 104.981 84.3318C109.376 84.2958 113.768 83.8573 118.084 83.0244C118.755 92.0294 119.07 101.061 119.03 110.091C119.028 110.519 118.898 111.088 118.47 111.101C111.205 111.312 103.998 112.268 96.7875 113.224C91.9432 113.866 87.0979 114.508 82.2328 114.926C81.1485 115.018 80.0569 115.1 78.9733 114.997C78.777 114.978 78.5555 114.938 78.4488 114.772C78.3844 114.672 78.3773 114.547 78.3718 114.428L77.7241 99.9852C77.7156 99.7985 77.7271 99.5735 77.8886 99.48C77.9957 99.4178 78.1298 99.4401 78.2511 99.4644L81.2756 100.067ZM61.4006 96.7236C61.2857 97.4738 61.1566 98.3177 61.6481 98.8853C63.4811 101.002 65.3855 103.264 65.8726 106.022C66.1001 107.309 66.0024 108.635 65.9052 109.955C65.7825 111.617 65.6605 113.271 66.19 114.831C66.2038 114.872 66.218 114.912 66.2325 114.953C66.3297 115.231 66.4288 115.515 66.3973 115.805C66.3611 116.138 66.0722 116.473 65.7419 116.416L61.91 115.755C60.6408 115.536 59.3002 115.323 58.0946 115.776C57.8616 115.864 57.5932 115.71 57.4685 115.495C57.3435 115.28 57.3272 115.02 57.3162 114.771C57.3031 114.471 57.2935 114.169 57.2836 113.866C57.2217 111.958 57.1587 110.014 56.2755 108.343L53.4584 103.01C53.0423 102.222 52.6167 101.4 52.588 100.51C52.5688 99.9157 52.7293 99.3318 52.8885 98.7589L54.2938 93.6962C54.5897 92.6305 54.9027 91.5306 55.6035 90.6747C57.3059 93.5629 57.4738 97.2992 56.0374 100.329C55.9047 100.609 56.3106 100.897 56.6 100.786C56.8892 100.674 57.0362 100.357 57.1382 100.064C57.5467 98.8908 57.69 97.6542 57.8333 96.4156C57.9496 95.4134 58.0657 94.4103 58.3227 93.4386C58.4801 92.8433 58.7073 92.2358 59.1669 91.826C59.6265 91.4164 60.3762 91.276 60.8578 91.6595C61.2263 91.953 61.3463 92.4548 61.4165 92.9208C61.6013 94.15 61.6006 95.4072 61.4139 96.6365C61.4096 96.6654 61.405 96.6943 61.4006 96.7236ZM68.0128 86.7288C68.5776 87.1611 69.1308 87.5844 69.8087 87.506C70.6701 87.4065 71.2069 86.5196 71.4571 85.6892C71.5119 85.5076 71.5606 85.3216 71.6094 85.1352C71.7837 84.4699 71.9594 83.7993 72.4157 83.2989C72.5483 83.1533 72.7393 83.018 72.9278 83.0751C73.0803 83.1212 73.1693 83.2757 73.2402 83.4186C73.3406 83.6211 73.4358 83.8268 73.5308 84.0328C73.7988 84.6137 74.0672 85.1946 74.4566 85.6991C74.9838 86.3827 75.8046 86.9203 76.6628 86.8263C77.4301 86.7421 78.0298 86.1988 78.6142 85.6691C78.7339 85.5603 78.8531 85.4523 78.9731 85.3491C80.3807 84.1353 82.214 83.425 84.0721 83.3739C83.8214 84.0002 83.9886 84.6834 84.1526 85.3537C84.192 85.5152 84.2312 85.6759 84.2645 85.8349C84.5268 87.0889 84.3943 88.4224 83.8902 89.6003L71.4801 90.5557C68.5829 90.7788 65.6784 91.002 62.7746 90.8999C62.5911 90.8933 62.403 90.8846 62.2343 90.8123C61.9155 90.6761 61.7261 90.3358 61.6575 89.9959C61.5036 89.234 61.8549 88.4403 62.3872 87.8736C62.9193 87.307 63.6142 86.9253 64.2967 86.5531C65.0069 86.166 65.7953 85.7656 66.5872 85.931C67.1142 86.041 67.5672 86.3876 68.0128 86.7288ZM91.5128 104.806C89.6327 104.768 88.0038 103.234 87.4456 101.438C87.3316 101.072 87.5687 100.669 87.8955 100.468C88.2225 100.267 88.6181 100.219 88.9998 100.176L91.7543 99.8669C90.9168 98.2386 90.32 96.4865 89.9898 94.6853C89.96 94.522 89.9327 94.3502 89.9843 94.1925C90.0749 93.9152 90.3737 93.7693 90.65 93.6765C92.8883 92.9242 95.5757 93.8374 96.8918 95.7978C98.2079 97.7581 98.0355 100.592 96.4907 102.377C95.822 103.151 94.9454 103.721 94.0224 104.16C93.2351 104.535 92.3845 104.824 91.5128 104.806ZM100.434 95.1281C100.769 96.2328 100.865 97.3949 100.912 98.5482C100.16 98.4344 99.4016 98.3698 98.6418 98.3551C98.4932 96.4152 97.2023 94.6626 95.5048 93.7118C93.8075 92.761 91.7586 92.5555 89.8407 92.8811C89.8244 92.6075 89.7744 92.3222 89.7247 92.037C89.593 91.284 89.4616 90.5312 89.9485 89.9966C90.2425 89.6737 90.6904 89.5446 91.1197 89.4645C93.0752 89.1003 95.1603 89.4819 96.8599 90.5153C98.5595 91.5489 99.858 93.2244 100.434 95.1281ZM86.6456 101.242C86.6427 101.278 86.6397 101.313 86.6381 101.347C86.6252 101.615 86.7502 101.861 86.8738 102.104C86.9071 102.17 86.9401 102.235 86.9704 102.3C87.1137 102.609 87.1832 103.015 86.9436 103.257C86.364 103.842 85.8519 104.494 85.4205 105.195C85.3139 105.369 85.0513 105.383 84.8759 105.279C84.7004 105.176 84.5917 104.991 84.4904 104.815C83.8492 103.697 83.1919 102.527 83.1119 101.241C83.102 101.081 83.1196 100.887 83.2614 100.813C83.324 100.78 83.3976 100.779 83.4682 100.779L86.336 100.77C86.4044 100.77 86.4766 100.771 86.536 100.804C86.6768 100.884 86.6608 101.07 86.6456 101.242Z" fill="black"/>
</g>
<defs>
<clipPath id="clip0_28_4390">
<rect width="172" height="172" fill="white"/>
</clipPath>
</defs>
</svg>
