<svg width="172" height="172" viewBox="0 0 172 172" fill="none" xmlns="http://www.w3.org/2000/svg">
<g clip-path="url(#clip0_28_4574)">
<path d="M172 0H0V172H172V0Z" fill="white"/>
<path fill-rule="evenodd" clip-rule="evenodd" d="M110.748 36.6823C125.547 33.3696 139.259 37.3001 146.628 48.5271C153.997 59.7539 152.07 77.569 150.473 85.4326C148.877 93.2962 144.827 100.499 139.801 106.752C130.466 118.366 117.851 127.253 103.747 132.051C89.6444 136.848 74.3323 137.832 59.6352 135.405C51.3907 134.043 25.6012 127.374 20.0342 107.245C14.4672 87.1173 10.944 69.9141 22.9994 62.9261C35.0548 55.9378 43.4053 61.1939 49.3732 63.7785C77.2554 75.8536 95.9485 39.9953 110.748 36.6823Z" fill="#0E9384"/>
<path fill-rule="evenodd" clip-rule="evenodd" d="M131.587 55.5356C133.962 55.3521 136.521 55.4707 138.455 56.8588C140.39 58.247 141.269 61.2953 139.68 63.069C141.476 62.3667 143.587 63.5577 144.487 65.2634C145.386 66.969 145.339 69.0126 145.069 70.922C144.398 75.6504 142.471 80.1949 139.537 83.9631C139.402 84.3603 139.267 84.7577 139.132 85.1549C142.6 86.0488 156.141 91.3077 152.483 104.272C148.824 117.236 132.845 122.17 131.21 123.722C128.359 126.427 124.008 126.611 120.08 126.487C110.423 126.18 100.796 124.953 91.3711 122.827C90.5698 122.646 89.5548 122.536 89.0929 123.216C85.7495 128.131 78.7583 128.57 72.8291 128.143C65.2127 127.593 57.6401 126.438 50.2065 124.692C45.99 123.701 41.5122 122.322 38.8855 118.878C35.8232 114.863 36.1768 109.297 36.6738 104.272C34.6609 105.391 31.3225 105.997 26.6588 106.09C23.9127 105.53 22.2 104.535 21.5202 103.104C18.4117 96.5615 17.3458 88.1307 21.2167 81.6819C21.6817 80.9072 22.2182 80.1437 22.9755 79.6509C23.7781 79.1282 24.7567 78.9565 25.7109 78.8719C29.4743 78.5386 33.3356 79.417 36.5843 81.3457C36.5554 70.7865 36.5263 60.2273 36.4974 49.6681C36.4958 49.0633 36.5041 48.4217 36.8265 47.91C37.2927 47.1702 38.2479 46.9409 39.1077 46.7803C46.9286 45.3204 54.8381 44.3356 62.7781 43.8336C65.3725 43.6696 68.9229 44.3916 68.9348 46.9911C68.98 56.9462 69.0251 66.9013 69.0705 76.8565C69.0813 79.2259 69.2336 79.0278 70.3436 78.3412C69.6457 78.4136 69.8014 77.23 70.3303 76.7689C72.3046 75.0479 75.1814 74.9847 77.8003 75.0113C83.6584 75.0713 89.5163 75.1312 95.3744 75.1913C101.05 75.2493 107.857 75.9692 110.427 81.0303C110.352 79.5261 111.715 78.1068 113.221 78.1206C114.864 78.1357 116.237 76.7108 116.717 75.1399C117.196 73.569 116.984 71.8811 116.769 70.2528C114.121 67.6886 113.427 63.3297 115.149 60.0704C116.871 56.8111 120.863 54.9272 124.474 55.6697C126.806 56.1493 129.214 55.7188 131.587 55.5356ZM63.614 104.368C63.536 106.464 63.4535 108.588 62.8366 110.593L63.614 104.368ZM61.187 78.6453C61.7321 78.8049 62.4068 79.2883 62.1206 79.7789C64.4891 80.0155 63.7819 79.9059 63.8883 77.1149C63.9965 74.2827 64.0055 71.1511 62.1513 69.0075C60.5107 67.1107 57.8348 66.5174 55.336 66.3042C52.4196 66.0551 49.4715 66.1748 46.5846 66.6594C45.1761 66.8958 43.6503 67.3031 42.833 68.4743C42.3755 69.13 42.2071 69.9395 42.0727 70.7275C41.5441 73.827 41.379 76.9883 41.582 80.1261C47.6542 77.3009 54.759 76.7643 61.187 78.6453ZM113.886 99.4538C114.034 99.3038 114.259 99.2674 114.468 99.2387C115.303 99.1238 116.137 99.0092 116.972 98.8943C115.056 98.0294 113.896 95.9746 113.549 93.9021C113.202 91.8296 113.541 89.7106 113.883 87.6372C112.658 89.0004 112.746 91.0572 112.907 92.883C113.258 96.8791 113.738 99.6038 113.886 99.4538ZM98.1301 119.137C98.2943 118.603 98.8529 118.316 99.262 117.936C99.9984 117.252 100.272 116.217 100.512 115.241C101.342 111.868 102.177 108.454 102.167 104.98C102.165 104.244 102.127 103.488 102.371 102.793C102.615 102.099 103.225 101.471 103.961 101.467C104.737 101.463 104.923 100.387 104.853 99.6139C104.614 96.9488 104.375 94.2835 104.136 91.6184C104.059 90.7671 103.981 89.9081 103.723 89.0932C102.768 86.0814 99.0873 84.26 96.1135 85.328C95.7493 85.4588 95.6521 85.9186 95.6108 86.3032C95.1531 90.5662 94.6953 94.8293 94.2376 99.0924C94.1562 99.8497 95.1343 100.333 95.8725 100.146C96.6109 99.9579 97.1747 99.3811 97.8129 98.9654C98.4513 98.5498 99.3512 98.3106 99.9374 98.797C100.6 99.347 101.581 98.736 102.156 98.0957C102.732 97.4554 103.481 96.6835 104.3 96.9507C103.34 97.8689 102.38 98.7874 101.419 99.7056C101.101 100.01 100.82 100.619 101.223 100.798C102.326 100.407 103.323 99.7215 104.083 98.8316C104.435 98.8204 104.451 99.3724 104.255 99.6644C103.516 100.764 101.776 101.009 101.328 102.257C100.283 105.168 97.0221 107.102 93.966 106.623C93.3391 106.525 93.0267 107.35 92.9512 107.98C92.6504 110.492 92.3495 113.004 92.0486 115.516C91.9796 116.094 91.9149 116.705 92.1527 117.236C92.5499 118.122 93.6117 118.458 94.5531 118.696C95.7975 119.012 97.0563 119.328 98.3282 119.466C98.8637 119.524 98.8616 119.328 98.1301 119.137ZM48.5541 114.531C50.3322 115.127 52.2141 115.329 54.0788 115.526C54.8695 115.611 55.7116 115.686 56.421 115.326C57.256 114.904 57.7009 113.987 58.06 113.123C60.0628 108.302 61.2062 103.126 61.4204 97.9104C61.4509 97.1694 60.5022 96.8422 59.7621 96.7924C53.854 96.3959 48.2037 98.9931 42.8529 101.529C42.5965 101.651 42.322 101.79 42.1954 102.043C42.1009 102.233 42.1058 102.454 42.1129 102.666C42.2087 105.547 42.3296 108.532 43.6182 111.111C43.9663 111.807 44.409 112.477 45.0357 112.94C45.4153 113.219 45.8499 113.414 46.2808 113.605C47.0284 113.938 47.7779 114.271 48.5541 114.531ZM86.7742 103.867C87.5617 99.6322 88.1167 95.3538 88.4359 91.0579C88.5451 89.5881 88.6249 88.0943 88.3073 86.6552C87.9896 85.2161 87.2232 83.8172 85.9701 83.0416C85.1979 82.5637 84.2939 82.3492 83.4 82.1898C81.7687 81.8988 80.109 81.7667 78.4521 81.7961C76.9901 81.822 75.4554 82.0002 74.262 82.8451C73.8673 83.1244 73.5088 83.4902 73.3646 83.9518C73.2203 84.4132 73.3419 84.9804 73.7423 85.2514C74.7541 85.9369 75.1667 87.2191 75.3563 88.4266C75.546 89.6338 75.5916 90.8981 76.1418 91.9895C76.4255 92.5523 76.8323 93.0433 77.2591 93.5072C79.5724 96.0225 82.59 97.8834 85.8761 98.8211C86.4538 98.986 87.1888 99.3428 87.0668 99.9311C88.884 101.078 86.7439 104.03 86.7742 103.867ZM81.7655 116.359C82.4345 115.952 82.8883 115.276 83.2878 114.602C84.9824 111.745 86.0937 108.543 86.5336 105.25C80.4379 105.222 74.3785 102.923 69.7996 98.8984C69.643 99.5274 69.673 100.186 69.6943 100.833C69.828 104.878 69.5879 108.934 68.9784 112.935C68.8332 113.888 69.4028 114.842 70.186 115.405C70.9692 115.968 71.934 116.21 72.8811 116.393C75.0165 116.804 77.1986 116.973 79.3717 116.894C80.198 116.864 81.0587 116.788 81.7655 116.359ZM120.231 81.4739C119.876 80.6175 119.609 79.652 118.872 79.0899C118.135 78.5276 116.747 78.8028 116.704 79.7289C117.433 79.5945 117.991 80.4951 117.867 81.2264C117.742 81.9578 117.211 82.5391 116.788 83.1489C116.204 83.9915 115.805 84.9455 115.411 85.8913C114.471 88.1417 114.105 90.6291 114.357 93.0547C114.506 94.4828 114.897 95.9498 115.863 97.0123C116.828 98.0749 118.484 98.6062 119.756 97.9411C120.849 97.3699 121.394 96.1106 121.645 94.9032C121.895 93.6957 121.94 92.4319 122.413 91.2932C123.287 89.1925 125.441 87.9236 127.572 87.1269C124.369 86.6917 121.47 84.4598 120.231 81.4739ZM111.373 83.7461C111.516 84.2967 111.713 84.8331 111.961 85.345C112.11 84.6238 112.349 83.9213 112.671 83.259C112.345 83.2218 112.017 83.2042 111.69 83.206C111.61 83.2065 111.526 83.2095 111.458 83.2521C111.307 83.3482 111.328 83.5725 111.373 83.7461ZM72.761 83.1792C72.5594 83.3416 72.441 83.6911 72.6539 83.8383C72.98 83.5117 73.3061 83.1852 73.6322 82.8588C73.5648 82.7751 73.4669 82.7169 73.3611 82.6976C73.2318 82.9219 72.9628 83.0171 72.761 83.1792Z" fill="white"/>
<path d="M129.229 80.84C129.926 80.84 130.491 80.2754 130.491 79.5787C130.491 78.882 129.926 78.3174 129.229 78.3174C128.533 78.3174 127.968 78.882 127.968 79.5787C127.968 80.2754 128.533 80.84 129.229 80.84Z" fill="black"/>
<path d="M122.005 79.5786C122.385 79.5786 122.693 79.2706 122.693 78.8906C122.693 78.5106 122.385 78.2026 122.005 78.2026C121.625 78.2026 121.317 78.5106 121.317 78.8906C121.317 79.2706 121.625 79.5786 122.005 79.5786Z" fill="black"/>
<path fill-rule="evenodd" clip-rule="evenodd" d="M56.8577 61.4792C58.9217 61.4923 60.9854 61.5054 63.0494 61.5184C63.1462 61.5191 63.2499 61.5219 63.3278 61.579C63.487 61.6959 63.4235 61.9698 63.2595 62.0798C63.0958 62.1899 62.8832 62.1853 62.6857 62.1785C60.8694 62.1154 59.0476 62.2099 57.2475 62.4601C56.9737 62.4981 56.685 62.538 56.4288 62.4342C56.1729 62.33 55.977 62.0234 56.0949 61.7734C56.218 61.5122 56.5689 61.4774 56.8577 61.4792ZM49.9556 61.2765C50.0864 61.4067 50.0237 61.6462 49.8784 61.7601C49.7332 61.8741 49.5385 61.8968 49.3548 61.9154C47.5249 62.1007 45.6951 62.286 43.8655 62.4713C43.649 62.4933 43.4251 62.5144 43.2183 62.4477C43.0112 62.3812 42.8238 62.2021 42.819 61.9847C42.814 61.7604 43.0043 61.5698 43.2171 61.4983C43.4297 61.4267 43.6607 61.4466 43.8845 61.4643C45.7593 61.6118 47.6524 61.5267 49.5064 61.2118C49.6619 61.1852 49.844 61.1653 49.9556 61.2765ZM49.6992 57.764C49.8359 57.8743 49.7873 58.1108 49.6502 58.2206C49.513 58.3305 49.3263 58.3486 49.1511 58.3623L43.2747 58.8261C43.0548 58.8433 42.8268 58.8598 42.6195 58.7848C42.4119 58.7096 42.2299 58.5162 42.2418 58.2958C42.2539 58.0727 42.4601 57.8995 42.6773 57.8468C42.8945 57.7941 43.122 57.8335 43.343 57.8663C45.3376 58.161 47.3655 57.8922 49.3734 57.7097C49.486 57.6993 49.6112 57.6929 49.6992 57.764ZM57.9062 56.5997C59.1322 56.7563 60.3752 56.7802 61.6065 56.6708C62.0961 56.6272 62.6878 56.6068 62.9657 57.0118C62.6357 57.2787 62.1821 57.3166 61.7585 57.3434C60.3543 57.4317 58.9503 57.5202 57.5463 57.6088C57.226 57.6289 56.8267 57.6046 56.6948 57.3122C56.5765 57.0496 56.7847 56.7338 57.0524 56.6277C57.32 56.5213 57.6204 56.5632 57.9062 56.5997ZM47.3135 55.0987C47.3149 55.3106 47.0491 55.4021 46.8392 55.4331L43.7535 55.8853C43.5332 55.9177 43.3057 55.9495 43.0905 55.892C42.8754 55.8346 42.6743 55.6635 42.6544 55.4418C42.6296 55.1705 42.8844 54.9414 43.1504 54.8822C43.4164 54.823 43.6921 54.885 43.9625 54.9198C44.8945 55.0398 45.8347 54.835 46.7741 54.8026C47.0039 54.7948 47.3117 54.8687 47.3135 55.0987ZM62.203 54.36C62.4419 54.3866 62.6869 54.529 62.7506 54.7607C62.3266 55.0815 61.7661 55.1398 61.2365 55.1868C60.3302 55.267 59.4237 55.3473 58.5173 55.4278C58.1979 55.456 57.8786 55.4844 57.5594 55.5126C57.326 55.5333 57.0831 55.5528 56.8636 55.47C56.6444 55.3872 56.457 55.1696 56.4898 54.9375C56.5412 54.5717 57.0214 54.4767 57.3906 54.4845C58.7609 54.5141 60.1481 54.721 61.4906 54.4451C61.7259 54.3967 61.9642 54.3332 62.203 54.36ZM63.4067 50.8998C56.6902 51.8055 49.804 51.3365 43.18 52.7694C42.7871 52.8542 42.2388 52.8586 42.1372 52.4696C42.1464 52.0114 42.739 51.8461 43.196 51.8135C49.6401 51.3539 56.0839 50.8943 62.5277 50.4348C62.9059 50.4077 63.4363 50.5221 63.4067 50.8998Z" fill="#E7EAEE"/>
<path fill-rule="evenodd" clip-rule="evenodd" d="M39.7806 120.521C39.8508 121.334 38.7307 121.609 37.915 121.612C33.6762 121.629 29.4416 122.415 25.4794 123.921C24.8746 124.151 24.2275 124.441 23.9332 125.017C23.5434 125.779 23.9688 126.756 24.6581 127.264C25.3477 127.772 26.2277 127.927 27.0733 128.065C49.0496 131.644 71.3527 133.212 93.6136 132.745L93.9716 132.737C96.539 132.678 99.1591 132.54 101.511 131.523C99.5641 130.158 97.6171 128.794 95.6698 127.429C99.0406 126.756 102.518 127.235 105.939 127.573C113.768 128.346 121.671 128.362 129.503 127.62C128.952 128.501 127.739 128.623 126.7 128.646C116.849 128.858 106.985 128.508 97.1733 127.598C98.4535 128.44 99.7336 129.283 101.014 130.125C101.478 130.431 101.991 130.818 102.018 131.373C102.058 132.207 101.034 132.622 100.21 132.759C97.4781 133.21 94.6986 133.282 91.9296 133.322C70.3037 133.638 48.651 132.091 27.29 128.703C26.2477 128.537 25.1677 128.353 24.2985 127.754C23.4294 127.155 22.837 126.017 23.2021 125.027C23.5654 124.042 24.6708 123.58 25.6686 123.254C30.2348 121.762 34.9875 120.842 39.7806 120.521ZM68.9348 46.9911C68.98 56.9462 69.0252 66.9013 69.0706 76.8565C69.0814 79.2259 69.5481 82.2242 71.8396 82.8276C75.0058 81.3661 78.5746 80.7886 82.0403 81.1773C84.0243 81.3998 86.0844 81.9995 87.4276 83.4766C89.2698 85.5026 89.2726 88.5541 89.0749 91.2854C88.674 96.8218 87.8842 102.33 86.7134 107.756C87.6436 107.697 88.5924 108.071 89.2331 108.747C88.2461 109.199 87.0703 109.218 86.0692 108.798C86.7568 112.525 83.7206 116.202 80.0846 117.269C76.4485 118.337 72.5028 117.33 69.0837 115.696C68.7628 116.945 70.4335 117.678 71.7089 117.867C74.9466 118.346 78.1841 118.824 81.4218 119.303C77.4234 119.423 73.4119 119.096 69.4859 118.329C68.7628 119.353 70.4001 120.386 71.6373 120.587C74.9188 121.118 78.2006 121.649 81.4823 122.18C77.7756 122.155 74.0705 121.908 70.3936 121.44C72.7321 123.55 75.9242 124.684 79.0695 124.523C77.2952 125.106 75.3241 125.071 73.5717 124.425C75.7639 127.361 80.249 127.904 83.5241 126.262C86.7994 124.62 88.938 121.261 89.9842 117.75C91.0304 114.238 91.132 110.527 91.3173 106.868C91.6595 100.114 92.3135 93.3685 93.4967 86.7095C94.2936 82.2256 96.2507 76.8789 100.761 76.2453C92.7259 75.8749 84.6832 75.6754 76.64 75.6463C74.1957 75.6376 71.1598 76.0373 70.3436 78.3412C69.6458 78.4136 69.8015 77.2301 70.3303 76.7689C72.3047 75.0479 75.1814 74.9847 77.8004 75.0113L95.3745 75.1913C101.05 75.2493 107.857 75.9692 110.427 81.0303C110.352 79.5261 111.715 78.1068 113.221 78.1206C114.864 78.1357 116.237 76.7108 116.717 75.1399C117.196 73.569 116.985 71.8811 116.769 70.2528C114.121 67.6886 113.427 63.3297 115.149 60.0704C115.637 59.1485 116.356 56.9503 120.375 55.5356C123.055 54.5923 125.703 54.696 128.321 55.8466C133.237 54.896 136.615 55.2335 138.455 56.8588C141.216 59.2971 141.269 61.2953 139.68 63.069C141.476 62.3667 143.587 63.5577 144.487 65.2634C145.386 66.969 145.339 69.0126 145.069 70.922C144.398 75.6504 142.471 80.1949 139.537 83.9631L139.132 85.1549C146.23 86.9845 151.971 93.2575 153.166 100.489C150.807 95.1701 147.613 89.5377 142.109 87.6496C140.868 88.9522 139.591 90.3115 139.007 92.014C138.424 93.7166 138.739 95.8677 140.218 96.8936C139.289 97.1087 138.36 97.324 137.432 97.5394C137.741 98.0877 138.05 98.636 138.359 99.1844C134.85 101.852 134.446 106.899 134.467 111.307C134.488 115.716 134.408 120.688 131.21 123.722C128.359 126.427 124.008 126.611 120.08 126.487C110.423 126.18 100.796 124.953 91.3712 122.827C90.5699 122.646 89.5549 122.536 89.093 123.216C85.7498 128.131 78.7583 128.57 72.8292 128.143C65.2128 127.593 57.6404 126.438 50.2066 124.692C45.99 123.701 41.5123 122.322 38.8855 118.878C35.8232 114.863 36.1769 109.297 36.6738 104.272C33.6547 105.951 30.0755 106.6 26.6588 106.09C30.2603 103.736 32.0067 99.2314 32.0395 94.9286C32.0723 90.6261 30.6362 86.4555 29.0382 82.4605C25.5177 84.5024 23.6654 88.8066 23.941 92.8671C24.2164 96.9275 26.3708 100.696 29.2613 103.561C25.6979 101.313 23.3402 97.2614 23.145 93.0525C22.9498 88.8433 24.9228 84.5914 28.2626 82.0224C27.7289 80.1974 24.9755 79.9743 23.5323 81.2127C22.0893 82.4508 21.6364 84.4607 21.2652 86.3259C20.5793 89.7718 19.8905 93.2983 20.3889 96.7764C20.8873 100.254 22.8085 103.736 26.028 105.143C24.5235 106.228 22.5195 104.667 21.5203 103.104C17.4682 96.7674 17.3459 88.1307 21.2168 81.6819C21.6818 80.9072 22.2183 80.1437 22.9755 79.6509C23.7782 79.1283 24.7568 78.9565 25.711 78.8719C29.4744 78.5386 33.3357 79.417 36.5846 81.3457C36.5555 70.7865 36.5266 60.2273 36.4975 49.6681C36.4959 49.0633 36.5041 48.4217 36.8266 47.91C37.2928 47.1702 38.248 46.9409 39.1077 46.7803C46.9287 45.3204 54.8382 44.3356 62.7782 43.8336C65.3726 43.6696 68.9231 44.3916 68.9348 46.9911ZM63.632 44.4698C55.2136 44.8661 46.8257 45.9068 38.5658 47.5798C38.2143 47.6509 37.8421 47.7341 37.5866 47.9857C37.2385 48.3286 37.2116 48.8718 37.207 49.3603C37.1084 59.8746 37.1502 70.39 37.332 80.9028C38.3429 80.6508 39.3538 80.3988 40.3645 80.1467C39.9694 77.9896 39.5726 75.8031 39.7416 73.6165C39.9104 71.4298 40.7129 69.2061 42.3634 67.7618C44.1496 66.1987 46.6425 65.757 49.0104 65.5907C51.2872 65.4309 53.578 65.468 55.8486 65.7012C58.1665 65.9395 60.6082 66.4544 62.2803 68.0769C64.6958 70.4209 64.7351 74.2182 64.6098 77.5816C64.278 86.5105 63.9459 95.4393 63.6141 104.368C63.5361 106.464 63.4535 108.588 62.8366 110.593C62.22 112.597 60.9955 114.502 59.1432 115.486C57.3255 116.452 55.1505 116.424 53.1056 116.192C51.1533 115.97 49.2197 115.583 47.3323 115.036C46.1859 114.704 45.0388 114.304 44.0643 113.615C40.8404 111.333 40.4592 106.78 40.3808 102.831C39.1428 102.608 37.9326 103.55 37.4215 104.7C36.9105 105.849 36.933 107.155 36.9649 108.413C37.044 111.55 37.1662 114.843 38.7676 117.542C41.2385 121.705 46.4281 123.244 51.1666 124.238C59.5769 126.003 68.1159 127.153 76.6934 127.678C72.8654 125.729 69.4715 122.392 68.6642 118.172C68.4448 117.026 68.4214 115.853 68.3984 114.686C67.9515 91.8721 67.5045 69.0584 67.0575 46.2446C67.0293 44.8019 65.0733 44.4019 63.632 44.4698ZM96.2654 81.9257C96.0526 82.4451 95.8978 83.0212 96.0395 83.5642C96.1812 84.1073 96.7089 84.5816 97.2625 84.4894C99.7423 84.0763 102.415 85.2978 103.726 87.4427C104.808 89.2127 104.958 91.3781 105.08 93.4487L106.189 112.31C106.307 114.326 106.366 116.544 105.113 118.127C103.488 120.182 100.436 120.25 97.8285 119.995C95.6774 119.785 93.4143 119.427 91.7441 118.055C91.8033 118.854 91.5705 119.671 91.0992 120.318C90.5176 121.117 91.4565 122.169 92.3699 122.547C93.4854 123.009 94.6986 123.169 95.896 123.325C101.38 124.037 106.867 124.723 112.357 125.384C116.583 125.893 120.876 126.385 125.077 125.702C122.419 124.957 119.876 123.804 117.563 122.297C116.409 121.545 115.294 120.686 114.507 119.556C113.222 117.711 112.951 115.367 112.738 113.129C112.102 106.474 111.629 99.8036 111.319 93.1256C111.09 88.2002 109.511 83.3441 106.798 79.2264C106.313 78.49 105.72 77.7261 104.862 77.5211C101.453 76.706 97.5958 78.6824 96.2654 81.9257ZM80.6318 124.55C80.9209 124.599 81.2177 124.663 81.4562 124.834C81.6945 125.005 81.8608 125.309 81.7874 125.593C81.714 125.877 81.339 126.064 81.1023 125.891C80.8409 125.7 80.4932 125.693 80.1818 125.605C79.8704 125.517 79.5438 125.258 79.5998 124.939C79.6708 124.535 80.2272 124.481 80.6318 124.55ZM68.6243 124.669C68.983 124.744 69.4031 125 69.3295 125.359C69.2649 125.676 68.8731 125.781 68.5528 125.824C68.1936 125.872 67.8104 125.916 67.4843 125.758C67.1584 125.6 66.947 125.155 67.1607 124.863C67.305 124.666 67.5749 124.613 67.8191 124.603C68.0888 124.592 68.3599 124.614 68.6243 124.669ZM90.0918 120.679C89.7512 120.924 89.5173 121.286 89.2769 121.631C88.1814 123.2 86.7928 124.565 85.2044 125.632C85.2441 125.801 85.4966 125.758 85.6464 125.672C87.4856 124.606 88.7983 122.845 90.058 121.133C90.161 120.993 90.2461 120.759 90.0918 120.679ZM106.539 78.2763C107.52 79.4351 108.509 80.6049 109.227 81.9429C110.005 83.3936 110.443 85.001 110.795 86.6091C112.764 95.6054 112.238 104.958 113.514 114.079C113.745 115.724 114.049 117.405 114.906 118.829C115.909 120.497 117.573 121.654 119.27 122.61C120.641 123.382 122.073 124.061 123.579 124.519C125.975 125.247 128.853 125.298 130.689 123.596C131.72 122.64 132.263 121.277 132.687 119.936C134.503 114.19 134.702 107.942 133.257 102.092C133.293 105.591 133.748 109.082 133.644 112.579C133.54 116.077 132.822 119.679 130.766 122.51C130.358 123.071 129.886 123.609 129.271 123.928C128.46 124.348 127.497 124.34 126.591 124.229C125.008 124.036 123.46 123.558 122.045 122.825C120.969 122.267 119.974 121.567 119.01 120.834C117.889 119.982 116.789 119.064 116.004 117.895C115.226 116.737 114.792 115.384 114.448 114.032C111.935 104.157 113.732 93.5058 110.751 83.7626C110.048 81.4663 108.828 79.0028 106.539 78.2763ZM46.6033 121.717C52.4029 122.612 58.2027 123.507 64.0023 124.403C63.8556 124.786 63.3253 124.8 62.918 124.745C57.958 124.083 52.998 123.42 48.038 122.757C47.4773 122.683 46.9165 122.608 46.3556 122.533C46.0896 122.497 45.7591 122.401 45.7254 122.134C45.6779 121.759 46.2292 121.659 46.6033 121.717ZM113.883 87.6372C112.658 89.0004 112.746 91.0573 112.907 92.883C113.258 96.8791 113.609 100.875 113.96 104.871C113.977 105.059 113.997 105.256 114.106 105.408C114.286 105.657 114.633 105.7 114.939 105.722C119.109 106.016 123.278 106.309 127.448 106.603C127.136 107.096 126.434 107.103 125.852 107.059C121.927 106.756 117.985 106.657 114.049 106.765C113.981 108.783 114.279 110.813 114.923 112.727C115.202 113.557 116.277 113.733 117.152 113.769C120.487 113.904 123.822 114.039 127.158 114.174C127.311 114.519 126.772 114.735 126.394 114.731C122.966 114.691 119.537 114.652 116.109 114.613C115.639 114.607 115.47 115.272 115.647 115.707C116.109 116.844 117.581 117.089 118.806 117.166L126.471 117.646C126.646 117.657 126.683 117.932 126.555 118.052C126.427 118.172 126.232 118.175 126.057 118.171L117.083 117.981C119.403 120.743 122.658 122.705 126.183 123.468C126.943 123.632 127.748 123.74 128.486 123.497C129.369 123.205 130.021 122.455 130.53 121.678C133.234 117.552 133.054 112.245 132.778 107.32L132.465 101.738C132.574 101.588 132.799 101.535 132.963 101.623C133.027 101.349 132.671 101.186 132.395 101.136C126.295 100.015 120.035 98.8931 113.931 99.9875C113.736 99.9075 113.738 99.6038 113.886 99.4538C114.034 99.3039 114.259 99.2674 114.468 99.2387C115.303 99.1238 116.137 99.0092 116.972 98.8943C115.057 98.0294 113.896 95.9746 113.549 93.9021C113.202 91.8296 113.541 89.7106 113.883 87.6372ZM83.903 121.57C84.4463 121.671 85.0737 121.837 85.2856 122.348C84.6809 122.76 83.8865 122.718 83.1567 122.66C82.956 122.644 82.7366 122.619 82.5955 122.475C82.346 122.221 82.5322 121.752 82.8533 121.598C83.1744 121.443 83.5528 121.505 83.903 121.57ZM42.5239 117.842C48.7725 119.805 55.2478 121.046 61.7794 121.533C62.286 121.571 62.9671 121.812 62.8697 122.311C55.9619 121.53 49.0961 120.375 42.3127 118.854C41.8799 118.757 41.3245 118.448 41.4857 118.035C41.6274 117.672 42.1521 117.725 42.5239 117.842ZM65.4109 120.872C65.7299 120.871 66.0379 120.981 66.336 121.094C66.4879 121.152 66.6548 121.226 66.7135 121.377C66.839 121.7 66.3943 121.93 66.054 121.992C65.8249 122.034 65.5957 122.075 65.3666 122.117C65.1735 122.152 64.9655 122.185 64.7876 122.102C64.4986 121.967 64.4236 121.55 64.5894 121.277C64.755 121.004 65.0917 120.873 65.4109 120.872ZM94.8351 120.183C97.599 120.709 100.43 120.739 103.244 120.767C103.461 120.769 103.52 121.112 103.364 121.264C103.209 121.416 102.966 121.423 102.748 121.419C100.122 121.367 97.4926 121.09 94.8738 121.297C94.5888 121.319 94.2927 121.346 94.0251 121.246C93.7572 121.145 93.529 120.875 93.5799 120.594C93.6237 120.351 93.8602 120.181 94.1021 120.134C94.3441 120.087 94.5929 120.137 94.8351 120.183ZM101.079 76.8535C97.9499 77.3209 95.3205 80.1061 95.0346 83.2574C94.7672 86.2007 93.9549 89.0627 93.3765 91.9608C91.5196 101.268 92.0828 110.913 90.441 120.26C91.0407 119.168 91.2024 117.897 91.3535 116.66L95.3348 84.0562C95.4407 83.1886 95.549 82.3112 95.8606 81.4945C96.7124 79.2631 98.9137 77.8612 101.079 76.8535ZM86.8501 119.081C87.0205 119.135 87.1953 119.206 87.3088 119.345C87.4225 119.483 87.451 119.706 87.3269 119.834C87.2331 119.932 87.0863 119.949 86.952 119.961C86.5121 120 86.0722 120.039 85.6324 120.078C85.3948 120.099 85.1496 120.119 84.9233 120.044C84.6969 119.969 84.4928 119.773 84.4864 119.534C84.4754 119.131 84.9733 118.928 85.3762 118.902C85.8729 118.869 86.3756 118.93 86.8501 119.081ZM96.1136 85.328C95.7494 85.4588 95.6522 85.9186 95.6109 86.3032L94.2376 99.0924C94.1562 99.8497 95.1343 100.333 95.8728 100.146C96.611 99.9579 97.1747 99.3811 97.813 98.9654C98.4514 98.5498 99.3513 98.3106 99.9375 98.797C100.6 99.347 101.581 98.736 102.156 98.0957C102.732 97.4554 103.481 96.6835 104.3 96.9507C103.34 97.8689 102.38 98.7874 101.419 99.7056C101.101 100.01 100.82 100.619 101.223 100.798C102.326 100.407 103.323 99.7215 104.083 98.8316C104.435 98.8204 104.451 99.3724 104.255 99.6644C103.516 100.764 101.777 101.009 101.328 102.257C100.283 105.168 97.0222 107.102 93.9661 106.623C93.3393 106.525 93.0268 107.35 92.9513 107.98C92.6504 110.492 92.3495 113.004 92.0487 115.516C91.9796 116.094 91.915 116.705 92.1528 117.236C92.55 118.122 93.6118 118.458 94.5532 118.696C96.3216 119.144 98.1189 119.595 99.9421 119.531C101.765 119.467 103.65 118.815 104.805 117.402C104.485 116.987 103.773 117.52 103.307 117.279C102.852 117.044 103.094 116.262 103.583 116.108C104.072 115.954 104.588 116.199 105.042 116.436C105.327 115.88 105.621 115.284 105.562 114.661C105.503 114.039 104.932 113.423 104.322 113.563C103.921 113.655 103.758 112.961 104.081 112.706C104.404 112.452 104.868 112.535 105.268 112.63C105.29 111.127 105.313 109.624 105.335 108.121C105.339 107.814 105.34 107.492 105.195 107.222C105.049 106.952 104.705 106.763 104.428 106.896C104.052 107.078 103.725 106.436 103.977 106.103C104.229 105.769 104.705 105.726 105.123 105.711C105.155 104.377 105.069 103.039 104.865 101.72C103.292 102.508 103.017 104.588 102.859 106.34C102.554 109.701 101.942 113.033 101.032 116.283C100.828 117.011 100.599 117.755 100.123 118.342C99.6465 118.929 98.8617 119.328 98.1301 119.137C98.2943 118.603 98.853 118.316 99.2621 117.936C99.9985 117.252 100.272 116.217 100.512 115.241C101.342 111.868 102.177 108.454 102.167 104.98L102.165 104.747C102.16 104.085 102.153 103.414 102.371 102.793C102.615 102.099 103.225 101.471 103.961 101.467C104.737 101.463 104.923 100.387 104.853 99.6139C104.614 96.9488 104.375 94.2835 104.136 91.6184C104.059 90.7671 103.981 89.9081 103.723 89.0932C102.768 86.0814 99.0874 84.26 96.1136 85.328ZM107.824 117.833C108.188 117.931 108.543 118.305 108.391 118.651C108.246 118.982 107.792 119 107.433 118.966C107.257 118.949 107.07 118.928 106.933 118.817C106.692 118.623 106.726 118.21 106.951 117.998C107.177 117.787 107.525 117.752 107.824 117.833ZM63.9911 117.463C64.231 117.515 64.4812 117.585 64.6536 117.76C64.8261 117.934 64.8832 118.246 64.7117 118.422C64.5715 118.565 64.3457 118.568 64.1452 118.561C63.8569 118.551 63.5687 118.54 63.2804 118.53C63.1134 118.524 62.935 118.515 62.8009 118.415C62.5147 118.202 62.6401 117.703 62.9479 117.522C63.2554 117.341 63.6423 117.387 63.9911 117.463ZM41.7804 114.848C43.394 115.598 45.167 115.926 46.9202 116.231C50.4694 116.849 54.0293 117.406 57.5977 117.901C58.097 117.971 58.6502 118.069 58.9545 118.471C57.5725 118.565 56.1915 118.335 54.8256 118.106C50.3226 117.35 45.8196 116.594 41.3167 115.837C40.8447 115.758 40.2354 115.496 40.3273 115.026C40.4363 114.469 41.266 114.609 41.7804 114.848ZM69.7997 98.8984C69.643 99.5275 69.6731 100.186 69.6944 100.834C69.8281 104.878 69.588 108.934 68.9784 112.935C68.8332 113.888 69.4029 114.842 70.1861 115.405C70.9693 115.968 71.9341 116.21 72.8812 116.393C75.0165 116.804 77.1986 116.973 79.3718 116.894C80.1981 116.864 81.0588 116.788 81.7656 116.359C82.4348 115.952 82.8884 115.276 83.2879 114.602C84.9824 111.745 86.0938 108.543 86.5336 105.25C80.438 105.222 74.3785 102.923 69.7997 98.8984ZM85.7429 114.933C86.1591 115.071 86.5754 115.208 86.9914 115.345C87.1304 115.391 87.279 115.444 87.3613 115.565C87.5005 115.769 87.3654 116.068 87.1501 116.189C86.935 116.31 86.6735 116.303 86.4268 116.294C85.9775 116.276 85.4812 116.238 85.1675 115.916C84.854 115.593 84.9616 114.898 85.4101 114.869C85.5237 114.862 85.6349 114.898 85.7429 114.933ZM107.559 114.994C107.807 115.033 108.068 115.079 108.259 115.241C108.449 115.404 108.528 115.726 108.352 115.905C108.281 115.977 108.183 116.014 108.087 116.047C107.719 116.175 107.31 116.278 106.945 116.138C106.581 115.998 106.333 115.517 106.562 115.201C106.772 114.911 107.205 114.937 107.559 114.994ZM42.853 101.529C42.5966 101.651 42.3221 101.79 42.1955 102.043C42.101 102.233 42.1058 102.454 42.1129 102.666C42.2088 105.547 42.3297 108.532 43.6183 111.111C43.9664 111.807 44.409 112.477 45.0358 112.94C45.4153 113.219 45.8499 113.414 46.2808 113.605C47.0285 113.938 47.7779 114.271 48.5542 114.531C50.3322 115.127 52.2141 115.329 54.0789 115.526C54.8696 115.611 55.7117 115.686 56.421 115.326C57.256 114.904 57.701 113.987 58.0601 113.123C60.0629 108.302 61.2063 103.126 61.4205 97.9104C61.451 97.1694 60.5023 96.8422 59.7622 96.7924C53.8541 96.3959 48.2038 98.9931 42.853 101.529ZM62.3381 97.7015C62.1865 97.9008 62.1677 98.1675 62.1525 98.4175C61.7991 104.316 60.3312 110.145 57.8489 115.508C60.2138 114.311 61.9757 111.987 62.4897 109.386C62.6662 108.493 62.7022 107.578 62.738 106.667C62.8504 103.796 62.9628 100.925 63.0751 98.0538C63.0811 97.9024 63.0823 97.7359 62.9859 97.6189C62.8268 97.4256 62.4897 97.502 62.3381 97.7015ZM63.3176 112.068C63.6175 112.084 63.8996 112.209 64.1913 112.281C64.4525 112.346 64.5314 112.718 64.3856 112.944C64.2397 113.17 63.9585 113.269 63.6921 113.306C63.4136 113.345 63.1146 113.331 62.8752 113.183C62.636 113.036 62.4807 112.729 62.5761 112.464C62.6784 112.182 63.0174 112.051 63.3176 112.068ZM107.731 111.288C108.012 111.346 108.252 111.52 108.483 111.689C108.609 111.781 108.742 111.884 108.783 112.034C108.836 112.226 108.709 112.432 108.535 112.527C108.361 112.623 108.152 112.63 107.955 112.614C107.674 112.591 107.383 112.522 107.171 112.336C106.959 112.15 106.851 111.824 106.983 111.575C107.117 111.322 107.451 111.23 107.731 111.288ZM40.983 102.368C40.9064 102.505 40.9218 102.673 40.9397 102.829L41.3564 106.499C41.5827 108.491 41.879 110.638 43.2713 112.08C43.5034 111.97 43.3724 111.621 43.2261 111.41C42.0983 109.782 41.8811 107.713 41.6981 105.741C41.591 104.586 41.4836 103.43 41.3765 102.274C41.2688 102.161 41.0598 102.232 40.983 102.368ZM115.224 109.887C119.049 109.982 122.874 110.076 126.7 110.17C127.285 110.185 127.872 110.199 128.451 110.286C128.33 110.705 127.781 110.783 127.345 110.779C123.509 110.743 119.661 110.506 115.846 110.904C115.52 110.939 115.167 110.972 114.884 110.807C114.601 110.641 114.474 110.186 114.735 109.987C114.87 109.883 115.054 109.883 115.224 109.887ZM104.715 109.136C104.799 109.163 104.885 109.192 104.954 109.248C105.183 109.434 105.098 109.832 104.864 110.012C104.63 110.191 104.315 110.212 104.02 110.219C103.713 110.227 103.355 110.202 103.181 109.95C102.961 109.633 103.222 109.165 103.585 109.037C103.949 108.908 104.349 109.016 104.715 109.136ZM107.512 108.363C107.868 108.401 108.216 108.526 108.515 108.724C108.744 108.875 108.698 109.255 108.49 109.433C108.282 109.612 107.985 109.637 107.711 109.627C107.433 109.617 107.144 109.575 106.92 109.411C106.696 109.248 106.562 108.933 106.683 108.683C106.82 108.398 107.197 108.329 107.512 108.363ZM68.9784 99.6334C68.7702 102.636 68.6768 105.646 68.6986 108.655C68.6995 108.782 68.7862 108.963 68.8947 108.897C69.1252 106.367 69.2383 103.827 69.2334 101.287C69.2323 100.724 69.2211 100.141 68.9784 99.6334ZM64.8894 107.335C65.2176 107.36 65.507 107.55 65.7746 107.742C65.857 107.801 65.9418 107.864 65.9877 107.955C66.0831 108.141 65.9689 108.382 65.7895 108.492C65.6104 108.601 65.3887 108.61 65.1791 108.6C64.702 108.577 64.1023 108.318 64.1558 107.844C64.1925 107.516 64.5612 107.31 64.8894 107.335ZM108.306 105.313C108.626 105.444 108.954 105.786 108.789 106.089C108.678 106.295 108.405 106.339 108.172 106.341C107.9 106.344 107.629 106.322 107.361 106.275C106.985 106.21 106.928 105.618 107.22 105.372C107.512 105.126 107.953 105.168 108.306 105.313ZM145.527 99.4385C145.659 99.6589 145.661 99.9302 145.66 100.187C145.648 102.003 145.637 103.82 145.626 105.637C145.625 105.857 145.595 106.125 145.395 106.217C145.222 106.297 145.009 106.185 144.912 106.02C144.816 105.856 144.807 105.656 144.804 105.465C144.776 103.843 144.957 102.183 144.497 100.627C144.361 100.165 144.198 99.5878 144.555 99.2639C144.834 99.0108 145.334 99.1151 145.527 99.4385ZM98.8223 99.2279C97.4451 100.082 95.9966 100.961 94.3803 101.078C94.0863 101.099 93.9537 101.45 93.8957 101.739C93.6347 103.039 93.4907 104.363 93.4659 105.689C93.4643 105.771 93.4652 105.858 93.512 105.924C93.5866 106.029 93.7386 106.033 93.8673 106.027C95.1284 105.961 96.4064 105.829 97.5777 105.357C98.7489 104.885 99.8143 104.029 100.292 102.861C100.769 101.691 100.539 100.201 99.5646 99.3976C99.355 99.225 99.053 99.0848 98.8223 99.2279ZM88.28 104.342C88.7224 104.458 89.1648 104.574 89.6072 104.69C89.7725 104.734 89.9564 104.791 90.0356 104.943C90.1287 105.121 90.0202 105.351 89.8519 105.462C89.6833 105.572 89.4737 105.593 89.273 105.611C88.9552 105.639 88.6277 105.666 88.3224 105.572C88.0174 105.478 87.7363 105.232 87.7014 104.915C87.6666 104.598 87.9711 104.26 88.28 104.342ZM26.907 80.133C28.5628 80.8035 29.8092 82.2543 30.5823 83.8649C31.3551 85.4755 31.7072 87.2512 32.014 89.0111C32.5218 91.9241 32.9261 94.8974 32.5559 97.8308C32.1856 100.764 30.9593 103.69 28.6859 105.58C30.3419 105.669 32.3193 105.603 33.2182 104.21C33.6216 103.584 34.4901 103.308 35.1809 103.584C34.7465 103.208 35.0745 102.509 35.3969 102.034C36.7176 100.087 37.624 97.8496 37.9478 95.5194C38.5759 91.0011 36.997 86.4217 34.6543 82.5072C33.1343 79.9676 29.589 78.881 26.907 80.133ZM66.1682 103.539C66.5099 103.674 66.4303 104.238 66.1111 104.42C65.7916 104.601 65.3935 104.519 65.0378 104.429C64.8717 104.387 64.6956 104.337 64.5828 104.208C64.3197 103.907 64.6218 103.398 65.0114 103.308C65.4008 103.219 65.7962 103.393 66.1682 103.539ZM78.4522 81.7961C76.9902 81.822 75.4555 82.0002 74.262 82.8451C73.8673 83.1244 73.5089 83.4902 73.3646 83.9518C73.2206 84.4132 73.3419 84.9804 73.7424 85.2514C74.7542 85.9369 75.1667 87.2191 75.3564 88.4266C75.5461 89.6338 75.5917 90.8981 76.1419 91.9895C76.4256 92.5523 76.8324 93.0433 77.2592 93.5072C79.5725 96.0225 82.59 97.8834 85.8761 98.8211C86.4538 98.986 87.1889 99.3428 87.0668 99.9311C82.3389 98.9394 78.0277 96.0865 75.2672 92.1223C74.4283 94.6986 72.7737 97.0027 70.6003 98.6204C74.8397 102.228 80.3261 104.342 85.8901 104.511C86.1422 104.519 86.4275 104.509 86.5976 104.323C86.7091 104.201 86.7439 104.03 86.7742 103.867C87.5618 99.6323 88.1167 95.3538 88.436 91.0579C88.5451 89.5881 88.6252 88.0943 88.3073 86.6552C87.9897 85.2161 87.2233 83.8172 85.9702 83.0416C85.198 82.5637 84.294 82.3492 83.4 82.1898C81.7688 81.8988 80.1091 81.7667 78.4522 81.7961ZM107.502 102.407C107.885 102.408 108.369 102.52 108.436 102.897C108.503 103.273 108.075 103.553 107.696 103.602C107.418 103.637 107.117 103.604 106.897 103.431C106.677 103.259 106.575 102.921 106.728 102.687C106.884 102.447 107.215 102.407 107.502 102.407ZM135.826 94.8552C135.122 97.5806 134.711 100.372 134.302 103.157C134.282 103.296 134.27 103.46 134.374 103.553C135.471 102.19 136.477 100.755 137.384 99.2587C137.473 99.1112 137.561 98.9181 137.461 98.7775C137.234 98.4599 137.006 98.1423 136.779 97.8246C136.611 97.5891 136.437 97.2784 136.585 97.0295C136.706 96.827 136.976 96.7844 137.21 96.7626L139.137 96.5853C139.116 96.4659 139.044 96.3631 138.973 96.2647C138.457 95.5467 137.894 94.7917 137.068 94.4768C136.61 94.3023 135.948 94.3808 135.826 94.8552ZM46.5847 66.6594C45.1761 66.8958 43.6504 67.3031 42.833 68.4743C42.3755 69.13 42.2072 69.9395 42.0728 70.7275C41.5442 73.827 41.3791 76.9883 41.582 80.1261C47.6543 77.3009 54.7591 76.7643 61.187 78.6453C61.7322 78.8049 62.4069 79.2883 62.1207 79.7789C57.2989 77.9956 51.9282 77.7295 46.9539 79.0278C45.3442 79.4479 43.78 80.0256 42.1797 80.4795C39.801 81.1539 37.3446 81.5525 34.8749 81.6651C39.3729 87.772 39.9549 96.5165 36.306 103.166C38.5764 102.736 40.7094 101.782 42.8028 100.804C45.9279 99.3435 49.0397 97.8033 52.3595 96.8658C55.6794 95.9283 59.2689 95.6217 62.5619 96.6495C62.9472 96.7697 63.1593 96.2138 63.1747 95.8106L63.8884 77.1149C63.9966 74.2827 64.0056 71.1511 62.1514 69.0075C60.5107 67.1107 57.8351 66.5174 55.3363 66.3042C52.4196 66.0551 49.4715 66.1748 46.5847 66.6594ZM90.0892 101.36C90.1814 101.42 90.2766 101.496 90.2982 101.603C90.3417 101.823 90.0752 101.962 89.8604 102.023C89.5482 102.112 89.2265 102.2 88.9038 102.166C88.5809 102.132 88.2527 101.947 88.1465 101.64C88.0406 101.334 88.2536 100.931 88.5782 100.925C89.11 100.915 89.6439 101.069 90.0892 101.36ZM135.892 89.5953C134.717 90.2539 133.314 90.4945 131.987 90.2649C132.157 90.7382 132.901 90.9031 132.904 91.4061C132.907 91.7122 132.618 91.9278 132.454 92.1863C132.328 92.3853 132.273 92.6202 132.223 92.8502C131.75 95.0151 131.479 97.2238 131.413 99.4387C131.402 99.8203 131.497 100.324 131.877 100.366C132.663 100.452 133.403 100.893 133.854 101.543C134.223 99.2206 134.592 96.8984 134.961 94.5761C135.046 94.0372 135.118 93.4354 134.803 92.9905C134.368 92.3782 134.746 91.5395 135.127 90.8928L135.892 89.5953ZM65.9524 99.6327C66.3535 99.7128 66.8094 100.059 66.6576 100.439C66.564 100.673 66.2815 100.767 66.0299 100.78C65.7783 100.794 65.5166 100.756 65.2811 100.846C65.0038 100.951 64.6775 100.705 64.6438 100.411C64.6098 100.116 64.8146 99.8304 65.0814 99.7011C65.3481 99.5717 65.6618 99.5747 65.9524 99.6327ZM107.497 99.274C107.75 99.3091 108.016 99.3646 108.2 99.5414C108.384 99.7185 108.435 100.055 108.239 100.219C108.174 100.273 108.093 100.301 108.013 100.329C107.666 100.447 107.294 100.563 106.938 100.475C106.582 100.387 106.272 100.009 106.395 99.6634C106.537 99.2649 107.078 99.2162 107.497 99.274ZM130.504 94.5C130.237 94.5644 130.042 94.7878 129.865 94.9993L128.802 96.2721C128.595 96.5207 128.96 96.8674 129.283 96.8945C129.606 96.9215 129.983 96.8456 130.213 97.074C130.454 97.3135 130.354 97.7309 130.157 98.0072C129.96 98.2835 129.681 98.5094 129.561 98.8273C129.383 99.3025 129.678 99.8981 130.164 100.045C130.428 100.124 130.798 100.002 130.801 99.726C130.814 98.1148 130.908 96.5041 131.083 94.9023C131.113 94.6287 130.772 94.4356 130.504 94.5ZM76.5732 95.3001C76.7769 95.4355 76.9085 95.6519 77.0443 95.8554C78.2105 97.6013 80.1607 98.8014 82.2449 99.055C82.7269 99.1137 83.2957 99.1724 83.5374 99.5935C83.0833 100.043 82.3433 99.9884 81.7209 99.8437C79.5142 99.3302 77.4922 98.0554 76.0779 96.2856C75.8522 96.0035 75.6463 95.5742 75.8979 95.3148C76.068 95.1394 76.3696 95.1648 76.5732 95.3001ZM129.358 87.5849C127.8 87.9677 126.244 88.5082 124.981 89.498C123.718 90.4878 122.778 91.9918 122.788 93.5964C122.801 95.6313 121.801 97.6481 120.174 98.8699L122.914 99.1924C123.235 99.23 123.594 99.2573 123.845 99.0543C124.213 98.7571 124.119 98.1868 124.026 97.7235C123.933 97.2603 123.954 96.6479 124.394 96.4775C124.942 96.2659 125.395 97.0252 125.312 97.6061C125.229 98.187 124.892 98.7461 124.997 99.3233C126.295 99.5075 127.596 99.6625 128.901 99.7887C128.641 99.5756 128.613 99.1718 128.745 98.8628C128.876 98.5537 129.131 98.3173 129.378 98.0907C129.642 97.8494 129.262 97.424 128.906 97.3857C128.551 97.3476 128.132 97.4329 127.882 97.1779C127.57 96.8608 127.804 96.3289 128.07 95.9723C128.586 95.2804 129.225 94.4466 128.893 93.6499C128.083 91.7072 128.262 89.3813 129.358 87.5849ZM69.5981 82.2768C69.3809 87.5948 69.4107 92.9229 69.6873 98.2384C71.7187 97.136 73.203 95.1965 74.1235 93.0763C74.6851 91.7829 75.061 90.3573 74.8365 88.9653C74.6691 87.9271 74.1776 86.968 73.6061 86.0853C72.5925 84.5196 71.269 83.106 69.5981 82.2768ZM116.704 79.7289C117.433 79.5945 117.991 80.4951 117.867 81.2264C117.742 81.9578 117.211 82.5391 116.788 83.1489C116.205 83.9915 115.806 84.9455 115.411 85.8913C114.471 88.1417 114.105 90.6291 114.357 93.0547C114.506 94.4828 114.897 95.9499 115.863 97.0124C116.828 98.0749 118.484 98.6062 119.756 97.9412C120.849 97.3699 121.394 96.1106 121.645 94.9032C121.895 93.6957 121.94 92.4319 122.414 91.2932C123.287 89.1925 125.441 87.9236 127.572 87.1269C124.369 86.6917 121.471 84.4598 120.231 81.4739C119.876 80.6175 119.609 79.652 118.872 79.0899C118.135 78.5276 116.747 78.8028 116.704 79.7289ZM89.6267 96.8603C89.8519 96.9034 90.073 96.969 90.2853 97.0555C90.636 97.1981 91.0128 97.5926 90.7871 97.8964C90.6639 98.0627 90.4273 98.0827 90.2206 98.0879C89.8436 98.0976 89.437 98.0987 89.129 97.8811C88.8213 97.6632 88.7146 97.1364 89.0251 96.9225C89.1957 96.805 89.4232 96.8213 89.6267 96.8603ZM106.609 95.9625C106.914 95.9884 107.218 96.0308 107.519 96.0893C107.667 96.1182 107.827 96.1585 107.921 96.2778C108.063 96.4585 107.973 96.7417 107.794 96.8853C107.615 97.0289 107.377 97.0692 107.15 97.1048C106.804 97.1589 106.434 97.2103 106.114 97.066C105.795 96.9218 105.576 96.4993 105.772 96.2081C105.942 95.954 106.304 95.9368 106.609 95.9625ZM19.4241 94.322C19.1657 94.3193 19.0764 94.6642 19.0842 94.9224C19.1067 95.6643 19.2569 96.4023 19.5262 97.0942C19.6012 97.1706 19.6883 97.011 19.6778 96.9046L19.4241 94.322ZM69.0612 96.2326C68.9 96.32 68.8385 96.5516 68.9353 96.7073L68.9392 96.7131L68.9358 96.717C68.9314 96.722 68.9268 96.7282 68.9218 96.7355C68.8569 96.8337 68.9479 96.9894 69.0653 96.9812C69.1447 96.7399 69.1431 96.473 69.0612 96.2326ZM65.7038 95.1823C66.0533 95.2596 66.4326 95.5497 66.3457 95.8971C66.2881 96.1271 66.0459 96.2622 65.8143 96.3136C65.5829 96.3649 65.3382 96.3615 65.1169 96.4475C64.8357 96.5567 64.497 96.3299 64.4392 96.0338C64.3812 95.7377 64.5626 95.4286 64.8243 95.2786C65.0862 95.1284 65.4091 95.1171 65.7038 95.1823ZM67.7265 46.1969C67.7469 62.206 68.1147 78.2148 68.8296 94.2081L68.9048 95.8616L68.916 95.3297C68.9367 94.0865 68.9186 92.8431 68.9002 91.5999C68.6869 77.0273 68.4734 62.455 68.2599 47.8825C68.2512 47.2725 68.203 46.5781 67.7265 46.1969ZM90.6247 92.8412C90.8208 92.8999 91.0176 92.9892 91.1446 93.1495C91.2719 93.3098 91.3084 93.5563 91.1825 93.7178C91.0607 93.8739 90.8401 93.9035 90.6426 93.9212L89.8003 93.9959C89.6627 94.0081 89.5147 94.0182 89.395 93.9489C89.2983 93.8932 89.2343 93.7911 89.2049 93.6836C89.1164 93.3591 89.3359 93.007 89.6393 92.8626C89.9427 92.7181 90.3025 92.7449 90.6247 92.8412ZM22.7797 80.3095C21.904 81.17 21.4485 82.3593 21.0277 83.5126C19.855 86.7263 18.7406 90.1374 19.3192 93.5091C19.4982 93.5419 19.5834 93.2985 19.5967 93.1171C19.8346 89.8643 20.4846 86.6419 21.5262 83.5514C21.9237 82.3722 22.4017 81.1746 23.2847 80.2976C23.2725 80.0839 22.9323 80.1596 22.7797 80.3095ZM130.436 87.3398C130.283 87.3771 130.184 87.5214 130.104 87.6567C129.351 88.9355 128.996 90.4454 129.101 91.926C129.144 92.5371 129.341 93.2412 129.912 93.4641C130.376 93.0185 130.84 92.5729 131.305 92.1273C131.378 92.0565 131.454 91.9833 131.494 91.8895C131.596 91.6551 131.451 91.3935 131.317 91.1756C130.656 90.0993 130.159 88.735 130.71 87.5982C130.778 87.4567 130.588 87.3022 130.436 87.3398ZM140.08 85.9601C140.006 85.9986 139.949 86.0626 139.893 86.1252C138.523 87.6748 137.2 89.2657 135.926 90.8953C135.66 91.2357 135.382 91.6193 135.408 92.0505C135.432 92.4339 135.701 92.7679 136.028 92.9694C136.355 93.171 136.736 93.263 137.109 93.352C137.209 93.3758 137.318 93.399 137.412 93.3572C137.498 93.3189 137.553 93.2341 137.603 93.1538C138.383 91.8962 139.174 90.6137 139.542 89.1804C139.621 88.8747 139.886 88.6612 140.098 88.4273C140.514 87.9677 140.757 87.3556 140.771 86.7359C140.776 86.5261 140.751 86.3045 140.63 86.1335C140.509 85.9622 140.266 85.8629 140.08 85.9601ZM106.711 92.0941C106.899 92.1409 107.108 92.2124 107.192 92.3874C107.342 92.6961 106.991 93.0178 106.664 93.1192C106.41 93.1976 106.127 93.2249 105.883 93.1185C105.64 93.0121 105.455 92.7435 105.511 92.4835C105.609 92.0223 106.253 91.9805 106.711 92.0941ZM66.0161 91.4203C66.1053 91.5001 66.1879 91.5941 66.2216 91.7088C66.2897 91.9397 66.1285 92.1945 65.9072 92.2895C65.6859 92.3844 65.4276 92.3477 65.2047 92.2567C64.9699 92.161 64.7413 91.978 64.7114 91.7262C64.6773 91.4384 64.938 91.1733 65.2251 91.1318C65.512 91.09 65.8003 91.2267 66.0161 91.4203ZM91.4093 88.8889C91.6384 88.9822 91.6622 89.3285 91.5042 89.5189C91.3464 89.709 91.0829 89.7723 90.8366 89.7932C90.5903 89.8138 90.3353 89.8049 90.1053 89.895C89.7514 90.0335 89.3668 89.606 89.451 89.2357C89.5352 88.8653 89.9331 88.635 90.3124 88.6174C90.6919 88.5997 91.0577 88.7456 91.4093 88.8889ZM106.318 88.3319C106.643 88.3477 106.964 88.433 107.253 88.5802C107.379 88.644 107.509 88.7323 107.545 88.8687C107.619 89.1497 107.266 89.3425 106.981 89.3971C106.728 89.4457 106.472 89.4746 106.215 89.4836C105.897 89.4946 105.514 89.4333 105.388 89.1419C105.289 88.9155 105.409 88.6378 105.61 88.4949C105.811 88.3518 106.072 88.3197 106.318 88.3319ZM127.247 67.5981C125.353 67.9038 123.45 68.1569 121.543 68.3576C120.16 68.5028 118.859 69.2869 118.084 70.4406C117.925 70.6778 117.815 71.0559 118.061 71.2013C118.757 70.3991 119.701 69.8153 120.729 69.5515C121.096 69.4573 121.499 69.4059 121.846 69.5602C122.192 69.7148 122.44 70.14 122.283 70.4854C122.042 71.016 121.274 70.8677 120.692 70.8321C119.075 70.7335 117.676 72.5847 118.213 74.1139C118.589 72.6542 120.673 72.0205 121.841 72.9734C123.009 73.9263 122.866 76.0192 121.617 76.8629C121.204 77.1415 120.674 77.336 120.486 77.7972C120.324 78.1926 120.48 78.6391 120.635 79.037C120.878 79.6617 121.121 80.2864 121.364 80.9109C121.874 82.2206 122.416 83.578 123.448 84.5318C124.242 85.2654 125.271 85.7019 126.321 85.9576C130.106 86.8802 134.368 85.412 136.781 82.3534C136.975 82.1082 137.416 82.3408 137.451 82.651C137.485 82.9613 137.273 83.2404 137.063 83.4716C135.982 84.6611 134.62 85.5934 133.12 86.1697C132.411 86.4421 131.568 86.7371 131.35 87.4647C131.169 88.0674 131.549 88.7334 132.095 89.0469C132.64 89.3606 133.305 89.3872 133.93 89.3187C135.177 89.1825 136.384 88.6942 137.375 87.925C137.676 87.692 137.967 87.4196 138.1 87.0634C138.227 86.7261 138.198 86.3532 138.167 85.9943L138.141 85.6858C138.024 84.3479 137.872 82.9941 137.327 81.7706C137.064 81.1819 136.713 80.6304 136.52 80.0155C136.282 79.2574 136.296 78.4441 136.136 77.6656C135.976 76.8872 135.571 76.0786 134.829 75.7917C135.025 75.2945 135.514 74.9814 135.83 74.5505C136.146 74.1196 136.193 73.3669 135.695 73.1722C135.457 73.0791 135.186 73.1594 134.959 73.2773C134.002 73.7738 133.487 74.989 133.794 76.0217C133.994 76.6957 132.929 77.148 132.356 76.7407C131.782 76.3336 131.641 75.5584 131.528 74.8645C131.09 72.1742 130.21 69.274 127.913 67.8074C127.712 67.6795 127.482 67.5602 127.247 67.5981ZM65.8154 86.6809C66.1175 86.7788 66.4186 87.0503 66.3558 87.3615C66.2964 87.6558 65.9576 87.7936 65.6618 87.8443C65.2421 87.9161 64.6947 87.8337 64.5766 87.4246C64.4645 87.0352 64.872 86.6621 65.2749 86.6194C65.4565 86.6002 65.6416 86.6245 65.8154 86.6809ZM114.259 81.0776C113.978 81.3445 113.84 81.7254 113.712 82.0917C113.424 82.9182 113.131 83.7686 113.164 84.6433C113.186 85.2065 112.859 85.7136 112.626 86.2266C112.393 86.7396 112.266 87.3966 112.632 87.8255C113.505 87.0914 113.714 85.8555 113.906 84.7311C114.136 83.3867 114.448 81.9933 115.318 80.9425C115.013 80.7019 114.541 80.8106 114.259 81.0776ZM91.2526 84.824C91.4774 84.8962 91.7317 85.0407 91.7345 85.2769C91.7379 85.564 91.3845 85.6959 91.102 85.7477C90.9605 85.7736 90.8187 85.7996 90.6772 85.8255C90.3165 85.8913 89.9298 85.9548 89.5943 85.8062C89.259 85.6576 89.0357 85.2049 89.2547 84.9107C89.3962 84.7203 89.6567 84.6685 89.8934 84.6538C90.3518 84.6254 90.8155 84.6834 91.2526 84.824ZM58.4424 80.6774C58.8371 80.8664 59.2788 81.2383 59.1324 81.6507C55.0652 80.7641 50.72 81.2026 46.912 82.8843C45.1984 83.6408 43.5901 84.6414 41.8166 85.2446C41.21 85.451 40.5475 85.6092 39.9347 85.4223C39.3217 85.2352 38.8108 84.5848 38.9899 83.9695C39.1582 83.392 39.8013 83.1175 40.3711 82.9246C43.1793 81.9738 46.0366 81.1677 48.9276 80.51C52.0818 79.7926 55.5241 79.2817 58.4424 80.6774ZM116.843 80.6288C116.553 80.6276 116.308 80.8407 116.118 81.0595C115.654 81.5901 115.325 82.2268 115.08 82.8873C114.776 83.7078 114.596 84.5745 114.548 85.4482C115.39 84.0016 116.289 82.5887 117.243 81.214C117.409 80.9755 117.134 80.6299 116.843 80.6288ZM111.69 83.206C111.61 83.2065 111.526 83.2095 111.459 83.2521C111.307 83.3482 111.328 83.5725 111.373 83.7461C111.516 84.2967 111.713 84.8331 111.961 85.345C112.11 84.6238 112.349 83.9213 112.671 83.259C112.346 83.2218 112.017 83.2042 111.69 83.206ZM47.9561 81.347C45.5486 82.0869 43.141 82.8269 40.7337 83.5668C40.4461 83.6551 40.1125 83.7915 40.051 84.0862C40.2468 84.3717 40.6197 84.493 40.9656 84.4763C41.3114 84.4596 41.6396 84.3268 41.9602 84.1958C44.4026 83.1978 46.845 82.1999 49.2874 81.2019C48.8512 81.0801 48.3891 81.214 47.9561 81.347ZM73.3612 82.6976C73.2319 82.9219 72.9629 83.0171 72.761 83.1792C72.5595 83.3416 72.4411 83.6911 72.6539 83.8383C72.98 83.5117 73.3062 83.1852 73.6323 82.8588C73.5649 82.7751 73.4669 82.7169 73.3612 82.6976ZM98.7626 82.5238C100.512 82.7061 102.278 82.7992 104.031 82.6481C104.485 82.6091 105.027 82.5907 105.296 82.9579C104.957 83.3039 104.422 83.3457 103.938 83.3663C102.118 83.4443 100.299 83.5223 98.4796 83.6003C98.1246 83.6154 97.6751 83.5702 97.56 83.2342C97.4692 82.9696 97.6753 82.6776 97.934 82.5715C98.1927 82.4653 98.4844 82.4949 98.7626 82.5238ZM125.817 80.6118C126.241 81.1269 126.395 81.8513 126.219 82.4944C126.176 82.6531 126.112 82.8088 126.01 82.9384C125.744 83.278 125.253 83.3785 124.833 83.278C124.413 83.1774 124.054 82.9102 123.733 82.6208C123.403 82.3226 123.093 81.9828 122.935 81.567C122.776 81.1514 122.795 80.6455 123.076 80.3008C123.308 80.0167 123.682 79.8802 124.048 79.8536C124.713 79.8048 125.394 80.0967 125.817 80.6118ZM66.825 81.8092C66.9922 81.9442 66.9642 82.2249 66.8213 82.3855C66.6787 82.5462 66.461 82.6148 66.2523 82.6669C66.006 82.7283 65.7471 82.7763 65.5001 82.7175C65.2531 82.6588 65.0215 82.4673 64.9912 82.2153C64.9472 81.8498 65.3297 81.5638 65.6937 81.5062C66.0906 81.4436 66.5122 81.5564 66.825 81.8092ZM123.88 80.7331C123.694 80.973 123.816 81.4062 124.117 81.4473C124.464 81.4947 124.734 81.8594 124.678 82.2052C124.634 82.4767 124.965 82.7036 125.228 82.6221C125.491 82.5405 125.643 82.246 125.637 81.9711C125.631 81.6961 125.5 81.4397 125.351 81.2085C125.187 80.9535 124.986 80.7058 124.709 80.5815C124.433 80.4575 124.065 80.493 123.88 80.7331ZM122.955 56.0807C120.433 56.5428 117.933 57.6448 116.306 59.6273C114.679 61.6097 114.116 64.5768 115.388 66.8039C115.838 67.5909 116.524 68.2773 117.387 68.5544C118.25 68.8314 119.294 68.6275 119.87 67.9274C120.523 67.1334 121.841 67.895 122.824 67.5937C124.184 67.1768 125.597 66.9348 127.018 66.8757C127.355 66.8617 127.702 66.8596 128.017 66.9816C128.358 67.1139 128.628 67.3793 128.887 67.6375C129.786 68.5335 130.704 69.4557 131.236 70.6081C132.081 72.4358 131.872 74.6643 132.939 76.3719C133.063 75.3011 133.188 74.2304 133.312 73.1596C133.359 72.7622 133.41 72.3496 133.625 72.0123C133.84 71.6747 134.269 71.438 134.645 71.5745C135.308 71.8155 135.999 72.0742 136.475 72.595C136.951 73.1158 137.127 73.9841 136.669 74.5212C136.227 75.0401 136.729 75.7903 136.964 76.4306C137.37 77.5397 136.892 78.8069 137.212 79.9442C137.477 80.8861 138.242 81.5895 138.973 82.2398C139.187 82.4302 139.436 82.6329 139.721 82.6068C139.96 82.5852 140.152 82.4073 140.315 82.2316C141.286 81.1842 141.952 79.8562 142.209 78.4508C142.313 77.8839 142.116 77.0578 141.545 77.1351C141.701 75.7747 142.951 74.848 143.686 73.6921C144.478 72.4457 144.665 70.9128 144.701 69.4364C144.738 67.9526 144.593 66.3399 143.604 65.2329C142.416 63.903 140.107 63.8035 138.809 65.0265C138.486 65.3313 138.059 65.7343 137.673 65.5136C137.976 64.971 138.278 64.4282 138.581 63.8856C139.074 63.0011 139.577 62.0847 139.678 61.0772C139.875 59.0891 138.362 57.207 136.49 56.5077C134.619 55.8087 132.506 56.0986 130.629 56.7822C130.159 56.9538 129.603 57.3219 129.73 57.806C129.804 58.0865 130.088 58.2557 130.234 58.5064C130.325 58.6628 130.316 58.7128 130.213 58.8391C130.151 58.9157 130.039 59.1368 129.939 59.0937C128.875 57.861 127.723 56.5706 126.163 56.1046C125.129 55.7954 124.017 55.8862 122.955 56.0807ZM110.868 81.5016C110.735 81.423 110.48 81.3711 110.505 81.5236C110.577 81.897 110.913 82.1747 111.276 82.2889C111.639 82.4031 112.028 82.3839 112.408 82.3635C112.556 82.3554 112.715 82.344 112.833 82.2536C112.932 82.1779 112.986 82.0591 113.037 81.9451C113.123 81.7498 113.209 81.5544 113.296 81.3592C112.59 80.8998 111.592 81.9309 110.868 81.5016ZM90.4915 80.2263C90.7882 80.2485 91.0827 80.3004 91.3694 80.3806C91.6177 80.4504 91.903 80.5958 91.9152 80.8533C91.9315 81.1923 91.4905 81.3308 91.1522 81.3601C90.808 81.3897 90.4637 81.4195 90.1195 81.4493C89.8688 81.4709 89.5852 81.4821 89.4008 81.3106C89.1531 81.0806 89.2531 80.634 89.5212 80.4283C89.7893 80.2224 90.1544 80.2011 90.4915 80.2263ZM98.5411 80.1527C100.187 80.3731 101.856 80.426 103.513 80.3109C103.707 80.2974 103.919 80.2862 104.079 80.3971C104.239 80.5084 104.279 80.7948 104.104 80.881C104.051 80.9072 103.99 80.9099 103.931 80.9122C101.928 80.9877 99.9249 81.0634 97.9217 81.139C97.7391 81.1459 97.538 81.1468 97.3974 81.0299C97.146 80.8205 97.2903 80.3728 97.5786 80.218C97.8671 80.0635 98.2168 80.1093 98.5411 80.1527ZM114.525 78.521C113.885 78.5556 113.235 78.6148 112.644 78.8629C112.054 79.1108 111.524 79.5775 111.348 80.1933C111.312 80.3183 111.298 80.4719 111.394 80.5597C111.469 80.6281 111.581 80.629 111.683 80.6251C112.745 80.5834 113.803 80.4251 114.831 80.1543C115.342 80.0197 115.958 79.6947 115.889 79.1707C115.853 78.8948 115.614 78.679 115.352 78.5877C115.089 78.4964 114.803 78.5061 114.525 78.521ZM40.745 78.4439C40.6431 78.9838 40.6181 79.5378 40.6713 80.0846C40.8034 80.2272 40.9773 79.9486 40.966 79.7546C40.9406 79.3113 40.8663 78.8709 40.745 78.4439ZM74.953 77.7839C78.6354 77.9504 82.3178 78.1167 86.0002 78.2832C86.344 78.2988 86.8006 78.4304 86.7804 78.7737C86.3408 79.056 85.7739 78.9975 85.2551 78.9372C81.9724 78.5547 78.6517 78.5019 75.3585 78.7797C75.0743 78.8037 74.7723 78.8269 74.5187 78.6964C74.2648 78.5662 74.1013 78.2185 74.2659 77.9855C74.4102 77.7816 74.7037 77.7727 74.953 77.7839ZM66.0235 77.3977C66.1856 77.4222 66.3544 77.4644 66.472 77.5784C66.741 77.8392 66.575 78.3348 66.2514 78.5237C65.9278 78.7125 65.527 78.6861 65.1536 78.6538C64.744 78.6184 64.6112 78.0038 64.8802 77.6931C65.1492 77.3821 65.6171 77.3362 66.0235 77.3977ZM78.9751 76.0357C84.9767 76.3469 90.9781 76.6583 96.9796 76.9695C97.3011 76.9863 97.7265 77.1099 97.7095 77.4314C96.7199 77.6096 95.6951 77.5899 94.7131 77.3734L95.585 78.1238C95.1694 78.3859 94.7263 78.6565 94.2351 78.6673C93.7439 78.6783 93.2089 78.3159 93.2228 77.8247C93.4714 77.71 93.72 77.5954 93.9686 77.4805C89.1205 77.0652 84.2497 76.9136 79.3853 77.0269C79.1044 77.0333 78.8049 77.0358 78.568 76.8854C78.3308 76.7349 78.2109 76.3689 78.4072 76.1682C78.5473 76.0247 78.7746 76.0251 78.9751 76.0357ZM117.836 76.8381C117.62 76.85 117.436 76.9936 117.268 77.1308C117.07 77.2934 116.871 77.456 116.672 77.6185C116.464 77.7887 116.239 77.9921 116.227 78.2607C116.22 78.4065 116.331 78.5797 116.473 78.5469C116.513 78.5377 116.547 78.5136 116.58 78.4902C117.054 78.1563 117.527 77.8224 118 77.4887C118.097 77.4206 118.2 77.3433 118.231 77.2296C118.289 77.0207 118.052 76.8262 117.836 76.8381ZM125.198 75.0895C125.216 75.5763 124.975 76.0325 124.889 76.512C124.803 76.9915 124.967 77.6023 125.441 77.7144C125.581 77.7477 125.621 77.9476 125.542 78.0678C125.463 78.1877 125.314 78.2396 125.173 78.2653C124.733 78.3451 124.213 78.204 124.012 77.8059C123.91 77.6066 123.903 77.3748 123.897 77.1514C123.881 76.5531 123.866 75.955 123.851 75.3569C123.84 74.948 123.886 74.4443 124.26 74.2792C124.706 74.0827 125.179 74.6026 125.198 75.0895ZM118.669 77.8029C118.583 77.8433 118.524 77.9369 118.525 78.0323L118.503 78.038C118.551 78.1444 118.724 78.1612 118.792 78.0658C118.859 77.9701 118.786 77.8128 118.669 77.8029ZM117.842 74.6767C117.643 74.6817 117.421 74.7177 117.304 74.878C117.178 75.0493 117.229 75.3007 117.358 75.4695C117.487 75.6383 117.677 75.7467 117.854 75.8637C118.601 76.3563 119.197 77.0737 119.544 77.8981C119.781 77.5869 120.017 77.2759 120.253 76.9649C120.43 76.7326 120.616 76.4668 120.579 76.1776C120.552 75.9685 120.411 75.7928 120.262 75.6438C119.631 75.0119 118.735 74.654 117.842 74.6767ZM41.7256 69.8646C41.4481 69.8873 41.3041 70.1989 41.2169 70.4633C41.0839 70.8663 40.9509 71.2692 40.8181 71.6722C40.6727 72.1125 40.5264 72.5576 40.4867 73.0195C40.4601 73.3254 40.4812 73.6334 40.5021 73.94C40.5675 74.8973 40.6326 75.8545 40.6979 76.8115C40.7106 76.9966 40.8514 77.2521 41.0043 77.1475C40.9408 74.7023 41.1837 72.2496 41.7256 69.8646ZM120.231 73.3841C119.979 73.4802 119.711 73.6488 119.675 73.916C119.638 74.1831 120.031 74.431 120.184 74.2086C120.379 73.9249 120.865 74.0731 121.026 74.3771C121.187 74.6812 121.14 75.047 121.138 75.3913C121.135 75.7353 121.214 76.1299 121.514 76.2985C121.564 75.8382 121.615 75.378 121.665 74.9177C121.727 74.3496 121.723 73.6449 121.224 73.3667C120.925 73.2002 120.55 73.2624 120.231 73.3841ZM128.321 73.1241C128.73 73.1424 129.166 73.2848 129.39 73.6277C129.614 73.9705 129.495 74.5322 129.101 74.6425C128.539 74.8 128.013 74.0075 127.463 74.2042C127.119 74.3274 126.907 74.811 126.548 74.7416C126.326 74.6987 126.203 74.4322 126.247 74.2102C126.291 73.988 126.457 73.8102 126.634 73.6694C127.108 73.2947 127.718 73.0972 128.321 73.1241ZM65.6994 72.7193C66.0936 72.7831 66.4796 73.2147 66.2718 73.5557C66.2133 73.6513 66.1186 73.7194 66.0193 73.7715C65.7735 73.9008 65.4703 73.9449 65.2164 73.832C64.9626 73.7192 64.7841 73.4263 64.8527 73.1573C64.9392 72.8191 65.3549 72.6636 65.6994 72.7193ZM128.962 70.475C129.233 70.733 129.445 71.2188 129.141 71.4376C128.82 71.6692 128.435 71.2782 128.127 71.0287C127.784 70.7498 127.319 70.6266 126.882 70.6991C126.603 70.7457 126.34 70.867 126.06 70.9076C125.78 70.9482 125.454 70.8839 125.301 70.6457C125.141 70.3959 125.243 70.0423 125.463 69.8435C125.684 69.6449 125.99 69.5719 126.286 69.5451C127.255 69.4563 128.256 69.8042 128.962 70.475ZM65.6859 69.6845C65.9278 69.8265 66.0583 70.1611 65.9237 70.4072C65.7455 70.7324 65.279 70.728 64.9192 70.6386C64.7894 70.6065 64.6532 70.5638 64.5674 70.4615C64.3626 70.2173 64.5922 69.8343 64.8782 69.6932C65.1297 69.5689 65.4437 69.5426 65.6859 69.6845Z" fill="#00160A"/>
<path fill-rule="evenodd" clip-rule="evenodd" d="M33.1965 102.393C33.2295 102.485 33.26 102.588 33.2221 102.678C33.1543 102.84 32.9334 102.846 32.7582 102.845C31.5265 102.835 30.3812 103.893 30.2938 105.121C30.2846 105.251 30.1062 105.311 29.9906 105.251C29.8753 105.19 29.8159 105.061 29.776 104.937C29.551 104.238 29.6959 103.456 30.0546 102.816C30.4135 102.176 30.9685 101.666 31.5716 101.248C31.8056 101.086 32.097 100.93 32.3617 101.035C32.5364 101.104 32.6506 101.271 32.746 101.433C32.9254 101.738 33.0763 102.06 33.1965 102.393ZM32.4809 102.254C32.3725 101.922 31.9324 101.803 31.6037 101.92C31.2751 102.037 31.0355 102.317 30.8119 102.585C30.5997 102.839 30.378 103.116 30.353 103.445C30.9196 102.845 31.6728 102.423 32.4809 102.254Z" fill="black"/>
</g>
<defs>
<clipPath id="clip0_28_4574">
<rect width="172" height="172" fill="white"/>
</clipPath>
</defs>
</svg>
