<svg width="172" height="172" viewBox="0 0 172 172" fill="none" xmlns="http://www.w3.org/2000/svg">
<path d="M148 25H24V149H148V25Z" fill="white"/>
<path fill-rule="evenodd" clip-rule="evenodd" d="M82.9591 117.637C67.6643 114.29 47.2854 107.647 50.6343 84.8536C53.9831 62.0605 68.3383 53.272 86.0984 53.272C103.858 53.272 124.035 66.6708 120.074 94.4276C116.113 122.184 98.2541 120.984 82.9591 117.637ZM133.232 90.1615C133.864 83.8192 133.193 77.5438 131.39 71.6612L136.534 68.9061C137.4 68.442 137.726 67.3632 137.263 66.4965L130.241 53.3874C129.776 52.5207 128.698 52.1947 127.831 52.6588L122.688 55.4137C118.789 50.6546 113.936 46.619 108.308 43.6303L109.995 38.0479C110.28 37.1069 109.748 36.1135 108.806 35.829L94.5716 31.5246C93.6302 31.2401 92.6375 31.7723 92.3525 32.7133L90.6654 38.2957C84.3221 37.6643 79.7009 39.9887 73.818 41.7903L71.0629 36.647C70.5988 35.7804 69.52 35.4542 68.6534 35.9184L55.5443 42.9405C54.6777 43.4046 54.3515 44.4834 54.8157 45.3499L57.5707 50.4932C52.8115 54.3921 47.1224 57.5908 44.1339 63.2204L38.5513 61.5324C37.6104 61.248 36.6169 61.7801 36.3324 62.721L32.0282 76.956C31.7437 77.8971 32.2758 78.8904 33.2167 79.1751L38.7993 80.863C38.1678 87.2052 38.8389 93.4806 40.6404 99.3631L35.4972 102.118C34.6306 102.583 34.3044 103.661 34.7686 104.528L41.7906 117.637C42.2548 118.504 43.3336 118.83 44.2002 118.366L49.3435 115.61C53.2422 120.37 58.0944 124.406 63.7239 127.394L62.036 132.977C61.7514 133.917 62.2837 134.911 63.2244 135.196L77.4598 139.499C78.3997 139.784 79.3938 139.252 79.679 138.311L81.3661 132.729C87.7079 133.36 93.984 132.689 99.8667 130.887L102.621 136.031C103.086 136.897 104.165 137.223 105.032 136.759L118.141 129.737C119.006 129.273 119.334 128.194 118.869 127.328L116.113 122.184C120.873 118.286 124.908 113.433 127.898 107.804L133.479 109.492C134.421 109.776 135.415 109.244 135.699 108.303L140.003 94.0683C140.288 93.1274 139.756 92.1339 138.814 91.8494L133.232 90.1615Z" fill="#0E9384"/>
<path fill-rule="evenodd" clip-rule="evenodd" d="M105.69 58.1577L105.194 58.1409L105.18 58.5813C105.157 59.3738 105.168 60.2216 105.18 61.1458C105.188 61.7899 105.196 62.4713 105.194 63.1971L105.112 64.63C105.114 65.9651 105.124 67.8234 105.14 70.2049L105.194 76.9842C104.83 77.1049 104.556 77.4196 104.501 77.8023C104.2 77.8481 103.97 78.1032 103.97 78.4104C103.97 78.6278 104.085 78.8189 104.26 78.9286L104.047 79.4411C103.953 79.6688 103.798 79.8635 103.598 80.0042C102.722 80.6204 102.206 81.6185 102.218 82.6742C102.219 82.7023 102.219 82.7302 102.221 82.758C102.224 82.8594 102.311 82.9372 102.414 82.9346C102.518 82.9308 102.598 82.8456 102.595 82.7444C102.594 82.7197 102.593 82.6949 102.593 82.6701C102.582 81.7339 103.205 80.8486 103.982 80.302C104.239 80.1209 104.439 79.8708 104.56 79.5788L104.623 79.0258H104.89C104.89 79.0258 104.982 79.5236 104.982 79.9126C104.982 80.3018 104.89 81.0724 104.89 81.0724H104.583C104.231 81.0724 103.945 81.3525 103.945 81.6967C103.945 82.0408 104.231 82.3209 104.583 82.3209H104.627C104.978 82.3209 105.098 82.1412 105.098 81.6967C105.098 81.4639 105.124 81.2976 105.504 81.2976C105.884 81.2976 105.786 81.6967 105.786 81.6967C105.786 82.0408 106.072 82.3209 106.423 82.3209H106.467C106.818 82.3209 107.104 82.0408 107.104 81.6967C107.104 81.3525 106.512 81.0614 106.16 81.0614C106.16 81.0614 106.067 80.361 106.067 80.0042C106.067 79.7033 106.16 79.0884 106.16 79.0884H105.786C105.786 79.0884 105.864 79.6625 105.864 80.0126C105.864 80.363 105.786 81.0614 105.786 81.0614C105.786 81.0614 105.579 81.0986 105.481 81.1007C105.383 81.1027 105.264 81.0724 105.264 81.0724C105.264 81.0724 105.182 80.3564 105.182 80.0126C105.182 79.6691 105.264 79.0258 105.264 79.0258H105.786H106.16H106.426L106.655 79.5786C106.77 79.8564 107.114 80.1003 107.376 80.2861L107.409 80.3096C108.169 80.8491 108.457 81.7191 108.457 82.6367C108.457 83.4117 108.147 84.1384 107.583 84.6825C107.019 85.2266 106.273 85.6854 105.481 85.674C104.853 85.6649 104.21 85.3189 103.709 84.9437C103.222 84.5805 102.593 83.5868 102.488 83.3575C102.383 83.1282 102.334 83.4901 102.364 83.5868C102.566 84.2265 102.979 84.804 103.526 85.213C104.093 85.6363 104.767 85.8653 105.475 85.8754C106.369 85.8879 107.21 85.5573 107.846 84.9437C108.481 84.3302 108.832 83.5108 108.832 82.6367C108.832 81.6018 108.32 80.6209 107.464 80.0126C107.255 79.8645 107.096 79.6669 107.002 79.4411L106.79 78.9286C106.964 78.8191 107.08 78.6278 107.08 78.4104C107.08 78.1034 106.849 77.8481 106.549 77.8023C106.487 77.3708 106.147 77.0259 105.712 76.9477H105.688L105.401 70.6435C105.384 68.2439 105.608 63.4476 105.608 63.4476C105.612 61.6031 105.635 59.986 105.676 58.5965L105.69 58.1577ZM106.423 81.9542C106.278 81.9542 106.16 81.8386 106.16 81.6967V81.2976C106.16 81.2976 106.73 81.4117 106.73 81.6967C106.73 81.9581 106.631 81.9565 106.502 81.9545H106.502C106.491 81.9543 106.479 81.9542 106.467 81.9542H106.423ZM104.177 81.6967C104.201 82.0552 104.944 82.2116 104.89 81.6967V81.2976C104.89 81.2976 104.152 81.3381 104.177 81.6967ZM104.883 77.7949C104.952 77.51 105.213 77.2975 105.525 77.2975C105.836 77.2975 106.098 77.5102 106.167 77.7949H104.883ZM106.452 78.1617H106.372H104.678H104.598C104.458 78.1617 104.344 78.2732 104.344 78.4104C104.344 78.5475 104.458 78.6591 104.598 78.6591H106.452C106.592 78.6591 106.706 78.5475 106.706 78.4104C106.706 78.2732 106.592 78.1617 106.452 78.1617ZM109.66 79.7584H109.987C110.079 79.7584 110.154 79.6843 110.154 79.593C110.154 79.5016 110.079 79.4277 109.987 79.4277H109.66C109.568 79.4277 109.493 79.5016 109.493 79.593C109.493 79.6843 109.568 79.7584 109.66 79.7584ZM109.4 80.9288L109.715 81.0614C109.804 81.0987 109.847 81.2045 109.811 81.2976C109.775 81.3907 109.675 81.4358 109.586 81.3986L109.271 81.266C109.182 81.2287 109.139 81.1229 109.175 81.0298C109.202 80.9589 109.267 80.9157 109.335 80.9157C109.357 80.9157 109.379 80.9198 109.4 80.9288ZM109.119 78.2327L109.414 77.9959C109.497 77.9293 109.518 77.797 109.46 77.7005C109.425 77.6409 109.368 77.609 109.31 77.609C109.273 77.609 109.237 77.6213 109.205 77.6467L108.91 77.8835C108.827 77.9501 108.806 78.0824 108.864 78.1789C108.922 78.2753 109.036 78.2993 109.119 78.2327ZM101.224 79.7584H100.897C100.805 79.7584 100.73 79.6843 100.73 79.593C100.73 79.5016 100.805 79.4277 100.897 79.4277H101.224C101.317 79.4277 101.392 79.5016 101.392 79.593C101.392 79.6843 101.317 79.7584 101.224 79.7584ZM101.484 80.9288L101.17 81.0614C101.081 81.0987 101.038 81.2045 101.073 81.2976C101.109 81.3907 101.21 81.4358 101.298 81.3986L101.613 81.266C101.702 81.2287 101.745 81.1229 101.71 81.0298C101.683 80.9589 101.618 80.9157 101.549 80.9157C101.527 80.9157 101.506 80.9198 101.484 80.9288ZM101.765 78.2327L101.47 77.9959C101.387 77.9293 101.366 77.797 101.424 77.7005C101.46 77.6409 101.517 77.609 101.575 77.609C101.611 77.609 101.647 77.6213 101.679 77.6467L101.974 77.8835C102.057 77.9501 102.078 78.0824 102.02 78.1788C101.963 78.2752 101.849 78.2993 101.765 78.2327Z" fill="black"/>
<path d="M81.2655 104.324C83.0891 104.804 84.0249 105.946 84.8152 107.01C85.6072 108.074 83.8662 107.568 82.9056 107.184C81.945 106.8 79.632 105.38 79.632 105.38L71.9639 103.061V99.5139L74.257 99.38C74.257 99.38 79.4402 103.844 81.2655 104.324Z" fill="white"/>
<path d="M73.3198 78.3484C74.9599 84.5557 75.8065 90.4949 75.9404 96.1925C75.9404 96.1925 77.4763 96.3844 77.2845 97.7284C77.0927 99.0724 73.0603 102.72 73.0603 102.72L71.6632 98.0894L71.1407 81.025L73.3198 78.3484Z" fill="white"/>
<path fill-rule="evenodd" clip-rule="evenodd" d="M73.8795 81.525L72.9377 80.9002C72.8775 80.8604 72.7982 80.8915 72.7765 80.9632L72.4482 82.0539C72.4207 82.1449 72.5024 82.2298 72.5872 82.1989L73.8573 81.7328C73.9439 81.7011 73.9572 81.5764 73.8795 81.525ZM73.7654 81.7052L72.608 82.04L72.9526 81.048L73.7654 81.7052Z" fill="black"/>
<path fill-rule="evenodd" clip-rule="evenodd" d="M73.4661 89.3783L72.5244 88.7535C72.4642 88.7136 72.3848 88.7447 72.3632 88.8165L72.0348 89.9072C72.0074 89.9981 72.0891 90.0831 72.1739 90.0522L73.444 89.5861C73.5306 89.5544 73.5438 89.4297 73.4661 89.3783ZM73.352 89.5585L72.1947 89.8933L72.5393 88.9013L73.352 89.5585Z" fill="black"/>
<path fill-rule="evenodd" clip-rule="evenodd" d="M72.971 93.7902L73.0411 92.6623C73.0455 92.5902 72.9789 92.537 72.906 92.5542L71.7971 92.815C71.7048 92.8369 71.6719 92.9501 71.7412 93.008L72.7798 93.875C72.8508 93.934 72.9652 93.8833 72.971 93.7902ZM72.7577 93.7816L71.8892 92.9467L72.9205 92.7489L72.7577 93.7816Z" fill="black"/>
<path fill-rule="evenodd" clip-rule="evenodd" d="M74.7559 92.9584L73.628 92.8883C73.5559 92.8837 73.5027 92.9503 73.5199 93.0234L73.7807 94.1321C73.8026 94.2245 73.9158 94.2572 73.9737 94.1881L74.8407 93.1494C74.8997 93.0786 74.849 92.9642 74.7559 92.9584ZM74.7473 93.1715L73.9124 94.04L73.7148 93.0087L74.7473 93.1715Z" fill="black"/>
<path fill-rule="evenodd" clip-rule="evenodd" d="M73.8851 98.7079L72.8733 99.2112C72.8086 99.2433 72.7959 99.3276 72.8472 99.3821L73.6277 100.212C73.6927 100.281 73.8073 100.253 73.8226 100.164L74.0541 98.8309C74.07 98.7401 73.9686 98.6664 73.8851 98.7079ZM73.9843 98.8969L73.6955 100.066L73.0087 99.2722L73.9843 98.8969Z" fill="black"/>
<path fill-rule="evenodd" clip-rule="evenodd" d="M74.3811 95.5665L73.3693 96.0698C73.3046 96.1019 73.2919 96.1862 73.3431 96.2408L74.1237 97.0706C74.1886 97.1397 74.3032 97.1116 74.3186 97.0226L74.5501 95.6896C74.5659 95.5988 74.4646 95.525 74.3811 95.5665ZM74.4803 95.7555L74.1915 96.9251L73.5047 96.1308L74.4803 95.7555Z" fill="black"/>
<path d="M67.8212 82.081L66.7087 85.4401C64.1653 93.1329 62.9129 97.0376 62.8754 97.4036C62.8519 97.631 62.9898 97.8011 63.2026 97.8588C63.3302 97.8935 63.4866 97.8917 63.6807 97.8629C63.9828 97.8181 64.3865 97.7049 64.8741 97.5364C65.2509 97.4063 65.6581 97.2499 66.0708 97.0811L66.2442 97.0095C66.3006 96.986 66.3555 96.9628 66.4086 96.9404L66.6842 96.8216L66.7629 96.7869L66.8087 96.714C66.89 96.5847 67.0058 96.3559 67.12 96.0421C67.2204 95.7665 67.3004 95.4712 67.353 95.1594L67.3713 95.0417C67.3877 94.9271 67.5449 94.6621 67.8691 94.2094L68.0951 93.9002C68.2805 93.6504 68.6371 93.1731 68.673 93.1248L68.8826 92.8408C69.083 92.5676 69.2579 92.3236 69.4289 92.0776C70.2861 90.8432 70.8919 89.7629 71.2494 88.7233C71.5526 87.8414 71.6589 87.0242 71.5387 86.2731C71.355 85.1265 71.4254 84.0308 71.6938 83.0024C71.9167 82.1482 71.2115 81.3598 70.1949 81.0702C69.1443 80.7706 68.1434 81.1099 67.8212 82.081Z" fill="white"/>
<path d="M69.6833 77.1138C70.3031 77.7715 70.8229 78.2729 71.2432 78.6183C71.951 79.2001 72.9658 79.8237 74.2873 80.489C70.2449 81.4252 67.7765 81.6102 66.8822 81.0442C66.8822 81.0442 67.2547 79.2914 67.7899 78.5404C68.1885 77.9813 69.6833 77.1138 69.6833 77.1138Z" fill="white"/>
<path d="M76.1138 68.6629C75.2739 71.8528 72.9791 75.1831 70.5354 74.54C68.0918 73.8967 66.7394 69.5367 67.5793 66.3467C68.4192 63.1568 71.081 61.0923 73.5247 61.7354C75.9683 62.3786 76.9537 65.4731 76.1138 68.6629Z" fill="white"/>
<path d="M76.6728 69.6803C75.7223 73.3308 73.1253 77.1421 70.3599 76.406C67.5944 75.6698 66.0639 70.6802 67.0144 67.0297C67.9649 63.3789 70.9773 61.0163 73.7428 61.7524C76.5082 62.4884 77.6233 66.0299 76.6728 69.6803Z" fill="white"/>
<path fill-rule="evenodd" clip-rule="evenodd" d="M72.2594 62.1729C74.1439 62.2798 75.5191 62.899 76.2902 63.9899L76.377 64.116C76.7584 64.6662 77.079 65.0126 77.2192 66.0541L77.2326 66.1648C77.3128 66.85 77.3363 67.5728 77.2951 67.8127C77.2728 67.9141 77.2293 67.9493 77.1746 67.9387C77.0499 67.9142 76.7274 67.3412 76.2069 66.2192L75.7701 66.7304C75.5325 67.005 75.0284 67.264 74.7295 67.4584C74.4307 67.653 72.2594 62.1729 72.2594 62.1729Z" fill="#E7EAEE"/>
<path fill-rule="evenodd" clip-rule="evenodd" d="M74.162 72.5353C75.2114 72.9729 76.0084 73.5414 76.2199 73.3049C76.4312 73.0685 75.7103 72.3487 75.1504 71.371C74.5641 70.3987 74.0072 69.1739 73.9031 68.6758L73.6366 67.4163C72.8569 68.4003 72.1267 71.7015 74.162 72.5353Z" fill="white"/>
<path d="M86.3616 132.652L86.3049 136.154H84.313L83.7163 132.136L86.3616 132.652Z" fill="white"/>
<path d="M64.5464 114.03C64.5464 114.03 77.471 113.744 81.5339 113.158C86.0442 112.508 88.5106 110.97 89.4916 111.152C89.9512 111.237 92.6641 111.718 98.325 112.32C100.719 112.575 106.934 112.614 106.934 112.614L109.346 107.48C109.346 107.48 92.3722 104.072 87.0056 105.547C85.3177 106.011 81.6622 106.68 77.3161 106.436C73.5579 106.225 63.3367 104.239 63.3367 104.239C63.3367 104.239 59.2098 105.721 59.9567 109.364C60.7037 113.007 64.5464 114.03 64.5464 114.03Z" fill="white"/>
<path fill-rule="evenodd" clip-rule="evenodd" d="M107.963 109.677L108.758 107.376C108.758 107.376 91.8123 104.215 86.4458 105.69C84.7579 106.154 83.2324 106.919 78.8862 106.675C77.2225 106.581 74.3778 106.192 70.3522 105.506C68.316 105.16 67.9888 105.288 69.5892 106.335C73.3006 108.762 81.5564 108.19 89.0468 107.096C102.968 105.064 107.963 109.677 107.963 109.677Z" fill="#E7EAEE"/>
<path d="M84.1131 133.447C83.2699 134.379 82.1522 135.913 82.7276 137.449L92.712 140.521C92.712 140.521 93.0956 139.368 92.5203 138.41C91.9432 137.449 86.4958 133.659 86.4958 133.659L84.1131 133.447Z" fill="white"/>
<path fill-rule="evenodd" clip-rule="evenodd" d="M88.7218 135.528C88.7879 135.51 88.856 135.549 88.8739 135.616C88.8917 135.682 88.8527 135.75 88.7866 135.768C88.4614 135.856 88.2471 136.061 88.1719 136.322C88.0743 136.658 88.0637 137.002 88.1743 137.553C88.1877 137.62 88.1443 137.685 88.0771 137.699C88.01 137.712 87.9445 137.668 87.9311 137.601C87.8129 137.012 87.8248 136.628 87.9336 136.252C88.0333 135.908 88.3141 135.639 88.7218 135.528Z" fill="#E7EAEE"/>
<path fill-rule="evenodd" clip-rule="evenodd" d="M83.2237 137.615L93.0463 140.505C93.0463 140.505 94.2939 140.242 93.004 140.059C91.6786 139.871 83.9191 136.318 83.0656 136.965C82.9442 137.057 83.1486 137.414 83.2237 137.615Z" fill="#E7EAEE"/>
<path d="M58.7483 113.298C58.7483 113.298 63.1805 114.697 66.7497 115.221C70.319 115.746 77.4384 116.044 77.4384 116.044C77.4384 116.044 79.6611 117.252 79.8045 117.812C79.8603 118.03 80.1971 120.91 81.1285 124.589C81.5664 126.319 83.9072 134.145 83.9072 134.145L87.0056 132.774C87.0056 132.774 86.8812 118.39 84.9033 113.619C82.9256 108.848 62.5957 104.214 62.5957 104.214C62.5957 104.214 58.2812 103.434 57.1065 106.962C55.9318 110.491 58.7483 113.298 58.7483 113.298Z" fill="white"/>
<path fill-rule="evenodd" clip-rule="evenodd" d="M84.4033 133.649L87.5017 132.277C87.4187 122.688 86.718 116.302 85.3995 113.122C85.3995 113.122 86.7469 130.054 84.4033 133.649Z" fill="#E7EAEE"/>
<path d="M111.421 109.865C112.192 110.857 113.509 112.225 115.121 111.925L119.88 102.625C119.88 102.625 118.656 102.084 117.612 102.484C116.565 102.885 111.965 107.686 111.965 107.686L111.421 109.865Z" fill="white"/>
<path fill-rule="evenodd" clip-rule="evenodd" d="M90.75 137.18C90.7995 137.132 90.878 137.134 90.9253 137.183C90.9727 137.233 90.9711 137.311 90.9217 137.359C90.6335 137.635 90.5801 138.097 90.7454 138.377C90.7803 138.435 90.7608 138.511 90.7018 138.546C90.6429 138.581 90.5669 138.562 90.532 138.503C90.3091 138.126 90.3771 137.537 90.75 137.18Z" fill="#E7EAEE"/>
<path fill-rule="evenodd" clip-rule="evenodd" d="M89.7371 136.362C89.787 136.315 89.8656 136.317 89.9125 136.367C89.9593 136.417 89.9568 136.496 89.9071 136.542L89.84 136.607C89.3185 137.12 89.169 137.569 89.6282 138.05C89.6754 138.1 89.6735 138.178 89.624 138.225C89.5744 138.273 89.4959 138.271 89.4486 138.221C89.1093 137.866 89.0397 137.481 89.19 137.097C89.2937 136.832 89.4741 136.609 89.7371 136.362Z" fill="#E7EAEE"/>
<path fill-rule="evenodd" clip-rule="evenodd" d="M84.9645 136.199C85.2491 136.743 86.7604 136.52 86.4973 135.015C86.3728 134.303 84.1762 134.692 84.9645 136.199Z" fill="#E7EAEE"/>
<path fill-rule="evenodd" clip-rule="evenodd" d="M114.178 112.098C116.175 109.816 117.323 104.684 118.967 102.917C119.548 102.294 120.301 102.154 119.49 103.63C118.007 106.33 115.157 112.098 115.157 112.098C115.007 112.173 114.82 112.098 114.651 112.098H114.178Z" fill="#E7EAEE"/>
<path d="M81.2655 104.324C83.0892 104.804 84.025 105.946 84.8152 107.01C85.6072 108.074 83.8662 107.568 82.9056 107.184C81.9451 106.8 80.1075 105.342 80.1075 105.342L81.2655 104.324Z" fill="white"/>
<path d="M64.6545 100.004C64.6545 100.004 74.92 104.414 76.3667 104.42C77.8117 104.426 81.3581 106.148 81.5499 107.492C81.783 109.127 75.5979 106.724 75.5979 106.724C75.5979 106.724 61.7744 106.724 59.4713 104.42C57.1667 102.116 58.7025 97.3159 58.7025 97.3159L64.6545 100.004Z" fill="white"/>
<path d="M62.158 79.461C62.158 79.461 64.6545 80.9968 65.0381 85.9887C65.4216 90.9804 63.8857 96.9323 63.8857 96.9323C63.8857 96.9323 64.8463 97.7002 65.0381 98.4682C65.2299 99.2362 64.6462 100.25 64.6462 100.25C64.6462 100.25 58.8946 103.076 58.5105 103.268C58.1266 103.46 56.5907 102.884 56.5907 101.348C56.5907 99.8122 57.1667 98.4682 57.1667 98.4682C57.4423 88.3358 55.8227 78.5009 62.158 79.461Z" fill="white"/>
<path fill-rule="evenodd" clip-rule="evenodd" d="M72.3274 68.8388C72.918 68.048 74.1661 67.7904 74.4992 69.0388C74.4992 69.0388 74.7552 69.7921 74.2393 70.2575C72.6592 71.6833 71.7369 69.6294 72.3274 68.8388Z" fill="white"/>
<path fill-rule="evenodd" clip-rule="evenodd" d="M75.6252 69.6967C76.1862 68.9454 77.3719 68.7009 77.6884 69.8869C77.6884 69.8869 77.9314 70.6024 77.4415 71.0447C75.9403 72.3991 75.0642 70.448 75.6252 69.6967Z" fill="white"/>
<path d="M71.0314 79.3125C71.0314 79.3125 71.0314 88.5414 71.167 93.6986C71.3025 98.8559 70.1204 103.937 67.8619 107.911C65.6035 111.885 65.9108 117.57 64.2461 117.992C51.0781 121.334 54.6234 80.4333 59.4956 77.8195C64.3676 75.2059 65.9771 74.6522 65.9771 74.6522" fill="white"/>
<path fill-rule="evenodd" clip-rule="evenodd" d="M64.2781 81.9021L63.1434 83.5965C63.0491 83.737 63.1202 83.9285 63.2832 83.9736L64.7975 84.3922C64.9736 84.441 65.1399 84.2891 65.1077 84.1093L64.7283 81.9964C64.6889 81.7768 64.4022 81.7168 64.2781 81.9021ZM64.5247 82.1629L64.8637 84.1532L63.5469 83.5965L64.5247 82.1629Z" fill="black"/>
<path fill-rule="evenodd" clip-rule="evenodd" d="M60.627 80.2471L59.2896 82.3938C59.2041 82.5308 59.2706 82.7117 59.4243 82.7611L61.7594 83.5096C61.9538 83.5719 62.1361 83.3858 62.0695 83.1927L61.0719 80.2975C61.0039 80.1001 60.7373 80.07 60.627 80.2471ZM60.9441 80.5088L61.6273 83.1927L59.6027 82.3938L60.9441 80.5088Z" fill="black"/>
<path fill-rule="evenodd" clip-rule="evenodd" d="M59.803 96.4878L60.7128 99.9064C60.7687 100.117 61.0486 100.158 61.1632 99.9734L62.5156 97.7926C62.5906 97.6718 62.5487 97.5127 62.424 97.4444L60.1617 96.2066C59.9704 96.1019 59.7469 96.2772 59.803 96.4878ZM60.0427 96.5895L62.1396 97.662L60.9524 99.8428L60.0427 96.5895Z" fill="black"/>
<path fill-rule="evenodd" clip-rule="evenodd" d="M57.9815 109.041L58.4775 111.384C58.523 111.599 58.8049 111.653 58.9265 111.47L60.2666 109.454C60.3654 109.305 60.2795 109.104 60.1036 109.073L58.2675 108.745C58.0944 108.714 57.945 108.869 57.9815 109.041ZM58.4142 109.004L60.0053 109.568L58.6324 111.136L58.4142 109.004Z" fill="black"/>
<path fill-rule="evenodd" clip-rule="evenodd" d="M62.2802 108.545L62.7762 110.888C62.8217 111.103 63.1036 111.157 63.2252 110.974L64.5653 108.958C64.6641 108.809 64.5782 108.608 64.4023 108.577L62.5662 108.249C62.3931 108.218 62.2437 108.373 62.2802 108.545ZM62.5097 108.749L64.3621 108.698L62.8377 110.656L62.5097 108.749Z" fill="black"/>
<path fill-rule="evenodd" clip-rule="evenodd" d="M59.9655 103.75L60.4615 106.094C60.507 106.308 60.7889 106.363 60.9106 106.18L62.2506 104.163C62.3495 104.015 62.2635 103.813 62.0876 103.782L60.2515 103.455C60.0784 103.424 59.929 103.578 59.9655 103.75ZM60.2081 103.699L61.8787 104.191L60.5387 105.877L60.2081 103.699Z" fill="black"/>
<path fill-rule="evenodd" clip-rule="evenodd" d="M114.866 111.333C114.741 111.576 114.537 111.678 114.264 111.693C113.293 111.747 112.523 111.319 111.837 110.695C111.576 110.458 111.346 110.189 111.085 109.953C110.901 109.787 110.705 109.679 110.418 109.782C110.199 109.861 109.942 109.831 109.702 109.855C109.161 109.911 108.622 109.983 108.08 110.022C107.735 110.047 107.726 110.342 107.645 110.545C107.462 111.005 107.325 111.484 107.179 111.958C107.122 112.142 107.032 112.215 106.825 112.212C105.793 112.2 104.76 112.201 103.727 112.209C103.256 112.213 102.786 112.269 102.316 112.258C101.433 112.239 100.548 112.21 99.6671 112.143C98.815 112.077 97.9673 111.954 97.117 111.863C96.5198 111.8 95.9188 111.766 95.3241 111.685C94.6325 111.592 93.9467 111.455 93.2566 111.349C92.9113 111.296 92.5603 111.28 92.2146 111.229C91.6218 111.142 91.0291 111.051 90.44 110.941C89.8936 110.84 89.3794 110.945 88.8651 111.115C87.8635 111.446 86.8594 111.769 85.8548 112.09C85.6763 112.147 85.6234 112.194 85.7041 112.411C86 113.207 86.2771 114.012 86.518 114.827C86.688 115.401 86.8057 115.993 86.9146 116.584C87.0484 117.307 87.1601 118.035 87.2598 118.764C87.3359 119.32 87.3842 119.881 87.4343 120.441C87.4978 121.153 87.5578 121.865 87.6057 122.578C87.6535 123.288 87.6935 123.999 87.7205 124.71C87.7663 125.918 87.8005 127.125 87.8369 128.333C87.8588 129.065 87.8726 129.796 87.8965 130.527C87.9037 130.74 87.9718 130.958 87.9394 131.161C87.9151 131.315 87.8058 131.53 87.6805 131.578C87.3577 131.703 87.2645 131.943 87.2673 132.274C87.2709 132.696 87.3238 133.119 87.3129 133.54C87.3058 133.809 87.4086 133.996 87.6039 134.139C88.4912 134.786 89.3873 135.421 90.2742 136.069C90.6951 136.376 91.1103 136.693 91.5139 137.023C91.9459 137.376 92.3693 137.741 92.7813 138.118C93.1918 138.493 93.4101 138.952 93.4794 139.525C93.5331 139.968 93.476 140.381 93.4021 140.803C93.3636 141.023 93.238 141.113 93.0093 141.038C92.0487 140.725 91.09 140.405 90.1247 140.107C88.5304 139.613 86.9317 139.134 85.3345 138.649C84.7653 138.476 84.196 138.304 83.6261 138.133C83.277 138.029 83.2032 137.716 83.1384 137.432C82.9542 136.626 83.1921 135.893 83.6172 135.217C83.8775 134.803 84.1807 134.417 84.465 134.018C84.6973 133.693 84.6373 133.36 84.5224 133.008C84.1479 131.862 83.7799 130.714 83.4259 129.562C83.0766 128.424 82.7304 127.285 82.4139 126.138C82.0793 124.926 81.7757 123.705 81.4699 122.485C81.3044 121.825 81.1483 121.162 81.0142 120.495C80.914 119.996 80.8573 119.489 80.7786 118.986C80.6845 118.385 80.628 117.773 80.4732 117.188C80.4066 116.936 80.1621 116.706 79.949 116.523C79.4849 116.126 78.9517 115.83 78.3725 115.627C78.2293 115.577 78.0742 115.543 77.9233 115.537C77.2048 115.51 76.4854 115.503 75.7669 115.474C75.065 115.445 74.3633 115.406 73.6627 115.359C72.9398 115.311 72.2175 115.252 71.496 115.188C70.7237 115.118 69.9486 115.063 69.182 114.952C68.3692 114.835 67.5638 114.664 66.7572 114.507C66.495 114.455 66.3033 114.614 66.2627 114.984C66.1737 115.793 65.8989 116.544 65.5726 117.28C65.3371 117.811 64.8931 118.076 64.3453 118.167C63.9543 118.231 63.5537 118.293 63.1604 118.278C62.0407 118.236 61.0423 117.866 60.1543 117.156C59.0279 116.256 58.3688 115.052 57.8077 113.77C57.5562 113.195 57.2325 112.646 57.0351 112.054C56.8208 111.412 56.7124 110.733 56.5631 110.069C56.4468 109.553 56.3285 109.036 56.2307 108.516C56.1534 108.104 56.1048 107.687 56.0461 107.272C55.968 106.721 55.8911 106.17 55.8169 105.618C55.7924 105.435 55.7681 105.252 55.7605 105.068C55.7366 104.493 55.7247 103.918 55.7003 103.343C55.6661 102.536 55.6023 101.73 55.5916 100.924C55.5734 99.5442 55.5752 98.1641 55.5917 96.7844C55.599 96.1787 55.6503 95.5722 55.7048 94.9683C55.7666 94.2816 55.8604 93.598 55.9288 92.9118C55.9776 92.4221 55.993 91.9289 56.049 91.44C56.1315 90.723 56.2218 90.0061 56.3366 89.2935C56.473 88.4462 56.6289 87.6015 56.7939 86.7591C57.1059 85.1648 57.4689 83.5803 58.0631 82.0656C58.4419 81.1006 58.8371 80.116 59.61 79.3876C59.9445 79.0723 60.4094 78.8906 60.825 78.6667C61.966 78.0525 63.1131 77.4492 64.2544 76.8356C64.3078 76.807 64.3536 76.7237 64.3623 76.6602C64.3926 76.4402 64.3792 76.2112 64.4331 75.9986C64.4683 75.86 64.5655 75.7081 64.6804 75.6244C65.0655 75.3435 65.4687 75.0874 65.8703 74.83C65.9423 74.7839 66.0439 74.7435 66.123 74.7563C66.5462 74.8245 66.7587 74.5641 66.9038 74.2435C67.1002 73.8095 67.2796 73.3655 67.4321 72.9143C67.6845 72.1668 67.9391 71.4175 68.1301 70.6533C68.1961 70.3896 68.0947 70.0752 68.0352 69.7913C67.914 69.2133 67.8135 68.6247 67.6186 68.0708C67.4937 67.7167 67.2414 67.3954 67.0004 67.0967C66.3769 66.3239 66.0496 65.4586 66.1544 64.4671C66.1998 64.0365 66.3845 63.6353 66.7066 63.3225C67.0855 62.9543 67.4741 62.596 67.8543 62.2291C68.1314 61.9616 68.1116 61.7571 67.7507 61.4955C67.2456 61.1296 66.7613 60.7342 66.2782 60.3392C65.8655 60.0017 65.688 59.5196 65.5787 59.0254C65.4301 58.3532 65.4122 57.6748 65.6863 57.0186C66.1249 55.9691 66.7569 55.1031 67.9137 54.7765C68.9333 54.4887 69.9506 54.5082 70.8656 55.0862C71.697 55.6113 72.2251 56.3935 72.4574 57.359C72.73 58.4921 72.4197 59.5117 71.8471 60.4815C71.7992 60.5627 71.7942 60.6694 71.7694 60.7643C71.8546 60.7803 71.9392 60.8069 72.0249 60.8109C73.1262 60.861 74.2208 60.9833 75.2072 61.5083C76.5018 62.1972 77.3162 63.2892 77.6753 64.7106C77.729 64.9234 77.7285 65.152 77.7357 65.3739C77.7596 66.1306 77.7616 66.8884 77.8062 67.6436C77.8157 67.8013 77.9364 67.9949 78.0653 68.0958C78.6843 68.5807 78.8948 69.7678 78.3193 70.4705C78.2616 70.5409 78.2126 70.6181 78.1561 70.6894C77.9349 70.9678 77.6141 71.1029 77.2949 71.046C77.0227 70.9976 76.9997 71.0892 76.91 71.29C76.7184 71.7184 76.4885 72.1329 76.241 72.5323C75.909 73.0679 75.5703 73.6026 75.1865 74.1009C74.9547 74.4018 74.6418 74.644 74.3481 74.8925C73.9922 75.1939 73.6157 75.4711 73.2533 75.7651C73.0724 75.9118 72.8742 75.9875 72.6432 75.9541C72.4037 75.9195 72.2687 76.0543 72.1986 76.2484C72.0632 76.623 71.9407 77.0033 71.8337 77.387C71.8113 77.4679 71.859 77.5858 71.908 77.6663C72.3354 78.3698 72.7599 79.0754 73.2065 79.7668C73.5689 80.3278 73.9811 80.8575 74.3318 81.4253C74.5487 81.7766 74.6924 82.1731 74.8681 82.5496C75.1745 83.2066 75.4876 83.8607 75.7804 84.5236C75.8406 84.66 75.8571 84.8348 75.8361 84.9838C75.8054 85.2005 75.5916 85.2696 75.36 85.1298C75.0906 84.9672 74.8372 84.7771 74.5851 84.588C74.429 84.4709 74.2886 84.3328 74.1401 84.2054C74.1229 84.1905 74.1 84.1826 74.0798 84.1715C74.0765 84.1973 74.0674 84.2241 74.071 84.249C74.1125 84.5407 74.1458 84.8338 74.2015 85.1228C74.2592 85.4212 74.3468 85.7137 74.4075 86.0116C74.5279 86.6035 74.6442 87.1963 74.7519 87.7905C74.8731 88.4587 74.9896 89.128 75.0949 89.7989C75.149 90.1438 75.1675 90.4942 75.2141 90.8405C75.2846 91.364 75.373 91.8853 75.439 92.4094C75.475 92.6956 75.483 92.9856 75.4988 93.2742C75.5205 93.6677 75.5349 94.0616 75.5574 94.4549C75.6131 95.4254 75.6693 96.3959 75.7306 97.3661C75.7459 97.6065 75.8871 97.7915 76.1036 97.8603C76.7198 98.056 77.1504 98.7752 77.0467 99.3757C77.0227 99.5152 76.9916 99.6596 76.9303 99.7854C76.7828 100.087 76.9751 100.259 77.1662 100.416C77.4766 100.671 77.8 100.91 78.1242 101.148C78.8936 101.712 79.6686 102.269 80.438 102.833C81.1352 103.344 81.9044 103.699 82.7297 103.951C83.3924 104.153 83.956 104.536 84.4859 104.978C84.7461 105.195 84.9713 105.516 85.3835 105.436C85.9668 105.324 86.5484 105.203 87.1302 105.083C87.3056 105.047 87.4779 104.994 87.6542 104.963C88.2679 104.858 88.6305 104.423 88.9917 103.974C89.2605 103.64 89.5603 103.33 89.84 103.005C90.3904 102.364 90.9347 101.718 91.4848 101.077C91.7581 100.758 92.0396 100.446 92.3157 100.13C93.0938 99.2381 93.8674 98.3425 94.6504 97.4552C95.0609 96.9901 95.4885 96.5401 95.9061 96.0813C96.0185 95.9578 96.1387 95.8372 96.2277 95.6977C96.3629 95.4854 96.5008 95.4203 96.765 95.5059C97.3425 95.6927 97.3321 95.6572 96.9284 96.1001C96.2052 96.8936 95.506 97.7088 94.7939 98.5123C94.4457 98.9052 94.086 99.2877 93.7407 99.6831C93.1348 100.377 92.5379 101.078 91.9333 101.773C91.5041 102.266 91.0696 102.754 90.6351 103.243C90.299 103.621 89.9582 103.995 89.6231 104.374C89.5939 104.407 89.5709 104.499 89.5813 104.505C89.6631 104.556 89.7554 104.632 89.8415 104.629C90.5434 104.602 91.2444 104.548 91.9462 104.524C92.4716 104.506 92.9986 104.506 93.524 104.524C94.1972 104.547 94.8715 104.576 95.5417 104.641C96.2887 104.712 97.0314 104.827 97.7762 104.921C98.5397 105.018 99.3059 105.098 100.067 105.213C100.827 105.328 101.581 105.482 102.34 105.608C102.968 105.713 103.601 105.79 104.229 105.9C105.029 106.039 105.825 106.201 106.624 106.348C107.185 106.451 107.749 106.541 108.31 106.644C108.851 106.743 109.389 106.859 109.93 106.955C110.271 107.015 110.616 107.076 110.961 107.09C111.105 107.096 111.289 107.018 111.397 106.916C112.217 106.136 113.012 105.329 113.836 104.552C114.758 103.683 115.722 102.863 116.762 102.134C117.238 101.8 117.77 101.858 118.289 101.903C118.591 101.929 118.883 102.075 119.179 102.169C119.422 102.246 119.443 102.396 119.335 102.608C118.845 103.571 118.363 104.538 117.872 105.501C117.448 106.333 117.016 107.161 116.573 108.005C115.995 109.124 115.431 110.229 114.866 111.333ZM69.4675 104.233C69.7254 103.487 69.9518 102.729 70.1551 101.966C70.2872 101.471 70.3623 100.96 70.4471 100.453C70.5344 99.9319 70.6073 99.4084 70.6777 98.885C70.7597 98.2771 70.887 97.6688 70.897 97.0591C70.9168 95.8348 70.8662 94.6093 70.8527 93.3844C70.8444 92.6357 70.8401 91.8866 70.8548 91.1383C70.8662 90.5495 70.5236 90.1106 70.274 89.6278C70.1078 89.3064 69.9324 88.982 69.8263 88.6388C69.6315 88.0094 69.4731 87.3675 69.3223 86.7257C69.219 86.2868 69.1431 85.8405 69.0752 85.3945C68.9966 84.8783 68.827 84.3935 68.6066 83.9251C68.5881 83.8858 68.4333 83.8572 68.4166 83.8793C68.3278 83.9982 68.2617 84.1343 68.19 84.2656C68.0623 84.4993 67.8684 84.7219 67.8241 84.9709C67.7355 85.4682 67.5063 85.8951 67.272 86.3218C67.1262 86.5875 66.8805 86.5944 66.7099 86.3506C66.5265 86.0885 66.3285 85.8242 66.2114 85.5309C65.9363 84.8416 65.69 84.1396 65.4608 83.4334C65.1597 82.5054 64.8759 81.5715 64.6055 80.6338C64.4643 80.1445 64.3238 79.6473 64.2645 79.144C64.2064 78.6507 64.2524 78.1449 64.2509 77.6448C64.2507 77.6 64.237 77.5553 64.2297 77.5105C64.2094 77.5266 64.1909 77.5456 64.1686 77.5578C63.6443 77.8463 63.1232 78.141 62.5939 78.4199C62.069 78.6965 61.5414 78.9696 61.0042 79.2214C60.4157 79.4973 59.8249 79.7821 59.484 80.3602C59.1151 80.9857 58.6841 81.5817 58.4619 82.2869C58.2328 83.0137 57.9737 83.7322 57.7743 84.4669C57.5703 85.2184 57.4316 85.9875 57.2477 86.7447C57.1303 87.2285 56.9369 87.6979 56.8598 88.1866C56.7423 88.9321 56.6697 89.6873 56.6275 90.4414C56.5915 91.0885 56.5941 91.7371 56.5068 92.3818C56.4391 92.8822 56.3929 93.3857 56.3319 93.8871C56.2388 94.6506 56.0719 95.4125 56.0598 96.177C56.0333 97.8695 56.1031 99.5634 56.0952 101.257C56.091 102.144 56.2235 103.011 56.328 103.886C56.444 104.857 56.5126 105.834 56.6234 106.805C56.6986 107.466 56.774 108.13 56.9149 108.778C57.1442 109.834 57.3906 110.888 57.6968 111.923C58.0788 113.215 58.6396 114.431 59.4294 115.535C59.923 116.224 60.5256 116.789 61.2693 117.195C62.2776 117.745 63.3591 117.698 64.4425 117.53C64.6201 117.502 64.8501 117.366 64.9261 117.214C65.1394 116.79 65.3257 116.343 65.4471 115.884C65.6197 115.233 65.6959 114.557 65.8652 113.905C66.1443 112.829 66.4953 111.772 66.7583 110.693C66.9749 109.804 67.3878 109.002 67.7464 108.176C68.0104 107.568 68.3226 106.981 68.6418 106.356C68.9192 105.649 69.2197 104.95 69.4675 104.233ZM78.9854 115.211C79.5072 115.53 80.0187 115.868 80.5151 116.225C80.8251 116.448 81.0478 116.772 81.1157 117.146C81.2731 118.014 81.3774 118.891 81.5296 119.759C81.6364 120.369 81.7898 120.97 81.9166 121.576C82.0199 122.069 82.1155 122.564 82.2134 123.059C82.3098 123.545 82.4035 124.031 82.5009 124.517C82.5753 124.887 82.652 125.257 82.7304 125.626C82.857 126.223 82.9577 126.828 83.1214 127.415C83.2826 127.993 83.525 128.548 83.7019 129.123C83.9962 130.079 84.3615 131.004 84.7846 131.91C84.885 132.125 85.0538 132.082 85.1538 132.043C85.7869 131.795 86.4114 131.524 87.0318 131.246C87.2276 131.158 87.3318 130.988 87.3227 130.755C87.2982 130.123 87.2812 129.49 87.2638 128.858C87.2431 128.101 87.2255 127.344 87.2061 126.588C87.1871 125.847 87.183 125.105 87.1444 124.365C87.1067 123.643 87.0358 122.921 86.9761 122.2C86.9016 121.301 86.8323 120.402 86.744 119.504C86.6832 118.885 86.6273 118.261 86.5101 117.651C86.3072 116.594 86.0579 115.546 85.829 114.494C85.5622 113.268 85.047 112.2 84.0281 111.397C83.2522 110.786 82.4382 110.241 81.5582 109.805C80.5845 109.322 79.5999 108.853 78.5894 108.456C77.4341 108.003 76.312 107.431 75.0399 107.326C74.4288 107.276 73.8227 107.169 73.2125 107.104C72.7231 107.052 72.2296 107.037 71.7403 106.984C70.9659 106.899 70.1946 106.786 69.4195 106.71C69.3109 106.7 69.1472 106.802 69.0806 106.9C68.9274 107.126 68.8121 107.379 68.6924 107.626C68.3189 108.398 67.8814 109.149 67.5972 109.953C67.2218 111.016 66.967 112.121 66.6624 113.208C66.49 113.824 66.4862 113.852 67.0235 113.964C67.645 114.095 68.2764 114.181 68.9062 114.268C69.318 114.325 69.7355 114.34 70.1488 114.388C70.9322 114.478 71.7135 114.585 72.4974 114.67C72.9962 114.724 73.4977 114.756 73.9986 114.786C74.7474 114.83 75.4964 114.872 76.246 114.899C76.6947 114.916 77.1446 114.902 77.6513 114.902C78.122 114.894 78.5818 114.964 78.9854 115.211ZM101.476 111.632C101.959 111.655 102.442 111.678 102.925 111.689C104.045 111.713 105.165 111.731 106.286 111.745C106.509 111.748 106.711 111.655 106.771 111.425C107.096 110.186 107.734 109.037 107.816 107.726C107.837 107.393 107.692 107.158 107.353 107.099C106.999 107.037 106.649 106.95 106.296 106.883C105.852 106.798 105.406 106.724 104.961 106.642C104.562 106.569 104.163 106.492 103.765 106.415C103.473 106.359 103.182 106.297 102.89 106.242C102.331 106.136 101.772 106.033 101.212 105.93C100.83 105.86 100.447 105.788 100.064 105.726C99.7658 105.679 99.4652 105.649 99.1668 105.605C98.5362 105.513 97.9062 105.418 97.2759 105.323C96.9158 105.269 96.5567 105.21 96.1959 105.162C95.7148 105.097 95.2324 104.987 94.7509 104.99C93.5428 104.996 92.3347 105.049 91.1272 105.097C90.5496 105.119 89.971 105.151 89.3971 105.216C89.0759 105.252 88.7669 105.354 88.5339 105.625C88.1543 106.066 87.7467 106.482 87.3632 106.92C87.1211 107.196 86.8945 107.487 86.6731 107.781C86.3803 108.169 86.0231 108.405 85.5126 108.365C84.6765 108.301 83.8391 108.253 83.0028 108.189C82.6925 108.165 82.3837 108.119 82.0752 108.076C81.5517 108.002 81.0301 107.917 80.5061 107.849C80.0052 107.783 79.5026 107.729 79 107.677C78.8579 107.663 78.7131 107.671 78.5701 107.679C78.5417 107.68 78.5157 107.729 78.4887 107.756C78.5178 107.77 78.5476 107.782 78.5762 107.797C78.8277 107.928 79.0727 108.074 79.3316 108.189C80.0912 108.524 80.8745 108.811 81.6149 109.183C82.69 109.724 83.6933 110.384 84.6054 111.178C84.8883 111.424 85.1598 111.607 85.6237 111.545C86.3589 111.447 87.0461 111.266 87.7059 110.945C88.5939 110.513 89.4973 110.158 90.5184 110.37C91.1093 110.493 91.7032 110.6 92.2933 110.726C92.6669 110.807 93.0315 110.939 93.4081 110.995C93.8752 111.064 94.3507 111.076 94.8222 111.117C95.6799 111.192 96.5372 111.271 97.3948 111.346C97.9771 111.396 98.5599 111.442 99.1711 111.518C99.9393 111.556 100.707 111.596 101.476 111.632ZM71.5947 95.0612C71.6031 95.2901 71.594 95.52 71.5978 95.7493C71.6157 96.8215 71.6325 97.8937 71.6565 98.9657C71.6635 99.2768 71.6497 99.5976 71.721 99.896C71.8653 100.5 72.0546 101.094 72.239 101.687C72.3178 101.942 72.4278 102.184 72.7151 102.285C72.9651 102.372 73.2073 102.482 73.458 102.568C73.8296 102.696 73.9437 102.648 74.1861 102.307C74.2663 102.195 74.3589 102.091 74.449 101.986C75.0298 101.309 75.6283 100.645 76.1876 99.9507C76.6006 99.438 76.529 98.613 75.8376 98.3483C75.7632 98.3199 75.6895 98.2857 75.6123 98.2696C75.2037 98.185 75.2226 98.1861 75.209 97.8001C75.1606 96.4207 75.3224 95.0375 75.1057 93.6598C75.0192 93.1097 75.0548 92.5408 74.9752 91.9891C74.8514 91.1307 74.6801 90.2789 74.5229 89.4254C74.3743 88.6183 74.2253 87.811 74.0624 87.0065C73.9408 86.4061 73.7948 85.8109 73.6638 85.2124C73.564 84.7559 73.4856 84.2942 73.3651 83.8435C73.3325 83.7216 73.1812 83.6315 73.0845 83.5269C72.9712 83.6361 72.773 83.7358 72.7593 83.8564C72.6898 84.4679 72.5956 85.0912 72.6493 85.698C72.711 86.3951 72.8157 87.0861 72.6826 87.7781C72.531 88.5667 72.2787 89.3239 71.8514 90.0139C71.6145 90.3963 71.4376 90.7931 71.4779 91.2663C71.5178 91.7345 71.5307 92.2059 71.5375 92.6759C71.5469 93.3448 71.5398 94.0141 71.5398 94.7406C71.559 94.8474 71.5907 94.9537 71.5947 95.0612ZM68.5858 71.3679C68.5375 71.4426 68.4705 71.5112 68.4439 71.5931C68.1714 72.427 67.9225 73.2692 67.6311 74.0964C67.4557 74.5949 67.1803 75.0396 66.7249 75.3528C66.3941 75.5803 66.0854 75.84 65.7617 76.0783C65.6022 76.1956 65.6359 76.2975 65.7354 76.4402C66.0334 76.8669 66.3481 77.2868 66.5968 77.742C66.94 78.3701 67.234 79.0255 67.5394 79.6738C67.837 80.3053 68.1478 80.9326 68.4054 81.5805C68.6245 82.1309 68.7422 82.7222 68.9675 83.2694C69.171 83.7643 69.3896 84.252 69.4634 84.7819C69.4885 84.9621 69.5469 84.9636 69.6834 84.9631C70.504 84.9603 71.2964 84.8518 71.9883 84.3633C72.0475 84.3214 72.0975 84.2356 72.1087 84.1635C72.136 83.9893 72.1312 83.8102 72.1517 83.6346C72.1661 83.5106 72.2469 83.3767 72.218 83.2686C72.1102 82.867 71.9667 82.475 71.8414 82.078C71.6018 81.3195 71.2876 80.569 71.2662 79.7688C71.2443 78.9546 71.3176 78.1367 71.3735 77.3221C71.3961 76.9897 71.4612 76.6563 71.5454 76.3332C71.6439 75.9544 71.6205 75.8508 71.2786 75.6659C70.7158 75.3617 70.2307 74.9528 69.884 74.4254C69.3179 73.5645 68.883 72.6382 68.728 71.5673C68.6805 71.5008 68.6332 71.4344 68.5858 71.3679ZM76.7488 71.114C76.7643 71.0829 76.9035 70.9863 76.6965 70.9514C76.4874 70.9162 76.2511 70.8147 76.1074 70.6649C75.8257 70.3711 75.5926 70.0289 75.3558 69.6951C75.2889 69.6005 75.2651 69.5431 75.1708 69.6565C75.1111 69.7285 75.0334 69.7855 74.9738 69.8574C74.4561 70.4827 73.7116 70.7482 73.0146 70.5745C72.1788 70.3662 71.6694 69.4752 71.658 68.7022C71.6534 68.3941 71.556 68.1358 71.3098 67.9586C70.9003 67.6636 70.4788 67.3845 70.0579 67.1058C69.8221 66.9497 69.5976 67.0006 69.5368 67.2468C69.3862 67.8561 69.1987 68.4668 69.1461 69.0871C69.0811 69.8544 69.112 70.6294 69.2952 71.3952C69.6039 72.6853 70.0047 73.9112 71.0575 74.8204C71.7364 75.4067 72.5748 75.5384 73.3831 75.1838C74.1841 74.8321 74.6762 74.1819 75.155 73.505C75.5574 72.9361 75.9585 72.3662 76.3888 71.7682C76.5105 71.5509 76.6367 71.336 76.7488 71.114ZM111.438 109.432C111.994 110.14 112.641 110.731 113.527 111.017C114.074 111.194 114.275 111.162 114.577 110.585C115.195 109.408 115.806 108.227 116.414 107.045C116.657 106.573 116.882 106.091 117.126 105.619C117.601 104.697 118.083 103.779 118.566 102.86C118.654 102.693 118.57 102.541 118.44 102.523C117.991 102.463 117.516 102.335 117.098 102.613C116.547 102.979 115.992 103.348 115.485 103.771C114.716 104.413 113.976 105.09 113.247 105.777C112.916 106.088 112.637 106.456 112.343 106.805C112.11 107.081 111.812 107.313 111.724 107.69C111.642 108.039 111.561 108.388 111.48 108.794C111.385 109.002 111.278 109.229 111.438 109.432ZM92.4849 140.217C92.616 140.227 92.8686 140.168 92.8699 140.132C92.8868 139.639 92.9802 139.115 92.5371 138.73C91.9613 138.229 91.4033 137.705 90.8026 137.235C89.8336 136.477 88.8363 135.756 87.8503 135.02C87.4979 134.757 87.1476 134.478 86.6992 134.409C86.2978 134.348 85.8886 134.34 85.4858 134.286C85.1461 134.241 84.9149 134.388 84.7086 134.633C84.2083 135.226 83.8444 135.885 83.7068 136.655C83.5989 137.259 83.7931 137.591 84.2804 137.735C85.2081 138.008 86.1291 138.303 87.055 138.583C87.7185 138.783 88.3881 138.963 89.0502 139.167C90.0158 139.465 90.9772 139.777 91.9978 140.083C92.16 140.13 92.32 140.204 92.4849 140.217ZM73.0031 103.028C72.3625 102.774 71.7256 102.511 71.0835 102.261C70.8938 102.187 70.7323 102.166 70.6696 102.458C70.6018 102.775 70.457 103.075 70.3524 103.385C70.1201 104.073 69.8868 104.76 69.6669 105.452C69.6262 105.58 69.5644 105.759 69.817 105.784C70.1459 105.816 70.4729 105.87 70.8024 105.894C71.4457 105.941 72.0895 105.987 72.734 106.008C73.6914 106.04 74.6494 106.051 75.6073 106.068C75.9132 106.074 76.2192 106.068 76.5252 106.07C76.5996 106.07 76.6785 106.065 76.7476 106.086C77.5769 106.346 78.4033 106.614 79.2334 106.871C80.0683 107.129 80.9046 107.382 81.7966 107.333C82.1062 107.315 82.1631 107.257 82.0492 106.972C81.987 106.817 81.9007 106.658 81.7863 106.539C81.2277 105.953 80.5455 105.544 79.8157 105.208C79.2344 104.94 78.666 104.642 78.0121 104.574C77.7059 104.543 77.3975 104.499 77.1003 104.422C76.6279 104.3 76.1595 104.158 75.6976 104.001C75.1204 103.804 74.5513 103.583 73.9214 103.373C73.615 103.258 73.3072 103.148 73.0031 103.028ZM65.7986 77.7063C65.5301 77.2901 65.2475 76.8833 64.9699 76.4729C64.9314 76.4157 64.8892 76.361 64.8487 76.3053C64.822 76.3992 64.7843 76.4916 64.7704 76.5875C64.7244 76.9041 64.6986 77.2242 64.6442 77.5391C64.5366 78.1629 64.4779 78.7758 64.8823 79.3302C64.9078 79.3652 64.9279 79.4074 64.9395 79.4494C65.0881 79.9897 65.2341 80.5308 65.3824 81.0713C65.42 81.2082 65.4592 81.3448 65.5041 81.4794C65.6974 82.0582 65.9318 82.6268 66.0775 83.2172C66.2271 83.8238 66.3419 84.4334 66.6527 84.9874C66.742 85.1465 66.7709 85.3387 66.8369 85.5122C66.8565 85.5641 66.9214 85.6474 66.9419 85.641C67.0077 85.6205 67.0941 85.577 67.1163 85.5204C67.3729 84.8613 67.4966 84.1414 67.9835 83.5879C68.3971 83.1178 68.3113 82.6374 68.0575 82.1354C67.9585 81.9393 67.8972 81.7244 67.8085 81.5225C67.6172 81.0859 67.4341 80.6448 67.22 80.2192C67.0328 79.8475 66.8063 79.4959 66.6003 79.1336C66.4554 78.8788 66.3161 78.6209 66.1456 78.3357C66.0307 78.1254 65.9282 77.9072 65.7986 77.7063ZM81.2989 104.031C80.4608 103.49 79.6112 102.964 78.7991 102.385C78.1191 101.901 77.489 101.347 76.8281 100.835C76.6497 100.697 76.4451 100.651 76.2629 100.86C75.9676 101.197 75.6667 101.529 75.3719 101.867C75.1523 102.119 74.9413 102.378 74.7215 102.629C74.5495 102.826 74.5675 102.931 74.8192 103.006C75.6278 103.248 76.4422 103.47 77.2484 103.72C78.3489 104.061 79.4482 104.407 80.5387 104.777C80.8876 104.896 81.1951 105.136 81.5436 105.256C81.8976 105.378 82.2759 105.442 82.6489 105.494C83.0796 105.554 83.5159 105.578 83.9504 105.605C84.0198 105.609 84.0932 105.547 84.1646 105.516C84.1223 105.457 84.0901 105.386 84.0358 105.341C83.3469 104.778 82.524 104.486 81.6684 104.176C81.5446 104.129 81.4079 104.101 81.2989 104.031ZM70.3869 88.9228C70.4934 89.3271 70.7465 89.5235 71.1364 89.5602C71.473 89.5918 71.5719 89.4071 71.6539 89.1612C71.7714 88.8089 71.8878 88.4563 71.9981 88.1016C72.2431 87.3141 72.2081 86.5205 72.0614 85.72C72.0136 85.4589 72.0249 85.1868 72.0128 84.9196C72.0111 84.8809 72.0308 84.8411 72.0407 84.8017C72.0014 84.8133 71.9606 84.8212 71.9229 84.8368C71.6866 84.9345 71.4591 85.0699 71.2134 85.1251C70.7533 85.2285 70.2841 85.2969 69.8159 85.3568C69.635 85.3797 69.5278 85.3988 69.5852 85.62C69.6394 85.829 69.6611 86.0462 69.7043 86.2583C69.7972 86.7153 69.8947 87.1715 69.9904 87.6853C70.1244 88.0973 70.2766 88.5045 70.3869 88.9228ZM75.2909 84.608C75.3355 84.6458 75.3851 84.6777 75.4324 84.7123C75.4321 84.6483 75.4497 84.5774 75.4286 84.5212C75.3043 84.1908 75.1884 83.8555 75.0367 83.5376C74.713 82.8589 74.4156 82.161 74.0206 81.525C73.6322 80.8997 73.1093 80.3592 72.6966 79.747C72.4012 79.3085 72.192 78.8119 71.9396 78.3438C71.9009 78.2717 71.8367 78.2134 71.7843 78.1487C71.7602 78.2248 71.7137 78.3013 71.7155 78.3766C71.7276 78.8656 71.734 79.3557 71.7751 79.8426C71.803 80.1747 71.859 80.5094 71.9483 80.8301C72.0474 81.1862 72.2271 81.5205 72.3197 81.8778C72.4281 82.2959 72.6267 82.5605 73.0316 82.7838C73.703 83.1542 74.3959 83.5391 74.8683 84.2437C75.009 84.3654 75.149 84.4878 75.2909 84.608ZM72.3018 68.4002C72.0816 68.7209 72.4901 69.845 72.7123 69.9287C74.2675 70.514 74.7107 69.5124 74.7312 69.2374C74.7717 68.6915 74.839 68.1381 74.323 67.6957C72.962 67.4249 72.6579 67.8815 72.3018 68.4002ZM78.2566 68.8545C78.0476 68.3339 77.7314 67.9943 77.1805 68.113C76.8994 68.1737 76.6519 68.3965 76.3933 68.5529C75.8379 68.8887 75.7654 69.0726 75.9595 69.6681C76.1537 70.2641 76.6069 70.6056 77.1836 70.7215C77.6608 70.8173 78.0018 70.5214 78.254 70.076C78.3175 69.6693 78.4221 69.2667 78.2566 68.8545ZM76.1972 68.1813C76.4214 68.0219 76.6645 67.7858 76.9063 67.777C77.3248 67.762 77.2568 67.5064 77.2117 67.3052C77.0856 66.7429 76.9207 66.1887 76.7599 65.6348C76.6497 65.2555 76.5567 65.2337 76.2895 65.5009C75.8318 65.9584 75.3682 66.4071 74.7934 66.723C74.6137 66.8219 74.5889 67.0494 74.7175 67.2288C74.7653 67.2954 74.8302 67.3528 74.8661 67.4249C75.0429 67.7803 75.2032 68.1442 75.3919 68.4931C75.4337 68.5701 75.402 68.8429 75.6716 68.6421C75.8457 68.487 76.0082 68.3157 76.1972 68.1813ZM109.967 109.329C110.357 109.256 110.776 109.156 110.836 108.637C110.846 108.549 110.886 108.466 110.906 108.38C111.029 107.843 110.889 107.671 110.352 107.613C109.846 107.559 109.343 107.468 108.84 107.387C108.571 107.343 108.522 107.394 108.492 107.668C108.451 108.047 108.392 108.425 108.321 108.8C108.259 109.129 108.351 109.389 108.64 109.453C109.083 109.415 109.532 109.41 109.967 109.329ZM86.5332 133.765C86.5878 133.763 86.6807 133.654 86.6827 133.592C86.6962 133.182 86.6863 132.771 86.6909 132.361C86.6936 132.13 86.5167 132.122 86.3899 132.163C86.1136 132.251 85.8507 132.382 85.584 132.499C85.3914 132.584 85.1748 132.653 85.1981 132.93C85.2147 133.127 85.2147 133.327 85.2598 133.517C85.3349 133.832 85.6068 133.682 85.8289 133.745C86.0638 133.754 86.2993 133.775 86.5332 133.765ZM71.2486 100.398C71.2321 100.352 71.1643 100.323 71.12 100.286C71.0878 100.332 71.0317 100.376 71.0272 100.425C71.0003 100.72 70.9773 101.015 70.9682 101.311C70.9593 101.601 71.1641 101.788 71.4581 101.761C71.508 101.757 71.5963 101.669 71.5899 101.634C71.5466 101.399 71.4824 101.168 71.3964 100.907C71.3485 100.737 71.3073 100.564 71.2486 100.398ZM87.4167 105.817C87.4485 105.754 87.5154 105.578 87.3209 105.615C87.0239 105.671 86.7321 105.755 86.4401 105.834C86.3867 105.849 86.3431 105.899 86.295 105.933C86.3508 105.959 86.4059 106.006 86.4626 106.008C86.7005 106.017 86.9391 106.012 87.2061 105.983C87.2792 105.929 87.3802 105.889 87.4167 105.817ZM65.2561 75.7259C65.2103 75.7525 65.1645 75.7792 65.1189 75.8058C65.1548 75.8458 65.1844 75.9015 65.2292 75.9202C65.2561 75.9314 65.315 75.8929 65.3459 75.863C65.5225 75.6919 65.6959 75.5174 65.8684 75.342C65.9027 75.3068 65.9279 75.2625 65.9573 75.2223C65.8993 75.2337 65.8264 75.2266 65.7859 75.2595C65.6136 75.3991 65.4509 75.5503 65.2561 75.7259Z" fill="#00160A"/>
<path fill-rule="evenodd" clip-rule="evenodd" d="M71.4054 72.3847C71.1365 72.2392 70.8705 72.12 70.8146 71.7961C70.7062 71.1668 70.9328 70.4253 71.7531 70.4685C72.4926 70.5073 72.9618 71.1215 72.7003 71.8151C72.5073 72.3267 72.0391 72.5803 71.4054 72.3847Z" fill="black"/>
<path fill-rule="evenodd" clip-rule="evenodd" d="M75.0523 70.0369C75.0671 69.9404 75.0818 69.8729 75.0965 69.8053C75.1198 69.8642 75.1497 69.9214 75.1653 69.9822C75.2807 70.4337 75.6462 71.5577 75.2107 72.0748C75.1745 72.118 74.9908 72.1248 74.8764 72.1175C74.6516 72.1033 74.3894 71.7716 74.4312 71.5577C74.4375 71.5256 74.9801 72.0523 75.0965 71.7671C75.2908 71.2918 75.0523 70.2003 75.0523 70.0369Z" fill="#00160A"/>
<path fill-rule="evenodd" clip-rule="evenodd" d="M71.9909 73.3306C71.9683 73.3192 71.937 73.3221 71.9099 73.3233C71.8431 73.3261 71.7517 73.2064 71.7905 73.1557C71.8492 73.0794 71.9157 73.0026 71.9952 72.9523C72.0425 72.9224 72.1207 73.0193 72.1148 73.0622C72.1105 73.0942 72.1409 73.1444 72.1703 73.1661C72.6197 73.4961 73.1185 73.71 73.6643 73.8129C73.7003 73.8196 73.7317 73.8519 73.7653 73.8722C73.7319 73.8955 73.6985 73.9407 73.6649 73.9387C73.0694 73.9038 72.3809 73.5285 71.9909 73.3306Z" fill="#00160A"/>
<path fill-rule="evenodd" clip-rule="evenodd" d="M57.4835 99.1783L56.9179 101.594C56.8742 101.781 57.05 101.944 57.2332 101.887L59.1965 101.276C59.3617 101.224 59.4248 101.024 59.3188 100.887L57.9209 99.0829C57.7931 98.9179 57.5311 98.9751 57.4835 99.1783ZM57.725 99.5655L58.9574 101.039L57.1594 101.65L57.725 99.5655Z" fill="black"/>
<path fill-rule="evenodd" clip-rule="evenodd" d="M59.2382 85.2418C59.0315 85.2233 58.8948 85.4516 59.0089 85.625L60.4473 87.8117C60.5442 87.9592 60.7598 87.961 60.8593 87.8154L62.1831 85.8765C62.2899 85.7201 62.1892 85.5065 62.0006 85.4896L59.2382 85.2418ZM59.4328 85.4896L61.9059 85.9702L60.4473 87.4969L59.4328 85.4896Z" fill="black"/>
<path fill-rule="evenodd" clip-rule="evenodd" d="M68.3542 101.963H66.3254C66.1573 101.963 66.0379 102.126 66.0893 102.287L66.7708 104.405C66.8352 104.605 67.1035 104.639 67.2162 104.462L68.5635 102.344C68.6685 102.179 68.5498 101.963 68.3542 101.963ZM68.1889 102.376L67.1723 104.329L66.4908 102.211L68.1889 102.376Z" fill="black"/>
<path fill-rule="evenodd" clip-rule="evenodd" d="M61.7065 113.441L61.6137 115.277C61.604 115.47 61.8078 115.599 61.978 115.509L64.3369 114.252C64.5367 114.146 64.5011 113.849 64.2817 113.793L62.0157 113.213C61.8637 113.174 61.7144 113.284 61.7065 113.441ZM61.8857 113.616L64.0536 113.917L61.978 115.144L61.8857 113.616Z" fill="black"/>
<path fill-rule="evenodd" clip-rule="evenodd" d="M58.5786 90.8864L56.76 92.1471C56.6062 92.2538 56.6214 92.486 56.7881 92.5715L58.9164 93.6642C59.0943 93.7555 59.3016 93.6095 59.2755 93.4111L58.9658 91.0579C58.9417 90.8739 58.7312 90.7808 58.5786 90.8864ZM58.6517 91.3244L59.0297 93.4435L56.9013 92.351L58.6517 91.3244Z" fill="black"/>
<path fill-rule="evenodd" clip-rule="evenodd" d="M66.9234 96.2863L65.7887 97.9806C65.691 98.1265 65.7717 98.3249 65.9435 98.3612L67.2703 98.642C67.4343 98.6765 67.5846 98.5421 67.5684 98.3753L67.3764 96.4002C67.3538 96.1684 67.053 96.0929 66.9234 96.2863ZM67.2324 96.6257V98.4401L66.0916 97.9806L67.2324 96.6257Z" fill="black"/>
<path fill-rule="evenodd" clip-rule="evenodd" d="M67.1385 88.3036C67.4687 88.0882 67.7584 88.1393 67.5226 88.6135C67.5226 88.6135 65.8013 92.9776 65.287 93.0292C64.7994 93.0783 64.564 92.4476 63.8829 90.6443L63.854 90.5674C63.8514 90.5606 63.8492 90.5538 63.8472 90.5471L63.8436 90.5327L63.8391 90.5247L63.8297 90.5027L63.7482 90.2824C63.6521 90.0198 63.4099 89.5865 63.282 89.436C63.1456 89.2756 63.4499 89.1763 63.6748 89.1763C64.0944 89.1763 64.6079 89.2933 65.4154 89.0604C66.3613 88.7874 66.6858 88.5989 67.1385 88.3036ZM66.4064 90.5457L66.3838 90.5604C66.1435 90.7083 65.8782 90.822 65.5882 90.9012C65.2413 90.9959 64.738 91.0077 64.4123 90.9367L64.3579 90.924L64.3781 90.9741C64.5618 91.4321 64.7252 91.9616 64.8675 92.231L64.9173 92.3226C65.0065 92.4831 65.0849 92.5995 65.1482 92.6696L65.1681 92.6903L65.1927 92.6605C65.2989 92.5248 65.6766 92.0142 65.9392 91.5042L65.9666 91.4506C66.0791 91.2302 66.2016 90.9797 66.3343 90.6993L66.4064 90.5457ZM67.1149 88.8079L67.075 88.8306C66.7015 89.0385 66.0839 89.3836 65.553 89.5369C64.9174 89.7202 64.3788 89.7857 63.9355 89.7272L63.9084 89.723L63.9239 89.7668C63.9663 89.8854 64.1458 90.4464 64.2093 90.5327C64.4666 90.7703 64.7819 90.7929 65.1681 90.6993L65.2235 90.6851C66.6062 90.4179 67.1149 88.8079 67.1149 88.8079Z" fill="black"/>
<path fill-rule="evenodd" clip-rule="evenodd" d="M115.674 104.065C115.729 104.025 115.807 104.036 115.847 104.091C116.134 104.48 116.618 104.499 117.262 104.141C117.322 104.108 117.398 104.129 117.431 104.189C117.464 104.249 117.443 104.324 117.383 104.358C116.641 104.769 116.021 104.745 115.648 104.239C115.607 104.183 115.619 104.106 115.674 104.065Z" fill="#E7EAEE"/>
<path fill-rule="evenodd" clip-rule="evenodd" d="M114.736 105.058C114.787 105.012 114.866 105.016 114.912 105.067C115.346 105.544 115.923 105.571 116.392 105.321C116.452 105.289 116.528 105.311 116.56 105.372C116.592 105.432 116.569 105.507 116.509 105.54C115.948 105.839 115.249 105.806 114.728 105.233C114.682 105.183 114.686 105.104 114.736 105.058Z" fill="#E7EAEE"/>
<path fill-rule="evenodd" clip-rule="evenodd" d="M113.721 106.043C113.771 105.996 113.849 105.998 113.896 106.048C114.315 106.492 115.166 106.71 115.748 106.401C115.808 106.369 115.883 106.392 115.915 106.453C115.947 106.513 115.924 106.588 115.864 106.62C115.175 106.986 114.206 106.738 113.716 106.218C113.669 106.168 113.671 106.089 113.721 106.043Z" fill="#E7EAEE"/>
<path fill-rule="evenodd" clip-rule="evenodd" d="M114.509 109.931C115.38 109.51 114.48 107.949 113.637 108.581C113.097 108.986 113.69 110.328 114.509 109.931Z" fill="#E7EAEE"/>
</svg>
