<svg width="172" height="172" viewBox="0 0 172 172" fill="none" xmlns="http://www.w3.org/2000/svg">
<g clip-path="url(#clip0_28_4363)">
<path d="M172 0H0V172H172V0Z" fill="white"/>
<path d="M125.418 149.296C139.166 150.496 164.061 131.637 144.912 103.773C125.093 71.4873 158.928 48.3891 131.064 30.5011C110.867 17.5349 86.589 45.5504 70.3347 39.9886C35.6614 30.5011 13.7196 65.5508 29.0107 87.8347C40.437 104.486 12.7245 115.928 23.8507 129.115C36.2347 143.792 46.0481 127.925 64.2134 131.247C90.5867 136.07 109.489 147.906 125.418 149.296Z" fill="#0E9384"/>
<path d="M99.2797 35.402L99.4985 35.5325L99.715 35.6641C102.767 37.5405 101.983 40.5438 105.995 45.0064C114.683 54.6722 122.991 64.7018 130.892 75.0619L131.514 75.8807L131.695 76.1194C134.636 80.0107 135.929 82.5116 136.002 85.5124C136.056 87.7317 138.333 89.2228 136.681 90.9419L136.592 91.0336L136.584 91.0414L136.556 91.0717C136.163 91.4935 135.724 91.8682 135.244 92.1874L135.116 92.2707L135.076 92.2989C133.054 93.6774 130.674 94.2498 128.454 93.8269L128.335 93.8033L128.239 93.7824L128.226 93.8675C125.977 108.702 121.391 123.179 114.691 136.604L114.487 137.011L114.278 137.425L114.158 137.66L114.035 137.895C113.413 139.078 112.963 139.732 112.29 140.332C111.349 141.171 110.156 141.639 108.684 141.829C107.642 141.964 106.661 141.963 105.005 141.868L104.715 141.851C98.0691 141.448 91.3966 141.45 84.7471 141.858L84.1238 141.897L83.6087 141.931L83.5335 141.939C82.5274 142.046 81.6151 142.123 80.742 142.171L80.5246 142.182L80.2811 142.193L80.2366 142.197C79.2009 142.289 78.1664 142.391 77.133 142.503L75.3713 142.702L73.888 142.872L73.2353 142.943C73.0337 142.965 72.8449 142.984 72.6608 143.002L71.9629 143.067L71.9139 143.104C71.8891 143.122 71.8641 143.139 71.8386 143.156L71.7607 143.206L71.6795 143.254L71.4164 143.396L71.2403 143.265L71.1896 143.224L71.1412 143.182L71.0958 143.137L70.9791 143.145C68.4445 143.321 66.3394 143.256 64.3536 142.877L64.1734 142.841L63.9989 142.805C59.4991 141.853 55.7674 138.899 54.7898 135.048C51.1064 120.534 45.9533 106.393 39.4357 92.9121L39.3469 92.7296L39.3038 92.7552C37.7581 93.6311 35.8159 93.4162 34.1053 92.3062L34.017 92.248L33.9273 92.1867L33.9067 92.178C33.3703 91.9402 32.8937 91.5129 32.5541 90.9761L32.5066 90.8986L32.4729 90.824L32.46 90.8295C31.9062 90.1498 31.4964 89.3873 31.2673 88.5933L31.2342 88.4738L31.204 88.3541C30.4703 85.3074 31.414 82.1681 33.7241 78.1852C34.3954 77.0278 38.4759 70.2038 43.948 66.9651C49.9678 63.4024 48.847 63.7177 50.14 62.6078C51.1413 61.3467 47.1222 54.1064 43.5733 50.4533C40.0244 46.8003 53.9937 43.0842 55.0799 43.4857C55.3645 43.591 55.6273 43.7213 55.8702 43.8767L55.9729 43.9449L55.9841 43.9527L56.0117 43.882L56.0926 44.0306L56.1325 44.0604C56.624 44.4349 57.0269 44.9255 57.362 45.5325L57.4239 45.6477L57.4755 45.7476C57.853 46.4969 58.5882 46.876 58.9386 48.2747L59.1767 49.2425L59.2446 49.5147L59.3111 49.7743C59.5858 50.8304 60.0853 51.5773 60.3921 52.2123L60.4293 52.288L60.4481 52.3256L60.5339 52.2121C65.601 45.5422 71.4423 40.3856 78.8975 36.5709L78.8434 36.572C78.0194 36.572 80.1742 35.6013 85.6257 33.6719L85.9351 33.5634L86.2547 33.4535C90.2821 32.0835 95.0504 32.9059 99.2797 35.402Z" fill="white"/>
<path d="M129.34 93.2541L129.221 93.2305L129.125 93.2098L129.113 93.2947C126.863 108.129 122.277 122.606 115.577 136.031L115.373 136.438L115.164 136.852L115.044 137.087C114.357 138.421 113.893 139.121 113.176 139.759C112.235 140.599 111.042 141.066 109.57 141.257C108.528 141.391 107.801 140.967 105.143 140.727C114.187 135.794 115.588 126.467 118.751 120.4C127.939 102.779 122.237 97.9843 129.34 93.2541Z" fill="#E7EAEE"/>
<path d="M88.8906 158.174C88.7725 158.455 88.3907 158.561 88.1575 158.379C88.2992 158.181 88.4476 157.977 88.6547 157.861C88.862 157.746 89.1457 157.745 89.3041 157.928C89.1821 158.018 89.0599 158.108 88.9377 158.198L88.8906 158.174Z" fill="#00160A"/>
<path d="M88.9746 159.084C88.7021 159.109 88.4299 159.133 88.1575 159.157C88.2767 159.006 88.396 158.854 88.515 158.702C88.6714 158.695 88.8418 158.692 88.9679 158.772C89.0941 158.852 89.1214 159.05 88.9803 159.109L88.9746 159.084Z" fill="#00160A"/>
<path d="M97.8867 147.92C97.761 147.861 97.7688 147.695 97.8447 147.59C97.9208 147.484 98.0426 147.408 98.1133 147.3C98.1887 147.184 98.1974 147.046 98.2043 146.913C98.2263 146.484 98.2486 146.055 98.2706 145.627C98.4887 145.98 98.5311 146.413 98.3855 146.794C98.6063 146.761 98.8451 146.872 98.9361 147.051C98.6093 147.361 98.2584 147.651 97.8867 147.92Z" fill="#00160A"/>
<path d="M97.5316 147.691C97.1782 147.62 96.8932 147.293 96.8721 146.934C97.1154 147.026 97.3897 146.846 97.5073 146.615C97.625 146.384 97.6328 146.116 97.6681 145.859C97.7488 145.275 97.9875 144.714 98.3526 144.251C98.5769 144.61 98.4907 145.129 98.1621 145.398C97.6571 145.811 98.11 146.724 97.7087 147.238C97.6002 147.377 97.4261 147.549 97.5316 147.691Z" fill="#00160A"/>
<path d="M57.6562 61.2992C56.1284 62.9477 53.4534 63.6636 51.5401 62.4805C49.9744 61.5123 49.2979 59.6338 48.5562 57.953C47.7942 56.2266 46.8569 54.577 45.7632 53.0379C45.0357 52.0142 43.9966 50.9347 42.7495 51.1072C42.9853 50.698 43.5625 50.5939 44.0074 50.7549C44.4523 50.9157 44.792 51.2744 45.1029 51.6301C46.6681 53.4216 47.9551 55.454 48.9048 57.6329C49.372 58.7045 49.7634 59.8221 50.4242 60.7873C51.0849 61.7528 52.0786 62.5706 53.2447 62.6924C54.2581 62.7981 55.2436 62.3741 56.174 61.9597C56.668 61.7395 57.1622 61.5194 57.6562 61.2992Z" fill="#00160A"/>
<path d="M74.7366 156.186C76.2885 155.441 78.0578 155.37 79.7718 155.313C82.0184 155.237 84.2936 155.164 86.4869 155.665C87.2414 155.837 88.1278 156.258 88.1542 157.047C88.1806 157.834 88.0487 158.628 87.7689 159.363C87.4306 158.737 86.5573 158.761 85.8643 158.862C82.1716 159.398 78.3734 159.712 74.7398 158.853C74.3119 158.752 73.847 158.605 73.6154 158.224C73.3872 157.849 73.4668 157.34 73.7135 156.977C73.9603 156.614 74.3449 156.374 74.7366 156.186ZM79.065 158.696C77.8879 158.606 76.7132 158.483 75.5427 158.328C75.1989 158.282 74.843 158.229 74.5524 158.036C74.2616 157.844 74.0566 157.469 74.1644 157.133C73.8234 157.203 73.7381 157.711 73.9431 157.998C74.1483 158.284 74.5114 158.393 74.8499 158.474C78.5089 159.344 82.3298 158.922 86.0629 158.488C86.8112 158.401 87.7531 158.124 87.821 157.36C87.8911 156.567 86.9461 156.13 86.178 155.986C83.057 155.401 79.8471 155.629 76.6942 155.995C76.2119 156.051 75.7184 156.114 75.2863 156.34C74.854 156.565 74.4889 156.989 74.4662 157.483C75.5672 158.335 77.1166 158.038 78.4761 158.287C78.7249 158.333 79.0153 158.443 79.065 158.696Z" fill="#00160A"/>
<path d="M75.4855 125.493C75.7357 125.757 75.8444 126.144 75.7254 126.478C75.6063 126.813 75.2456 127.069 74.8702 127.05C74.4948 127.03 74.1542 126.711 74.1687 126.358C74.1879 125.897 74.3134 125.312 74.7966 125.225C75.0521 125.18 75.3123 125.311 75.4855 125.493ZM74.6702 126.159C74.4803 126.405 74.8631 126.767 75.163 126.654C75.463 126.541 75.5499 126.151 75.4137 125.877C75.3706 125.79 75.3087 125.709 75.2224 125.658C74.9417 125.491 74.5207 125.827 74.6509 126.114L74.6702 126.159Z" fill="#00160A"/>
<path d="M87.3233 151.595C87.2192 151.524 87.1151 151.453 87.0107 151.382C87.3171 150.655 87.3651 149.823 87.1444 149.067C88.0989 149.483 87.1571 151.39 88.0964 151.84C88.153 150.967 88.8408 150.237 89.6348 149.876C90.429 149.514 91.3211 149.45 92.1912 149.392C95.5158 149.17 98.92 148.955 102.122 149.879C102.737 150.056 103.442 150.394 103.517 151.032C103.591 151.667 102.978 152.166 102.388 152.408C101.439 152.797 100.396 152.874 99.372 152.917C96.4928 153.039 93.6038 152.93 90.7418 152.59C89.9451 152.496 89.077 152.345 88.5516 151.737C88.1799 152.148 87.5148 152.253 87.0346 151.977C87.1309 151.85 87.2272 151.722 87.3233 151.595ZM90.1017 150.115C89.8719 150.16 89.6196 150.222 89.4875 150.416C89.3105 150.677 89.4541 151.056 89.7091 151.24C89.9639 151.424 90.2916 151.465 90.6037 151.499C92.9131 151.753 95.2225 152.007 97.5321 152.261C95.3314 152.437 93.1066 152.31 90.9401 151.885C90.2689 151.753 89.5696 151.575 89.0711 151.106C88.8904 151.277 88.9553 151.599 89.1383 151.768C89.3215 151.936 89.5788 151.989 89.8233 152.034C93.5804 152.72 97.4427 152.824 101.231 152.341C101.799 152.268 102.415 152.157 102.794 151.727C103.173 151.297 103.084 150.451 102.526 150.323C98.4593 149.387 94.1969 149.315 90.1017 150.115Z" fill="#00160A"/>
<path d="M74.3601 117.972C74.2326 118.115 74.3218 118.342 74.3877 118.525C74.5275 118.913 74.5291 119.338 74.5291 119.753C74.5291 120.819 74.5289 121.885 74.5289 122.951C74.5289 123.147 74.4739 123.406 74.2865 123.414C74.2799 122.126 74.2732 120.837 74.2668 119.548C74.2643 119.056 74.2517 118.529 73.9801 118.127C73.8127 117.879 74.1927 117.554 74.4599 117.674C74.7271 117.793 74.836 118.123 74.8922 118.421C75.0124 119.058 75.0254 119.711 75.038 120.361C75.0539 121.172 75.0695 121.982 75.0853 122.793C75.0915 123.122 75.0279 123.547 74.719 123.611C74.8647 122.545 74.8592 121.465 74.8534 120.389C74.8491 119.551 74.8271 118.654 74.3601 117.972Z" fill="#00160A"/>
<path d="M73.6049 143.594C73.8019 143.913 73.9991 144.232 74.1961 144.551C74.1851 143.93 74.4569 143.31 74.9231 142.892C74.6979 143.395 74.6309 143.966 74.7337 144.507C75.0325 144.005 75.2359 143.449 75.3306 142.875C75.3701 143.296 75.4098 143.717 75.4492 144.138C76.4374 143.664 77.5673 143.589 78.6647 143.523C79.7114 143.46 80.758 143.397 81.8049 143.334C85.0422 143.138 88.2928 142.943 91.5259 143.197C92.5049 143.275 93.5223 143.408 94.3376 143.947C94.9173 144.33 95.3831 145 95.2414 145.673C95.0423 146.616 93.8775 146.961 92.9106 147.115C90.0366 147.573 87.1457 147.929 84.2455 148.182C80.733 148.488 77.0499 148.616 73.8368 147.186C73.346 146.967 72.8359 146.678 72.6289 146.188C72.4218 145.699 72.7222 144.994 73.2609 144.996C73.1621 144.644 72.9006 144.339 72.5644 144.185C72.9657 143.958 73.559 144.249 73.6164 144.701C73.6125 144.332 73.6086 143.963 73.6049 143.594ZM75.2433 146.783C76.9332 147.022 78.6232 147.262 80.3134 147.501C78.1696 147.648 75.9996 147.411 73.9406 146.805C75.0775 147.39 76.3253 147.765 77.6001 147.905C78.5569 148.011 79.5233 147.984 80.4851 147.945C84.9851 147.76 89.4727 147.285 93.9098 146.526C94.7593 146.38 94.932 145.117 94.3609 144.481C93.7901 143.845 92.854 143.697 91.9956 143.62C87.8958 143.247 83.7673 143.564 79.6625 143.88C78.0276 144.006 76.3734 144.136 74.8183 144.648C74.2927 144.821 73.6964 145.152 73.6861 145.698C73.6737 146.385 74.5518 146.685 75.2433 146.783ZM73.1985 145.351C72.868 145.473 72.8495 145.964 73.071 146.235C73.2228 146.42 73.454 146.541 73.6953 146.56C73.3673 146.306 73.2332 145.836 73.3788 145.451C73.3549 145.38 73.2721 145.335 73.1985 145.351Z" fill="#00160A"/>
<path d="M84.7986 109.168C84.8739 109.137 84.9493 109.239 84.9468 109.335C84.9443 109.43 84.8922 109.512 84.8427 109.586C84.689 109.817 84.5044 110.067 84.2588 110.08C84.2581 109.682 84.4854 109.297 84.7986 109.168Z" fill="#00160A"/>
<path d="M96.7801 115.483C92.2368 118.124 87.6815 120.77 82.8726 122.888C82.097 123.229 81.2212 123.561 80.4254 123.269C79.8665 123.065 79.4576 122.587 79.0962 122.114C77.8397 120.47 76.826 118.64 76.0986 116.702C75.916 116.215 75.7491 115.707 75.7764 115.188C75.8039 114.669 76.0658 114.132 76.5382 113.916C77.7732 113.352 79.0081 112.787 80.2431 112.223C80.4424 112.132 80.6497 112.035 80.785 111.862C80.9442 111.659 80.9765 111.387 81.0027 111.13C81.2006 109.201 81.3983 107.271 81.5959 105.342C81.6446 104.867 81.7191 104.341 82.086 104.036C82.453 103.731 83.1838 103.921 83.1549 104.398C83.1361 104.71 83.4471 104.927 83.7198 105.079C85.1719 105.887 86.6243 106.696 88.0767 107.504C88.3489 107.655 88.6796 107.809 88.9571 107.667C90.1897 107.037 91.4472 106.455 92.7253 105.922C93.1566 105.742 93.6369 105.566 94.0797 105.716C94.4365 105.837 94.6918 106.146 94.9204 106.446C96.2384 108.176 97.3259 110.082 98.1453 112.097C98.3653 112.638 98.5689 113.227 98.4343 113.795C98.2471 114.585 97.4816 115.076 96.7801 115.483ZM76.3139 115.706C76.7676 117.309 77.5737 118.811 78.6589 120.074C79.221 120.728 79.8947 121.341 80.7295 121.556C81.7764 121.827 82.8692 121.429 83.8652 121.009C86.8456 119.75 89.7059 118.227 92.5615 116.706C94.2189 115.823 95.8765 114.94 97.5341 114.057C97.761 113.937 98.0077 113.792 98.0852 113.547C98.1478 113.349 98.0818 113.135 98.0135 112.939C97.2502 110.749 96.1217 108.689 94.6886 106.867C94.4301 106.539 94.1315 106.199 93.7238 106.107C93.3023 106.012 92.875 106.207 92.4867 106.397C87.277 108.948 82.1071 111.58 76.9792 114.293C76.6928 114.444 76.3836 114.622 76.271 114.926C76.1793 115.174 76.2419 115.451 76.3139 115.706ZM97.5007 114.494C96.5675 114.995 95.6343 115.497 94.7012 115.999C91.1135 117.928 87.5196 119.86 83.7744 121.462C82.5 122.007 80.9313 122.484 79.817 121.659C79.2345 121.228 78.901 120.507 78.2825 120.13C78.9503 121.438 79.9177 122.936 81.3845 122.907C81.9078 122.897 82.4023 122.681 82.8791 122.464C87.9386 120.17 92.8298 117.503 97.5007 114.494ZM83.1497 105.376C82.9852 105.407 82.8992 105.583 82.7926 105.712C82.686 105.842 82.4546 105.922 82.3709 105.776C82.4039 105.629 82.4371 105.481 82.4704 105.334C82.4167 105.244 82.2725 105.255 82.1984 105.329C82.1243 105.403 82.1023 105.513 82.084 105.616C81.7503 107.487 81.5125 109.375 81.3723 111.27C81.3625 111.403 81.3689 111.567 81.4868 111.629C81.8718 111.457 81.8303 110.91 81.7842 110.49C81.6769 109.515 81.9117 108.488 82.5128 107.713C83.1141 106.938 84.0961 106.447 85.0729 106.526C85.1823 106.435 85.055 106.266 84.935 106.19C84.4548 105.886 83.9445 105.628 83.4143 105.423C83.3295 105.39 83.2389 105.359 83.1497 105.376ZM83.1682 109.42C83.1111 109.773 83.0699 110.239 82.7213 110.315C82.6534 110.557 83.0738 110.667 83.2409 110.48C83.4081 110.292 83.3921 110.011 83.4139 109.761C83.4737 109.077 83.9152 108.44 84.5337 108.144C85.1524 107.849 85.9251 107.906 86.4936 108.289C86.7924 108.491 87.1912 108.778 87.4563 108.534C87.6173 108.385 87.5909 108.107 87.4536 107.937C87.3162 107.766 87.1009 107.68 86.891 107.618C86.1432 107.394 85.3153 107.381 84.5975 107.688C83.8796 107.995 83.2935 108.649 83.1682 109.42ZM86.4743 107.019C85.4758 106.616 84.2771 106.754 83.3969 107.375C82.5165 107.996 81.9821 109.079 82.0246 110.156C82.0344 110.405 82.0727 110.652 82.111 110.897C82.1314 111.028 82.1883 111.193 82.3204 111.194C82.4952 111.196 82.5096 110.939 82.4759 110.767C82.2931 109.836 82.5768 108.826 83.2171 108.127C83.8572 107.428 84.8385 107.058 85.7799 107.161C86.0273 107.187 86.3305 107.222 86.4743 107.019ZM83.7613 110.313C84.5777 110.306 85.1251 109.517 85.6714 108.91C85.7154 108.861 85.7638 108.81 85.8274 108.794C85.9164 108.771 86.0182 108.832 86.0395 108.921C85.9468 109.027 85.8542 109.133 85.7615 109.239C86.0936 109.308 86.4608 109.116 86.5947 108.804C86.0939 108.292 85.2467 108.161 84.6142 108.497C83.9817 108.834 83.6171 109.611 83.7613 110.313ZM82.3236 104.812C82.5662 104.869 82.8396 104.728 82.9343 104.497C82.6827 104.261 82.2041 104.368 82.0762 104.689C82.1546 104.738 82.233 104.787 82.3115 104.836L82.3236 104.812ZM87.8141 107.948C87.7386 108.132 88.0583 108.297 88.1762 108.137C88.2941 107.977 88.0836 107.72 87.8973 107.789C87.8333 107.813 87.7824 107.861 87.7331 107.908L87.8141 107.948Z" fill="#00160A"/>
<path d="M110.248 119.928C109.246 119.263 108.922 117.959 108.739 116.771C108.251 113.584 108.209 110.33 108.615 107.133C108.676 106.657 108.757 106.156 109.062 105.785C109.621 105.105 110.65 105.141 111.53 105.182C113.854 105.291 116.195 105.016 118.431 104.371C118.804 104.264 119.205 104.52 119.393 104.86C119.58 105.2 119.606 105.602 119.628 105.99C119.745 108.092 119.863 110.194 119.98 112.295C120.08 114.085 120.148 116.007 119.19 117.522C117.948 119.487 115.402 120.129 113.088 120.348C112.116 120.44 111.062 120.468 110.248 119.928ZM110.53 105.534C110.271 105.552 110.005 105.585 109.781 105.715C109.364 105.956 109.195 106.464 109.082 106.933C108.668 108.654 108.571 110.45 108.797 112.206C110.563 112.291 112.337 112.219 114.091 111.992C114.189 111.98 114.291 111.965 114.369 111.905C114.513 111.796 114.521 111.588 114.515 111.408C114.472 110.039 114.362 108.672 114.185 107.313C114.131 106.891 114.056 106.441 113.763 106.132C113.501 105.856 113.112 105.745 112.738 105.672C112.012 105.529 111.268 105.482 110.53 105.534ZM112.472 119.242C112.973 119.207 113.561 119.115 113.785 118.667C113.865 118.509 113.883 118.329 113.901 118.153C114.03 116.866 114.158 115.578 114.287 114.291C114.308 114.086 114.324 113.862 114.21 113.689C113.993 113.359 113.496 113.444 113.117 113.554C111.772 113.942 110.378 114.157 108.979 114.193C108.606 115.136 109.139 116.167 109.274 117.172C109.318 117.498 109.32 117.834 109.437 118.14C109.643 118.681 110.182 119.04 110.744 119.182C111.305 119.324 111.895 119.284 112.472 119.242ZM117.067 117.581C116.358 118.408 115.099 118.743 114.662 119.741C117.444 119.529 119.8 116.855 119.659 114.07C119.52 111.33 119.382 108.591 119.243 105.851C119.232 105.638 119.219 105.415 119.114 105.229C118.883 104.818 118.311 104.749 117.852 104.855C117.393 104.961 116.958 105.192 116.487 105.204C117.842 105.997 117.996 107.859 117.992 109.428C117.99 110.141 117.988 110.853 117.986 111.565C118.332 111.229 119.001 111.484 119.119 111.951C119.238 112.419 118.886 112.919 118.427 113.068C117.731 113.295 117.733 114.257 117.768 114.989C117.812 115.905 117.665 116.885 117.067 117.581ZM115.792 105.388C115.555 105.358 115.315 105.393 115.078 105.428C114.831 105.464 114.583 105.501 114.336 105.537C115.119 106.254 115.524 107.303 115.697 108.349C115.871 109.396 115.838 110.465 115.889 111.524C115.894 111.617 115.906 111.723 115.983 111.774C116.043 111.815 116.122 111.807 116.193 111.798C116.515 111.756 116.838 111.715 117.16 111.674C117.239 111.664 117.323 111.651 117.382 111.598C117.457 111.533 117.472 111.424 117.483 111.325C117.634 109.899 117.78 108.427 117.359 107.057C117.121 106.285 116.593 105.489 115.792 105.388ZM113.811 119.721C114.255 119.532 114.683 119.242 114.891 118.806C115.04 118.493 115.061 118.137 115.079 117.79C115.184 115.792 115.288 113.795 115.393 111.797C115.503 109.708 115.538 107.39 114.171 105.806C115.254 109.557 114.831 113.556 114.398 117.436C114.295 118.365 113.982 119.523 113.056 119.655C112.151 119.625 111.246 119.596 110.341 119.567C111.397 120.13 112.709 120.188 113.811 119.721ZM117.438 114.672C117.452 114.287 117.466 113.903 117.48 113.518C116.873 113.487 116.26 113.56 115.677 113.731C115.541 115.173 115.474 116.622 115.477 118.07C115.477 118.099 115.477 118.13 115.49 118.157C115.54 118.261 115.697 118.212 115.793 118.149C116.118 117.934 116.447 117.716 116.702 117.422C117.338 116.691 117.403 115.64 117.438 114.672ZM109.077 113.935C110.489 113.677 111.901 113.418 113.313 113.16C113.655 113.097 114.051 113.048 114.314 113.276C114.387 113.088 114.461 112.889 114.428 112.689C114.396 112.49 114.212 112.3 114.014 112.339C112.561 112.616 111.068 112.686 109.596 112.545C109.262 112.513 108.92 112.727 108.802 113.041C108.685 113.355 108.804 113.741 109.077 113.935ZM118.073 111.83C117.421 111.971 116.769 112.112 116.117 112.253C116.019 112.275 115.915 112.3 115.849 112.374C115.766 112.466 115.768 112.605 115.774 112.728C115.785 112.94 115.796 113.151 115.807 113.363C116.486 113.213 117.165 113.063 117.844 112.913C118.119 112.853 118.412 112.782 118.605 112.576C118.797 112.37 118.815 111.981 118.569 111.843C118.422 111.76 118.239 111.794 118.073 111.83Z" fill="#00160A"/>
<path d="M100.197 34.9433L100.416 35.0738C103.571 36.974 106.017 39.2921 110.123 43.8598C118.812 53.5255 127.119 63.5551 135.02 73.9153L135.643 74.734L135.823 74.9727C138.764 78.8641 140.057 81.3649 140.13 84.3658C140.184 86.585 139.251 88.7642 137.599 90.4832L137.51 90.575L137.501 90.5828L137.474 90.613C137.081 91.0348 136.641 91.4095 136.162 91.7287L136.033 91.812L135.993 91.8402C133.972 93.2187 131.591 93.7911 129.371 93.3682L129.253 93.3446L129.156 93.3238L129.144 93.4088C126.894 108.243 122.308 122.721 115.608 136.146L115.404 136.552L115.195 136.966L115.075 137.201C114.388 138.535 113.924 139.235 113.207 139.874C112.266 140.713 111.073 141.181 109.601 141.371C108.559 141.505 107.578 141.504 105.923 141.409L105.632 141.392C98.9866 140.989 92.3141 140.992 85.6646 141.399L85.0413 141.439L84.5262 141.472L84.451 141.481C83.4449 141.587 82.5326 141.664 81.6595 141.712L81.4421 141.723L81.1986 141.734L81.1541 141.738C80.1184 141.83 79.0839 141.932 78.0505 142.044L76.2888 142.243L74.8054 142.413C74.3332 142.466 73.9464 142.507 73.5783 142.544C69.364 142.713 66.5948 142.671 65.2711 142.418L65.0909 142.383L64.9164 142.347C60.4166 141.394 56.6849 138.441 55.7072 134.589C52.0239 120.075 46.871 105.935 40.3531 92.4534L40.2644 92.2709L40.2213 92.2966C38.6756 93.1724 36.7333 92.9575 35.0228 91.8475L34.9345 91.7893L34.8448 91.7281L34.8242 91.7193C34.2877 91.4815 33.8112 91.0543 33.4715 90.5174L33.4241 90.4399L33.3984 90.3961L33.3775 90.3709C32.8237 89.6911 32.4139 88.9286 32.1848 88.1346L32.1517 88.0151L32.1215 87.8954C31.3878 84.8487 32.3315 81.7094 34.6416 77.7266C38.8467 70.4767 44.014 65.0316 50.176 61.9808L50.3629 61.889L50.6991 62.4878C45.2574 65.9806 40.5405 70.5977 36.9324 75.9632C34.4581 79.6422 33.098 83.0232 33.0938 86.2399L33.0945 86.386L33.0964 86.5068L33.1025 86.4951C34.6544 83.4429 37.248 80.8966 41.3881 77.8759L41.5665 77.7463L41.7326 77.6261C46.2566 74.3634 51.1843 71.286 56.8794 68.1047L57.6433 67.6799C61.8538 65.3488 65.4358 63.4905 72.4192 59.9752L79.7077 56.3061C81.7088 55.2927 83.2082 54.5228 84.8885 53.6473L85.3117 53.4253C88.7333 51.6158 91.3289 49.9132 93.3791 47.9871C96.0197 45.5064 97.5248 42.8179 97.7477 39.8049C97.928 37.371 97.0265 35.0648 95.3035 33.986C93.6291 32.9375 91.478 33.0148 88.4829 33.8971C77.6845 37.0779 68.0133 43.9657 61.4773 53.1306C61.075 53.6947 61.3491 54.2068 61.4773 54.5121C62.3166 56.5082 61.8032 58.752 60.8115 60.6761L60.7567 60.7807L59.9786 62.2298L60.6065 58.7621C60.5505 53.1306 59.4956 50.0279 57.1624 45.333L57.0644 45.1376L57.0069 45.0255L56.9688 45.1005C55.8838 47.1862 53.7997 48.8118 51.257 49.7059L51.1252 49.7516L50.9988 49.7938C48.8903 50.4859 47.0712 50.6895 43.3785 50.7895L42.5048 50.8106L42.4002 50.6499C41.7665 49.6743 42.3846 48.459 43.5684 47.5C46.0837 45.4621 49.0309 43.9611 52.1583 43.125C53.7368 42.7028 54.9112 42.6255 55.9974 43.0271C56.282 43.1323 56.5448 43.2626 56.7876 43.4181L56.8904 43.4862L56.9016 43.494L56.9291 43.4233L57.0101 43.572L57.05 43.6018C57.5415 43.9763 57.9444 44.4668 58.2794 45.0739L58.3414 45.189L58.393 45.289C58.7704 46.0382 59.0023 46.7558 59.353 48.1545L59.5908 49.122L59.6589 49.3945C59.9614 50.5907 60.2194 51.4012 60.5505 52.0871L60.5877 52.1628L60.6065 52.2002L60.6925 52.0866C67.2379 43.4706 76.3424 36.8234 86.5432 33.2132L86.8525 33.1047L87.1722 32.9949C91.1996 31.6248 95.9679 32.4472 100.197 34.9433ZM82.8027 93.4542C78.5663 93.6778 74.4133 95.574 71.3856 98.6422C70.0142 100.032 69.1313 101.419 68.8061 102.883L68.7774 103.017C68.5873 103.952 68.6006 104.809 68.763 106.493L72.2433 141.32C72.2706 141.591 72.303 141.782 72.3523 141.926L72.3649 141.961L72.6064 141.941L72.6396 141.911C73.0531 141.51 73.3285 140.9 73.412 140.23L73.4242 140.12L73.4265 140.092C73.4831 139.443 73.4173 138.896 73.1886 137.747L73.124 137.424L73.027 136.929C72.3325 133.312 71.9995 129.992 71.587 123.78L71.4574 121.817C70.9228 113.876 70.4834 110.185 69.3411 105.73C68.8256 103.72 69.4234 101.439 70.8228 99.629C72.0085 98.0953 73.6925 96.892 75.8734 95.8774C78.5195 94.6463 81.2738 93.9618 83.9673 93.9168C86.1421 93.8806 88.2996 94.2223 91.2973 94.9662L91.5864 95.0392C94.0536 95.6689 95.5122 96.2831 96.7506 97.4121C97.9956 98.5468 98.7997 100.069 99.542 102.324C101.186 107.317 101.817 112.82 101.725 119.45L101.712 120.218C101.667 122.344 101.569 124.328 101.362 127.537L101.063 132.079C100.922 134.295 100.85 135.659 100.791 137.265L100.785 137.459C100.761 138.337 100.81 138.805 101.015 139.27C101.216 139.729 101.61 140.07 102.014 140.159L102.07 140.169L102.316 123.521C102.406 116.745 102.346 113.473 101.956 109.534L101.943 109.409C101.733 107.312 101.457 105.585 101.042 103.969C100.832 103.15 100.581 102.342 100.29 101.548C99.4659 99.3048 98.4591 97.6561 97.0737 96.5372C95.5138 95.2777 93.8302 94.7481 90.3636 94.167L90.0531 94.1156C86.4512 93.5263 84.8152 93.3481 82.8027 93.4542ZM73.9938 140.841L73.9918 140.849C73.8961 141.211 73.751 141.551 73.5597 141.854L74.2931 141.778C74.5043 141.755 74.7314 141.73 74.9832 141.701L76.2131 141.559C76.1209 141.548 76.0292 141.535 75.9377 141.523L75.7161 141.49L75.4295 141.447L75.423 141.132L75.3921 141.151C75.1169 141.303 74.8128 141.403 74.5002 141.44L74.4218 141.448L74.1115 141.474L73.9938 140.841ZM63.7023 141.115L63.68 141.146C63.6449 141.192 63.6053 141.233 63.5617 141.27C64.0476 141.43 64.548 141.565 65.059 141.673C65.2234 141.708 65.3888 141.741 65.5553 141.771C64.9549 141.607 64.3657 141.401 63.794 141.155L63.7023 141.115ZM82.9257 78.0919C68.6077 78.879 53.9242 82.6616 39.079 89.0634L38.566 89.2857L39.092 89.5331C40.2926 90.0973 40.9723 91.0621 41.8672 93.024L43.279 96.1556C45.8867 101.961 47.4097 105.493 48.9699 109.433C51.171 114.992 52.864 120.04 54.1242 124.976L54.8089 127.71C54.8959 128.052 54.9754 128.361 55.0543 128.661L55.1589 129.055C55.8886 131.776 56.5815 133.757 57.4864 135.511C58.6448 137.757 60.0896 139.44 61.9559 140.587C62.473 140.904 63.1044 140.885 63.1677 140.636L63.1718 140.613L63.225 140.134L63.661 140.34C65.9383 141.419 68.541 141.8 71.0324 141.427L71.1684 141.405L67.7475 107.361L67.7149 107.035C67.4964 104.816 67.4986 103.555 67.8546 102.21C68.3256 100.43 69.4599 98.797 71.1304 97.2681C74.0411 94.6037 77.8125 92.897 81.7354 92.4688C84.3629 92.1821 87.0184 92.4092 90.7042 93.0871L91.0257 93.1469C93.8784 93.6884 95.6358 94.2624 97.2338 95.3536C99.2769 96.7488 100.685 98.8452 101.598 101.593C102.324 103.776 102.712 106.222 102.944 109.411C103.663 119.264 103.663 129.169 102.944 139.022C102.876 139.954 104.103 140.582 105.744 140.659L105.826 140.662L106.057 140.67L106.336 140.678C109.18 140.749 110.807 140.456 112.107 139.377C112.818 138.786 113.293 138.084 114.027 136.686L114.086 136.574C120.715 123.853 125.272 110.056 127.527 95.8898L127.594 95.4605C127.84 93.8833 128.104 92.7752 128.535 91.7872C129.089 90.5192 129.872 89.6317 130.959 89.1834L131.047 89.148L131.152 89.1075L131.106 89.0721C130.204 88.3851 129.126 87.7422 127.718 87.0107L127.406 86.8494C114.298 80.1467 98.8526 77.2165 82.9257 78.0919ZM83.5813 95.0022C81.2882 95.0931 78.9233 95.7166 76.5229 96.802C73.0646 98.3659 70.7327 100.654 70.385 103.377C70.3626 103.552 70.3483 103.731 70.3417 103.913L70.338 104.047C70.3224 104.822 70.422 105.522 70.6962 106.797L70.9088 107.762C71.6067 110.968 71.9823 114.099 72.3555 119.01L72.6401 122.877C73.2467 130.994 73.7351 135.574 74.6401 140.55L74.6688 140.707L74.7158 140.694C74.9912 140.61 75.2467 140.458 75.4492 140.255L75.4987 140.202L76.0794 139.566L76.1053 140.851L76.2512 140.871C77.6976 141.061 79.2114 141.118 80.8635 141.059L81.1389 141.049L81.6503 141.004C82.3466 140.944 83.0435 140.889 83.74 140.839L84.4521 140.788L85.0163 140.726C85.7545 140.643 86.4606 140.554 87.8098 140.38L88.9821 140.229C92.7173 139.758 94.6614 139.598 96.9134 139.644L97.2177 139.652L98.0791 139.681L98.3107 139.686C98.9091 139.694 99.3597 139.663 99.7693 139.57L99.8076 139.561L99.8009 139.075C99.7755 136.709 99.8532 134.318 100.038 130.997L100.196 128.327L100.346 125.841C100.461 123.862 100.52 122.645 100.568 121.213C100.815 113.816 100.288 108.118 98.5726 102.922C97.7922 100.56 96.9033 98.966 95.5704 97.8909C94.4162 96.9598 93.1076 96.4812 90.6588 95.9175L90.3015 95.8361C87.4243 95.1866 85.5389 94.925 83.5813 95.0022ZM102.756 140.321L102.753 140.554L103.04 140.567C102.936 140.491 102.841 140.409 102.756 140.321ZM100.5 139.774L100.506 140.075L100.258 140.152C99.6847 140.329 99.107 140.385 98.2981 140.374L97.994 140.367L97.2996 140.343L97.1982 140.34C96.0378 140.307 94.9799 140.327 93.7369 140.416C96.2038 140.386 98.6712 140.412 101.137 140.493C100.883 140.307 100.664 140.06 100.5 139.774ZM131.668 89.5253L131.378 89.7439C130.608 90.3236 129.989 91.104 129.596 91.9844L129.567 92.0514L129.58 92.0544C130.594 92.2672 131.186 92.281 131.747 92.0496L131.799 92.0271C132.532 91.704 132.884 90.6995 132.43 90.2365C132.213 90.0154 131.989 89.8037 131.753 89.5985L131.668 89.5253ZM38.9625 91.9021L38.6116 92.0232C38.4646 92.0727 38.3311 92.1143 38.208 92.1475C38.7772 92.1351 39.3241 91.9989 39.8204 91.7317C39.6218 91.7099 39.3668 91.7659 38.9625 91.9021ZM97.7319 34.9123L97.7406 34.9318C99.1379 38.2021 98.979 42.1141 97.2657 45.2387C95.6145 48.2508 93.075 50.2758 88.3487 52.9306L87.5197 53.3918C83.9994 55.3393 80.825 56.988 75.1079 59.8672L69.3056 62.7844C63.3126 65.8074 60.0893 67.4969 56.2994 69.6274C50.4959 72.8897 45.5572 76.0616 41.0872 79.4814L40.7662 79.7284C38.0215 81.8514 36.2699 83.5232 34.9026 85.5051C33.9756 86.8488 33.5358 88.039 33.6846 89.1598C33.7176 89.4077 33.7949 89.6576 33.9098 89.8934L33.9545 89.9812L33.9667 90.0035L33.9756 90.0142C34.291 90.389 34.6512 90.7293 35.0404 91.0212L35.1578 91.1072L35.1776 91.121L35.2161 91.1361C35.4165 91.21 35.6192 91.2448 35.8199 91.2391L35.8318 91.2382L35.8273 91.1866C35.728 89.9 36.9015 88.7891 38.668 88.0165L38.7524 87.9801C54.5659 81.2303 70.1357 77.3904 85.2516 76.9033C102.007 76.3632 118.157 80.0724 131.469 87.8986C131.875 88.1376 132.222 88.361 132.516 88.583L132.713 88.7392C133.263 89.1928 133.6 89.6549 133.783 90.2466C133.971 90.8538 133.82 91.5409 133.464 92.0471L133.442 92.0773C134.143 91.9757 134.839 91.7239 135.492 91.3373L135.595 91.2751L135.648 91.2421L135.732 91.1841C136.1 90.9245 136.449 90.6387 136.774 90.3323L136.912 90.1995L136.994 90.1177L137.028 90.0812C137.51 89.5503 137.903 88.9488 138.182 88.3117C139.172 86.0495 139.027 83.242 137.927 80.5423L137.847 80.3494C137.002 78.3368 135.898 76.7037 133.543 73.6855C127.108 65.4384 120.31 57.1792 113.114 48.8432L112.417 48.0364C109.389 44.5388 107.481 42.4714 105.343 40.4808L105.241 40.3861C102.779 38.1053 100.364 36.3142 97.8346 34.9667L97.7319 34.9123ZM38.1593 89.473L38.1004 89.5026C37.6431 89.7326 37.3842 89.9319 37.1872 90.2135C36.8943 90.6318 36.9411 91.24 37.275 91.4464C37.5234 91.6001 37.7899 91.5753 38.4247 91.3602L38.5898 91.3029C38.9437 91.1786 39.2255 91.0937 39.4682 91.055L39.4909 91.0515L39.3555 90.8756C39.1946 90.6699 39.0292 90.4676 38.8593 90.2693L38.688 90.072L38.1593 89.473ZM52.6307 44.2354L52.5486 44.2524L52.5578 44.3437C52.6268 45.0445 52.1916 45.6268 51.4373 46.1494L51.3699 46.1955C50.2681 46.9356 49.0419 47.489 47.7581 47.8254C46.7116 48.0997 45.8849 48.1116 45.1797 47.7293C45.1033 47.6878 44.9274 47.7527 44.7059 47.9366C44.1982 48.3581 43.7528 48.8549 43.3886 49.4053L43.3134 49.5211L45.9234 49.5053C46.8015 49.4956 47.2923 49.4741 47.8519 49.4144L47.9145 49.4076C50.9639 49.0698 53.8616 47.4963 55.8054 45.1227L55.887 45.0202C56.0641 44.7918 56.1466 44.6326 56.1659 44.4714C56.1856 44.3065 56.0884 44.1444 55.9964 44.1313C54.8798 43.9721 53.7366 44.0114 52.6307 44.2354ZM52.1565 44.3728C49.3403 44.615 46.7174 46.0389 45.5572 47.4876C45.5572 47.5915 45.6494 47.6564 45.8117 47.686C46.1897 47.222 46.7174 46.7613 47.3524 46.3421C47.5714 46.9909 48.9334 46.7168 49.8806 46.4748C51.1481 45.7848 52.1565 44.9349 52.1565 44.3728ZM96.3431 33.9097L96.3685 33.9319C96.4405 33.9968 96.5107 34.064 96.5793 34.1328L96.4846 33.9592L96.3685 33.9184L96.3431 33.9097Z" fill="#00160A"/>
<path d="M95.1393 90.6248C100.634 93.5412 103.527 98.5533 102.893 98.8425C102.259 99.1319 97.1056 90.0872 84.3613 91.144C67.9246 91.7132 65.8915 103.076 65.232 102.852C64.5722 102.629 67.1304 95.3887 73.2336 91.5256C79.3371 87.6625 89.6447 87.7083 95.1393 90.6248Z" fill="#E7EAEE"/>
<path d="M91.7482 114.232C91.6977 114.059 91.6191 113.895 91.5149 113.747C91.3601 113.552 91.1932 113.368 91.0145 113.194C90.787 112.958 89.8979 112.208 89.8523 112.01C89.8365 111.977 89.8108 111.949 89.7791 111.931C89.7316 111.894 89.6794 111.863 89.6305 111.828C89.5117 111.741 89.3966 111.65 89.2744 111.569C89.2294 111.539 89.1562 111.547 89.1182 111.513C88.9643 111.376 88.8272 111.22 88.6685 111.089C88.4774 110.931 88.2657 110.799 88.0729 110.643C87.8956 110.515 87.6936 110.426 87.4796 110.382C87.2097 110.3 86.9216 110.3 86.6512 110.38C86.4036 110.457 86.252 110.627 86.0958 110.799C85.9472 110.961 85.8786 111.182 85.9087 111.4C85.8866 111.398 85.8646 111.394 85.8431 111.389C85.5009 111.291 85.2083 111.415 84.9422 111.609C84.7707 111.733 84.6308 111.895 84.5345 112.084C84.443 112.247 84.3957 112.431 84.3974 112.618C84.3939 112.688 84.3866 112.758 84.3753 112.827C84.3591 113.017 84.3435 113.206 84.3288 113.396C84.3212 113.499 84.3446 113.614 84.3049 113.701C84.2185 113.876 84.1868 114.073 84.2141 114.266C84.2293 114.366 84.2389 114.467 84.3407 114.49C84.3171 114.531 84.299 114.575 84.2861 114.621C84.2733 114.712 84.2717 114.804 84.2657 114.896C84.2467 115.182 84.2233 115.468 84.2104 115.755C84.204 115.901 84.2228 116.048 84.2192 116.194C84.1951 116.549 84.2607 116.904 84.4097 117.227C84.5054 117.435 84.6455 117.621 84.82 117.769C84.9828 117.9 85.1525 118.022 85.3663 118.054C85.4871 118.072 85.6098 118.08 85.7316 118.091C85.8229 118.099 86.0084 118.11 86.0768 118.119C86.1678 118.094 86.2774 118.102 86.3648 118.082C86.3953 118.075 86.426 118.068 86.4568 118.061C86.6428 117.991 86.8565 117.892 86.9833 117.833C87.262 117.701 87.5073 117.508 87.7011 117.268C87.8357 117.121 87.9277 116.94 87.9667 116.745C88.0066 116.488 87.9807 116.226 87.8915 115.982C87.7835 115.694 87.6605 115.412 87.5479 115.126C87.4326 114.833 87.3158 114.539 87.2117 114.242C87.164 114.14 87.1473 114.026 87.164 113.915C87.176 113.788 87.162 113.661 87.1228 113.54C87.0812 113.353 87.0255 113.169 86.9757 112.983L87.0207 112.965C87.0498 113.01 87.0769 113.056 87.1083 113.099C87.1828 113.224 87.2718 113.34 87.3732 113.444C87.4732 113.534 87.5475 113.65 87.5885 113.779C87.656 113.953 87.6998 114.137 87.7738 114.308C87.9204 114.647 88.0754 114.983 88.2385 115.315C88.3006 115.445 88.382 115.565 88.4802 115.671C88.7912 116 89.1984 116.222 89.6436 116.305C89.9048 116.35 90.1724 116.339 90.4293 116.274C90.7657 116.205 91.073 116.036 91.3104 115.787C91.389 115.7 91.4581 115.604 91.5163 115.501C91.617 115.345 91.7041 115.18 91.7771 115.009C91.8745 114.752 91.8266 114.485 91.7482 114.232ZM88.451 111.022C88.6432 111.196 88.8317 111.375 89.0336 111.562C88.9521 111.588 88.9012 111.623 88.8411 111.537C88.7774 111.469 88.7077 111.406 88.6327 111.35C88.6081 111.314 88.5891 111.275 88.5763 111.234C88.5267 111.231 88.4387 111.237 88.4577 111.127C88.3972 111.11 88.3412 111.094 88.2701 111.074C88.3359 110.982 88.3939 110.97 88.451 111.022ZM88.3458 110.947L88.1598 111.007L88.2015 110.869L88.0772 110.907C88.0277 110.865 87.9866 110.817 88.033 110.744C88.13 110.807 88.2268 110.87 88.3458 110.947ZM87.8108 110.623L88.0311 110.743C87.9231 110.787 87.852 110.739 87.7961 110.654L87.8108 110.623ZM86.2304 111.854L86.3281 111.987L86.2914 112.017L86.1979 111.878L86.2304 111.854ZM84.5464 113.543C84.576 113.2 84.5964 112.855 84.6441 112.515C84.6599 112.357 84.7143 112.205 84.8021 112.073C84.9572 111.868 85.1319 111.673 85.419 111.625C85.5851 111.583 85.7603 111.595 85.919 111.66C85.9474 111.67 85.9717 111.689 85.9887 111.714C86.1027 111.942 86.2527 112.15 86.4334 112.329C86.5728 112.485 86.6696 112.674 86.7145 112.877C86.7501 113.015 86.768 113.158 86.7923 113.298C86.7959 113.332 86.7978 113.366 86.798 113.4C86.4141 113.295 86.0357 113.33 85.6651 113.377C85.2952 113.423 84.9324 113.527 84.5567 113.608C84.5499 113.587 84.5464 113.565 84.5464 113.543ZM86.3474 112.058L86.3838 112.042L86.4786 112.125C86.4409 112.135 86.4029 112.156 86.3944 112.147C86.3742 112.12 86.3584 112.089 86.3474 112.058ZM86.5015 112.204C86.5217 112.206 86.5517 112.198 86.5607 112.209C86.5905 112.244 86.6446 112.282 86.5503 112.35L86.5015 112.204ZM84.3366 114.045C84.3421 113.932 84.3609 113.84 84.5038 113.801C84.6489 113.762 84.7778 113.664 84.9221 113.618C85.1028 113.56 85.2879 113.518 85.4757 113.492C85.7041 113.457 85.9348 113.441 86.1657 113.442C86.3882 113.452 86.6095 113.478 86.8281 113.521C86.9526 113.56 87.0457 113.664 87.0702 113.793C86.8932 113.846 86.4928 113.852 86.4666 113.856C86.2313 113.892 85.9951 113.922 85.7601 113.959C85.6502 113.977 85.5429 114.009 85.4335 114.028C85.3975 114.035 85.1083 114.098 85.0182 114.121C84.7985 114.178 84.5758 114.224 84.337 114.278C84.3366 114.204 84.3327 114.125 84.3366 114.045ZM84.8102 117.627L84.5437 117.272L84.5613 117.256C84.5833 117.28 84.6056 117.304 84.6271 117.328C84.6838 117.392 84.7427 117.455 84.7955 117.522C84.8127 117.551 84.8257 117.583 84.8342 117.616L84.8102 117.627ZM85.1379 117.832L85.1184 117.849L84.9789 117.754L85.1097 117.708L85.1379 117.832ZM85.344 117.928C85.2741 117.935 85.2232 117.908 85.2161 117.838C85.2142 117.819 85.2615 117.79 85.2906 117.774C85.3119 117.787 85.3287 117.806 85.3383 117.829C85.3445 117.861 85.3463 117.895 85.344 117.928ZM85.7256 117.977L85.6981 117.999C85.6468 117.954 85.5952 117.909 85.5399 117.861L85.494 117.977L85.4034 117.846L85.4294 117.804C85.5245 117.82 85.6197 117.836 85.7252 117.854L85.7256 117.977ZM85.944 117.993C85.8316 118.008 85.8295 118.006 85.8057 117.857C85.8279 117.854 85.8502 117.851 85.8727 117.849C85.8951 117.846 85.9176 117.845 85.9415 117.843L85.944 117.993ZM86.1573 117.992C86.046 118.018 86.0261 117.996 86.0233 117.853C86.0582 117.852 86.093 117.852 86.1254 117.852L86.1573 117.992ZM86.5313 117.896C86.5313 117.909 86.5068 117.936 86.4994 117.934C86.4799 117.927 86.4632 117.915 86.451 117.898C86.4325 117.868 86.4093 117.841 86.3825 117.818C86.3591 117.89 86.4125 117.993 86.299 117.993C86.263 117.993 86.2272 117.905 86.1809 117.844L86.5208 117.742C86.5251 117.795 86.5318 117.845 86.5313 117.896ZM86.7393 117.86L86.6311 117.891L86.5944 117.729C86.6354 117.708 86.6703 117.691 86.7104 117.671L86.7393 117.86ZM86.8205 117.795L86.7921 117.638L86.9134 117.575C86.9491 117.758 86.9436 117.77 86.8205 117.795ZM87.2165 117.58L87.1439 117.457L87.1083 117.464C87.1065 117.498 87.1097 117.531 87.1182 117.564C87.1381 117.611 87.1489 117.646 87.0874 117.665C87.0312 117.681 87.0065 117.652 86.9964 117.602C86.9907 117.572 86.9833 117.544 86.9771 117.516C87.0643 117.453 87.1468 117.392 87.2333 117.329L87.3363 117.501C87.3003 117.524 87.2583 117.552 87.2165 117.58ZM87.6931 115.787C87.7371 115.889 87.7741 115.993 87.8032 116.1C87.811 116.128 87.8197 116.155 87.8296 116.183C87.897 116.367 87.9071 116.568 87.8582 116.759C87.8571 116.764 87.8477 116.767 87.8422 116.771C87.8422 116.894 87.7876 117.011 87.6931 117.09L87.5548 117.018L87.5294 117.045L87.6502 117.168C87.6218 117.2 87.5839 117.243 87.5459 117.286L87.4551 117.172C87.3865 117.242 87.408 117.284 87.5225 117.322L87.381 117.451L87.3025 117.271C87.4218 117.089 87.5296 116.9 87.6248 116.704C87.6408 116.612 87.6617 116.521 87.6876 116.431C87.6938 116.41 87.7266 116.393 87.7507 116.381C87.7738 116.373 87.7979 116.367 87.8224 116.364L87.8252 116.334L87.7163 116.301L87.6931 115.787ZM87.6025 115.934C87.6482 116.177 87.6243 116.427 87.5342 116.657C87.4388 116.985 87.2184 117.262 86.9207 117.429C86.7549 117.527 86.5815 117.612 86.4024 117.683C86.2628 117.732 86.1151 117.754 85.9674 117.746C85.7218 117.741 85.4777 117.706 85.2406 117.642C85.0592 117.586 84.7209 117.257 84.704 117.232C84.6508 117.152 84.598 117.072 84.5528 116.988C84.4444 116.802 84.3724 116.598 84.3409 116.385C84.3208 116.192 84.3134 115.998 84.3194 115.803C84.3253 115.593 84.3515 115.384 84.3696 115.174C84.3868 114.976 84.4019 114.778 84.4253 114.581C84.4352 114.543 84.4613 114.511 84.4969 114.495C84.5957 114.455 84.6969 114.422 84.8001 114.395C84.8739 114.376 84.9533 114.377 85.0273 114.358C85.3395 114.277 85.647 114.173 85.963 114.115C86.2306 114.066 86.5093 114.083 86.7799 114.047C86.9819 114.02 87.0514 114.113 87.0957 114.285C87.1443 114.475 87.2156 114.66 87.2755 114.848C87.2826 114.87 87.3661 115.075 87.3911 115.18C87.4514 115.434 87.5422 115.68 87.6025 115.934ZM86.8675 112.597C86.8425 112.599 86.7973 112.607 86.7955 112.601C86.7868 112.565 86.7813 112.528 86.779 112.49L86.8411 112.481L86.8675 112.597ZM86.6762 112.489L86.6425 112.34L86.6769 112.328L86.7838 112.441L86.6762 112.489ZM86.6822 112.216C86.5091 112.035 86.3247 111.864 86.2185 111.628C86.0573 111.322 86.1634 110.944 86.4602 110.766C86.6558 110.634 86.8884 110.567 87.1244 110.575C87.3938 110.576 87.6541 110.674 87.858 110.851C88.0802 111.038 88.3038 111.225 88.5231 111.416C88.6031 111.486 88.6724 111.567 88.7563 111.653C88.6373 111.71 88.5233 111.761 88.4121 111.817C88.0894 111.978 87.7871 112.177 87.5119 112.41C87.428 112.487 87.3523 112.572 87.2863 112.665C87.2372 112.73 87.2028 112.749 87.139 112.681C86.9897 112.524 86.8324 112.373 86.6822 112.216ZM86.9361 112.739C86.9209 112.708 86.9118 112.674 86.9092 112.639L86.9363 112.628L87.0205 112.698L87.0202 112.733C86.9909 112.736 86.9448 112.751 86.9361 112.739ZM87.0925 112.95L87.0368 112.805C87.0611 112.804 87.0897 112.793 87.1088 112.802C87.1746 112.834 87.1555 112.877 87.0925 112.95ZM87.4216 113.297C87.3452 113.24 87.2785 113.171 87.2241 113.093C87.2019 113.06 87.2168 112.988 87.2358 112.943C87.3434 112.706 87.514 112.505 87.7291 112.359C88.041 112.122 88.3839 111.929 88.748 111.785C88.8067 111.763 88.8657 111.74 88.9226 111.713C89.1712 111.597 89.4317 111.732 89.572 111.973C89.4897 111.992 89.4115 112.007 89.3347 112.027C88.6143 112.186 87.9772 112.604 87.5443 113.201C87.5147 113.243 87.4321 113.305 87.4216 113.297ZM87.8355 114.084C87.7708 113.909 87.6961 113.737 87.6119 113.57C87.5775 113.523 87.5844 113.458 87.6277 113.419C87.6793 113.366 87.7273 113.31 87.7807 113.259C88.1192 112.938 88.4701 112.632 88.8879 112.416C89.015 112.349 89.1457 112.289 89.2799 112.238C89.406 112.187 89.5379 112.151 89.6725 112.13C89.7264 112.123 89.7968 112.184 89.8472 112.228C89.9676 112.333 90.0823 112.445 90.196 112.558C90.41 112.77 90.626 112.98 90.8329 113.199C91.0652 113.444 91.2136 113.739 91.3315 114.131C91.3491 114.329 91.3542 114.528 91.3466 114.727C91.3186 114.956 91.1978 115.164 91.0125 115.302C90.8313 115.455 90.6371 115.593 90.4323 115.712C90.0743 115.917 89.6431 115.948 89.2592 115.798C89.0336 115.71 88.8251 115.582 88.6439 115.421C88.4987 115.281 88.3701 115.126 88.2605 114.957C88.0756 114.689 87.9323 114.395 87.8355 114.084ZM88.7327 115.798C88.693 115.719 88.6643 115.661 88.6322 115.597C88.5717 115.635 88.5318 115.587 88.4937 115.529C88.4249 115.423 88.3543 115.319 88.2843 115.215L88.3073 115.197C88.4669 115.36 88.5829 115.572 88.8214 115.645C88.79 115.699 88.7703 115.733 88.7327 115.798ZM89.0235 115.924C88.8989 115.922 88.8476 115.855 88.8694 115.715C89.0303 115.796 89.0303 115.796 89.0235 115.924ZM91.708 114.524C91.6918 114.577 91.7716 114.681 91.622 114.665C91.6044 114.67 91.5906 114.683 91.5856 114.701C91.5899 114.719 91.6032 114.733 91.6207 114.739C91.658 114.744 91.6959 114.746 91.7335 114.744C91.7218 114.816 91.7055 114.888 91.6849 114.958C91.6814 114.968 91.6179 114.964 91.5842 114.957C91.542 114.945 91.5005 114.93 91.4601 114.913L91.4395 114.96C91.5058 114.994 91.572 115.029 91.6489 115.069C91.6236 115.133 91.5929 115.195 91.5574 115.254C91.492 115.346 91.4482 115.2 91.3629 115.243L91.4783 115.384L91.3739 115.51C91.265 115.731 91.081 115.906 90.8547 116.004C90.7974 116.031 90.7731 116.027 90.7442 115.973C90.7196 115.935 90.6921 115.898 90.6618 115.864L90.6238 115.889L90.7134 116.077C90.6524 116.119 90.593 116.176 90.5261 116.105C90.4859 116.054 90.4506 116 90.4208 115.942L90.3891 115.954L90.4584 116.181C90.4024 116.179 90.3275 116.198 90.2814 116.169C90.2355 116.141 90.2188 116.066 90.1823 115.998C90.1151 116.076 90.1782 116.134 90.1942 116.197C90.0649 116.309 90.0534 116.152 89.9874 116.087C89.9773 116.133 89.98 116.169 89.9633 116.186C89.9381 116.212 89.905 116.229 89.8692 116.235C89.855 116.237 89.8284 116.197 89.819 116.171C89.8057 116.128 89.7952 116.084 89.7874 116.039L89.75 116.043L89.731 116.231C89.6759 116.208 89.6101 116.201 89.586 116.166C89.559 116.126 89.5695 116.061 89.5638 116.007L89.5209 116.003L89.4895 116.156C89.3333 116.17 89.3821 116.018 89.3149 115.927C89.2961 115.988 89.2822 116.034 89.2679 116.079C89.1214 116.029 89.0854 115.972 89.1308 115.857C89.3631 115.953 89.6138 115.997 89.8651 115.985C90.0972 115.975 90.3222 115.903 90.5178 115.777C90.6994 115.664 90.8751 115.542 91.0441 115.411C91.198 115.286 91.3184 115.126 91.3945 114.943C91.4805 114.722 91.4936 114.479 91.4315 114.25C91.39 114.078 91.3526 113.905 91.3111 113.722C91.4152 113.789 91.4961 113.887 91.542 114.002C91.5858 114.098 91.6241 114.198 91.6567 114.298C91.6837 114.348 91.6755 114.41 91.6363 114.45C91.5686 114.528 91.6693 114.502 91.708 114.524Z" fill="black"/>
</g>
<defs>
<clipPath id="clip0_28_4363">
<rect width="172" height="172" fill="white"/>
</clipPath>
</defs>
</svg>
