<svg width="56" height="56" viewBox="0 0 56 56" fill="none" xmlns="http://www.w3.org/2000/svg">
<rect x="4" y="4" width="48" height="48" rx="24" fill="#DCFAE6"/>
<path opacity="0.9" fill-rule="evenodd" clip-rule="evenodd" d="M28 19C23.0294 19 19 23.0294 19 28C19 32.9706 23.0294 37 28 37C32.9706 37 37 32.9706 37 28C37 23.0294 32.9706 19 28 19ZM17 28C17 21.9249 21.9249 17 28 17C34.0751 17 39 21.9249 39 28C39 34.0751 34.0751 39 28 39C21.9249 39 17 34.0751 17 28ZM33.2071 24.2929C33.5976 24.6834 33.5976 25.3166 33.2071 25.7071L27.2071 31.7071C26.8166 32.0976 26.1834 32.0976 25.7929 31.7071L22.7929 28.7071C22.4024 28.3166 22.4024 27.6834 22.7929 27.2929C23.1834 26.9024 23.8166 26.9024 24.2071 27.2929L26.5 29.5858L31.7929 24.2929C32.1834 23.9024 32.8166 23.9024 33.2071 24.2929Z" fill="black"/>
<rect x="4" y="4" width="48" height="48" rx="24" stroke="#ECFDF3" stroke-width="8"/>
</svg>
